<?xml version="1.0" encoding="UTF-8" standalone="no"?>
<svg
   xmlns:dc="http://purl.org/dc/elements/1.1/"
   xmlns:cc="http://creativecommons.org/ns#"
   xmlns:rdf="http://www.w3.org/1999/02/22-rdf-syntax-ns#"
   xmlns:svg="http://www.w3.org/2000/svg"
   xmlns="http://www.w3.org/2000/svg"
   xmlns:sodipodi="http://sodipodi.sourceforge.net/DTD/sodipodi-0.dtd"
   xmlns:inkscape="http://www.inkscape.org/namespaces/inkscape"
   width="24"
   height="24"
   version="1"
   id="svg20"
   sodipodi:docname="user-trash.svg"
   inkscape:version="0.92.5 (2060ec1f9f, 2020-04-08)">
  <metadata
     id="metadata26">
    <rdf:RDF>
      <cc:Work
         rdf:about="">
        <dc:format>image/svg+xml</dc:format>
        <dc:type
           rdf:resource="http://purl.org/dc/dcmitype/StillImage" />
        <dc:title></dc:title>
      </cc:Work>
    </rdf:RDF>
  </metadata>
  <defs
     id="defs24" />
  <sodipodi:namedview
     pagecolor="#ffffff"
     bordercolor="#666666"
     borderopacity="1"
     objecttolerance="10"
     gridtolerance="10"
     guidetolerance="10"
     inkscape:pageopacity="0"
     inkscape:pageshadow="2"
     inkscape:window-width="1720"
     inkscape:window-height="1374"
     id="namedview22"
     showgrid="false"
     inkscape:zoom="4.9166667"
     inkscape:cx="0.20338983"
     inkscape:cy="24"
     inkscape:window-x="0"
     inkscape:window-y="27"
     inkscape:window-maximized="0"
     inkscape:current-layer="svg20" />
  <rect
     style="opacity:0.2;stroke-width:0.5"
     width="15"
     height="17.5"
     x="4.5"
     y="5"
     rx="1"
     ry="1.0295"
     id="rect2" />
  <rect
     style="fill:#8e8e8e;stroke-width:0.5"
     width="15"
     height="17.5"
     x="4.5"
     y="4.5"
     rx="1"
     ry="1.0295"
     id="rect4" />
  <rect
     style="fill:#9f9f9f;stroke-width:0.5"
     width="6"
     height="2"
     x="9"
     y="2"
     id="rect6" />
  <path
     style="opacity:0.3;fill:none;stroke:#000000;stroke-width:2;stroke-linecap:round"
     d="m 8.0001,10.5 c 0,0 -10e-5,2 -10e-5,4 0,2 10e-5,4 10e-5,4"
     id="path8"
     inkscape:connector-curvature="0" />
  <rect
     style="fill:#9f9f9f;stroke-width:0.5"
     width="18"
     height="4"
     x="3"
     y="3"
     rx="1"
     ry="1"
     id="rect10" />
  <path
     style="opacity:0.3;fill:none;stroke:#000000;stroke-width:2;stroke-linecap:round"
     d="m 12,10.5 v 8"
     id="path12"
     inkscape:connector-curvature="0" />
  <path
     style="opacity:0.2;fill:#ffffff;stroke-width:0.5"
     d="M 4,3 C 3.446,3 3,3.446 3,4 v 0.5 c 0,-0.554 0.446,-1 1,-1 h 16 c 0.554,0 1,0.446 1,1 V 4 C 21,3.446 20.554,3 20,3 Z"
     id="path14"
     inkscape:connector-curvature="0" />
  <path
     style="opacity:0.2;stroke-width:0.5"
     d="m 3,6 v 0.5 c 0,0.554 0.446,1 1,1 h 16 c 0.554,0 1,-0.446 1,-1 V 6 c 0,0.554 -0.446,1 -1,1 H 4 C 3.446,7 3,6.554 3,6 Z"
     id="path16"
     inkscape:connector-curvature="0" />
  <path
     style="opacity:0.3;fill:none;stroke:#000000;stroke-width:2;stroke-linecap:round"
     d="m 16.0001,10.5 c 0,0 -10e-5,2 -10e-5,4 0,2 10e-5,4 10e-5,4"
     id="path18"
     inkscape:connector-curvature="0" />
</svg>
