<?xml version="1.0" encoding="UTF-8" standalone="no"?>
<!-- Created with Inkscape (http://www.inkscape.org/) -->
<svg id="svg6530" xmlns:rdf="http://www.w3.org/1999/02/22-rdf-syntax-ns#" xmlns="http://www.w3.org/2000/svg" height="24" viewBox="0 0 24 24" width="24" version="1.1" xmlns:cc="http://creativecommons.org/ns#" xmlns:dc="http://purl.org/dc/elements/1.1/">
 <metadata id="metadata6535">
  <rdf:RDF>
   <cc:Work rdf:about="">
    <dc:format>image/svg+xml</dc:format>
    <dc:type rdf:resource="http://purl.org/dc/dcmitype/StillImage"/>
    <dc:title/>
   </cc:Work>
  </rdf:RDF>
 </metadata>
 <g id="layer1" transform="translate(-344 -884.36)">
  <path id="path5378" style="fill:#d8c4f1" d="m352.5 888.27c-2.4853 0-4.5 2.0147-4.5 4.5 0.002 0.79285 0.21369 1.5711 0.61328 2.2559-0.0723 0.41084-0.11019 0.827-0.11328 1.2441 0 4.1421 3.3579 7.5 7.5 7.5 0.41888-0.00019 0.83701-0.0355 1.25-0.10547 0.68384 0.39586 1.4598 0.60468 2.25 0.60547 2.4853 0 4.5-2.0147 4.5-4.5-0.002-0.79285-0.21369-1.5711-0.61328-2.2559 0.0723-0.41084 0.11019-0.827 0.11328-1.2441 0-4.1421-3.3579-7.5-7.5-7.5-0.41888 0.00018-0.83701 0.0355-1.25 0.10546-0.68384-0.39584-1.4598-0.60468-2.25-0.60546zm3.5 2.0898v1a5 5 0 0 1 4.9961 4.9062 1 1 0 0 1 0.004 0.0937 1 1 0 0 1 -1 1 1 1 0 0 1 -1 -1 3 3 0 0 0 -3 -3v1l-3-2 3-2zm-4 5a1 1 0 0 1 1 1 3 3 0 0 0 3 3v-1l3 2-3 2v-1a5 5 0 0 1 -4.9961 -4.9062 1 1 0 0 1 -0.004 -0.0937 1 1 0 0 1 1 -1z"/>
 </g>
</svg>
