<?xml version="1.0" encoding="UTF-8" standalone="no"?>
<!-- Created with Inkscape (http://www.inkscape.org/) -->
<svg id="svg7384" xmlns:rdf="http://www.w3.org/1999/02/22-rdf-syntax-ns#" style="enable-background:new" xmlns="http://www.w3.org/2000/svg" xmlns:osb="http://www.openswatchbook.org/uri/2009/osb" height="48" width="48" version="1.1" xmlns:cc="http://creativecommons.org/ns#" xmlns:dc="http://purl.org/dc/elements/1.1/">
 <metadata id="metadata90">
  <rdf:RDF>
   <cc:Work rdf:about="">
    <dc:format>image/svg+xml</dc:format>
    <dc:type rdf:resource="http://purl.org/dc/dcmitype/StillImage"/>
    <dc:title>Paper Symbolic Icon Theme</dc:title>
   </cc:Work>
  </rdf:RDF>
 </metadata>
 <title id="title8473">Paper Symbolic Icon Theme</title>
 <g id="layer12" transform="translate(-361 23)">
  <rect id="rect8215" style="color:#bebebe;fill:none" height="48" width="48" y="-23" x="361"/>
  <path id="path8217" style="opacity:.35;fill:#fdb4b4" d="m399-12.993-28 28h18v-10h10v-18z"/>
  <path id="path8227" style="enable-background:new;fill:#fdb4b4" d="m391 7.0066v2c0 0.55228 0.20058 1.0756 0.5625 1.4375l1.5625 1.5625-1.5625 1.5625c-0.36192 0.36192-0.5625 0.88522-0.5625 1.4375v2h2c0.55228 0 1.0756-0.20058 1.4375-0.5625l1.5625-1.5625 1.5625 1.5625c0.36192 0.36192 0.88522 0.5625 1.4375 0.5625h2v-2c0-0.55228-0.20058-1.0756-0.5625-1.4375l-1.5625-1.5625 1.5625-1.5625c0.36192-0.36192 0.5625-0.88522 0.5625-1.4375v-2h-2c-0.55228 0-1.0756 0.20058-1.4375 0.5625l-1.5625 1.5625-1.5625-1.5625c-0.36192-0.36192-0.88522-0.5625-1.4375-0.5625h-2z"/>
 </g>
</svg>
