<svg xmlns="http://www.w3.org/2000/svg" width="1024" height="1024"><path d="M204 80c-24.376 0-44 19.981-44 44.8v806.4c0 24.819 19.624 44.8 44 44.8h616c24.376 0 44-19.981 44-44.8V336l-220-32-36-224z" opacity=".2"/><path d="M204 64c-24.376 0-44 19.981-44 44.8v806.4c0 24.819 19.624 44.8 44 44.8h616c24.376 0 44-19.981 44-44.8V320l-220-32-36-224z" fill="#2488d5"/><path d="M864 336L608 80v213.333C608 316.971 627.029 336 650.667 336z" opacity=".2"/><path d="M864 320L608 64v213.333C608 300.971 627.029 320 650.667 320z" fill="#53a4e2"/><path d="M384 432l17.462 18.057c13.204 15.004 28.077 28.624 41.654 43.273.15.138.381.221.539.358l22.038 22.79c-38.341 40.322-82.272 109.8-81.577 166.57-1.522 37.793 13.131 74.396 36.538 103.331 38.07 47.143 95.057 75.076 152.654 88.813 8.299 2.002 50.646 10.887 27.462-2.188-39.748-19.383-82.193-41.315-104.385-82.092-24.249-38.663-7.436-94.213 18.808-133.757 11.085-14.35 25.09-35.747 40.154-47.966L640 696.73V559.035 432h-.08z" opacity=".2"/><g fill="#fff"><path d="M384 416l17.462 18.057c13.204 15.004 28.077 28.624 41.654 43.273.15.138.381.221.539.358l22.038 22.79c-38.341 40.322-82.272 109.8-81.577 166.57-1.522 37.793 13.131 74.396 36.538 103.331 38.07 47.143 95.057 75.076 152.654 88.813 8.299 2.002 50.646 10.887 27.462-2.188-39.748-19.383-82.193-41.315-104.385-82.092-24.249-38.663-7.436-94.213 18.808-133.757 11.085-14.35 25.09-35.747 40.154-47.966L640 680.73V543.035 416h-.08z"/><path d="M204 64c-24.376 0-44 19.993-44 44.813v16C160 99.993 179.624 80 204 80h404V64z" opacity=".2"/></g></svg>
