<?xml version="1.0" encoding="UTF-8" standalone="no"?>
<!-- Created with Inkscape (http://www.inkscape.org/) -->
<svg id="svg6530" xmlns:rdf="http://www.w3.org/1999/02/22-rdf-syntax-ns#" xmlns="http://www.w3.org/2000/svg" xmlns:osb="http://www.openswatchbook.org/uri/2009/osb" height="22" viewBox="0 0 22 22" width="22" version="1.1" xmlns:cc="http://creativecommons.org/ns#" xmlns:dc="http://purl.org/dc/elements/1.1/">
 <metadata id="metadata6535">
  <rdf:RDF>
   <cc:Work rdf:about="">
    <dc:format>image/svg+xml</dc:format>
    <dc:type rdf:resource="http://purl.org/dc/dcmitype/StillImage"/>
    <dc:title/>
   </cc:Work>
  </rdf:RDF>
 </metadata>
 <g id="layer1" transform="translate(-225 -813.27)">
  <path id="path5205" style="fill:#bde6fb" d="m232.5 816.27c-2.4853 0-4.5 2.0147-4.5 4.5 0.002 0.79285 0.21369 1.5711 0.61328 2.2559-0.0723 0.41084-0.11019 0.827-0.11328 1.2441 0 4.1421 3.3579 7.5 7.5 7.5 0.41888-0.00019 0.83701-0.0355 1.25-0.10547 0.68384 0.39586 1.4598 0.60468 2.25 0.60547 2.4853 0 4.5-2.0147 4.5-4.5-0.002-0.79285-0.21369-1.5711-0.61328-2.2559 0.0723-0.41084 0.11019-0.827 0.11328-1.2441 0-4.1421-3.3579-7.5-7.5-7.5-0.41888 0.00018-0.83701 0.0355-1.25 0.10546-0.68384-0.39585-1.4598-0.60468-2.25-0.60546zm-0.5 7.0898h8v2h-8z"/>
  <rect id="rect5207" style="color:#bebebe;enable-background:new;fill:none" height="22" width="22" y="813.27" x="225"/>
 </g>
</svg>
