<?xml version="1.0" encoding="UTF-8" standalone="no"?>
<!-- Created with Inkscape (http://www.inkscape.org/) -->
<svg id="svg6530" xmlns:rdf="http://www.w3.org/1999/02/22-rdf-syntax-ns#" xmlns="http://www.w3.org/2000/svg" xmlns:osb="http://www.openswatchbook.org/uri/2009/osb" height="22" viewBox="0 0 22 22" width="22" version="1.1" xmlns:cc="http://creativecommons.org/ns#" xmlns:dc="http://purl.org/dc/elements/1.1/">
 <metadata id="metadata6535">
  <rdf:RDF>
   <cc:Work rdf:about="">
    <dc:format>image/svg+xml</dc:format>
    <dc:type rdf:resource="http://purl.org/dc/dcmitype/StillImage"/>
    <dc:title/>
   </cc:Work>
  </rdf:RDF>
 </metadata>
 <g id="layer1" transform="translate(-81 -469.36)">
  <rect id="rect10753" style="color:#dddddd;fill:none" transform="rotate(90)" height="22" width="22" y="-103" x="469.36"/>
  <path id="path10757" style="opacity:.35;color:#bebebe;fill:#fdb4b4" d="m84.5 472.36c-0.277 0-0.5 0.22301-0.5 0.50001v0.5h-2v-0.00026l-0.000015 14.502c0 0.277 0.223 0.5 0.5 0.5h6c0.277 0 0.5-0.223 0.5-0.5v-14.5l-0.50002 0.002h-1.5v-0.5c0-0.277-0.223-0.50001-0.5-0.50001z"/>
  <path id="path10759" style="color:#bebebe;fill:#fdb4b4" d="m82 480.36-0.000015 7.5017c-0.000001 0.277 0.223 0.5 0.5 0.5h6c0.277 0 0.5-0.223 0.5-0.5v-7.5z"/>
  <path id="path10807" style="fill:#fdb4b4" d="m96 472.36c-2.77 0-5 2.676-5 6h5zm1 0v6h5c0-3.324-2.23-6-5-6zm-6 7v3c0 3.324 2.23 6 5 6h1c2.77 0 5-2.676 5-6v-3h-5z"/>
 </g>
</svg>
