<?xml version="1.0" encoding="UTF-8" standalone="no"?>
<!-- Created with Inkscape (http://www.inkscape.org/) -->
<svg id="svg6530" xmlns:rdf="http://www.w3.org/1999/02/22-rdf-syntax-ns#" xmlns="http://www.w3.org/2000/svg" xmlns:osb="http://www.openswatchbook.org/uri/2009/osb" height="22" viewBox="0 0 22 22" width="22" version="1.1" xmlns:cc="http://creativecommons.org/ns#" xmlns:dc="http://purl.org/dc/elements/1.1/">
 <metadata id="metadata6535">
  <rdf:RDF>
   <cc:Work rdf:about="">
    <dc:format>image/svg+xml</dc:format>
    <dc:type rdf:resource="http://purl.org/dc/dcmitype/StillImage"/>
    <dc:title/>
   </cc:Work>
  </rdf:RDF>
 </metadata>
 <g id="layer1" transform="translate(-105 -909.36)">
  <rect id="rect5331" style="color:#bebebe;enable-background:new;fill:none" height="22" width="22" y="909.36" x="105"/>
  <path id="path5333" style="color:#000000;text-indent:0;block-progression:tb;text-decoration-line:none;text-transform:none;fill:#fcc8b4" d="m109 913.36s-1 0-1 1v12s0 1 1 1h12v-7h3v-4c0-1-1-1-1-1h-6l-2-2zm9 4 2 3h-1v3h-2v-3h-1zm-5 2h2v3h1l-2 3-2-3h1z"/>
  <path id="rect7811-3" style="color:#bebebe;fill:#fb7c7c" d="m122 921.36v4l0.25 2h1.5l0.25-2v-4zm0 7v2h2v-2z" class="error"/>
 </g>
</svg>
