<svg xmlns="http://www.w3.org/2000/svg" height="16" width="16"><defs><filter  color-interpolation-filters="sRGB"><feBlend in2="BackgroundImage" mode="darken"/></filter></defs><path d="M11.097 1.074c-.618-.22-1.283.07-1.564.646-1.93-.117-3.778 1.04-4.462 2.953-.61 1.732-1.84 3.97-2.477 4.087a.64.64 0 0 0-.291.34c-.12.333.053.696.385.815l9.3 3.33c.332.12.696-.053.815-.385a.64.64 0 0 0-.009-.448c-.42-.494.05-3.006.677-4.73a4.46 4.46 0 0 0-1.576-5.115c.15-.624-.18-1.27-.8-1.493zM6.74 12.72c-.297.83.27 1.8 1.263 2.146s2.04-.027 2.337-.856z" fill="#333"/></svg>