<?xml version="1.0" encoding="UTF-8" standalone="no"?>
<svg
   xmlns:dc="http://purl.org/dc/elements/1.1/"
   xmlns:cc="http://creativecommons.org/ns#"
   xmlns:rdf="http://www.w3.org/1999/02/22-rdf-syntax-ns#"
   xmlns:svg="http://www.w3.org/2000/svg"
   xmlns="http://www.w3.org/2000/svg"
   xmlns:sodipodi="http://sodipodi.sourceforge.net/DTD/sodipodi-0.dtd"
   xmlns:inkscape="http://www.inkscape.org/namespaces/inkscape"
   width="16"
   height="16"
   version="1"
   id="svg20"
   sodipodi:docname="user-trash.svg"
   inkscape:version="0.92.5 (2060ec1f9f, 2020-04-08)">
  <metadata
     id="metadata26">
    <rdf:RDF>
      <cc:Work
         rdf:about="">
        <dc:format>image/svg+xml</dc:format>
        <dc:type
           rdf:resource="http://purl.org/dc/dcmitype/StillImage" />
        <dc:title></dc:title>
      </cc:Work>
    </rdf:RDF>
  </metadata>
  <defs
     id="defs24" />
  <sodipodi:namedview
     pagecolor="#ffffff"
     bordercolor="#666666"
     borderopacity="1"
     objecttolerance="10"
     gridtolerance="10"
     guidetolerance="10"
     inkscape:pageopacity="0"
     inkscape:pageshadow="2"
     inkscape:window-width="1720"
     inkscape:window-height="1374"
     id="namedview22"
     showgrid="false"
     inkscape:zoom="41.7193"
     inkscape:cx="8.4356886"
     inkscape:cy="11.206056"
     inkscape:window-x="0"
     inkscape:window-y="27"
     inkscape:window-maximized="0"
     inkscape:current-layer="svg20" />
  <rect
     style="opacity:0.2;stroke-width:0.51075393"
     width="12"
     height="13"
     x="2"
     y="2.5"
     rx="0.80034786"
     ry="0.76450002"
     id="rect2" />
  <rect
     style="fill:#8e8e8e;stroke-width:0.51075393"
     width="12"
     height="13"
     x="2"
     y="2"
     rx="0.80034786"
     ry="0.76450002"
     id="rect4" />
  <rect
     style="fill:#9f9f9f;stroke-width:0.5"
     width="4.5"
     height="1.5"
     x="6"
     y="0.5"
     id="rect6" />
  <path
     style="opacity:0.3;fill:none;stroke:#000000;stroke-width:1.5;stroke-linecap:round"
     d="m 5.250075,6.25 c 0,0 -7.5e-5,1.625 -7.5e-5,3.125 0,1.5 7.5e-5,2.875 7.5e-5,2.875"
     id="path8"
     inkscape:connector-curvature="0" />
  <rect
     style="opacity:0.2;stroke-width:0.50917506"
     width="14"
     height="3"
     x="1"
     y="1.5"
     rx="0.77777779"
     ry="0.75"
     id="rect10" />
  <rect
     style="fill:#9f9f9f;stroke-width:0.50917506"
     width="14"
     height="3"
     x="1"
     y="1"
     rx="0.77777779"
     ry="0.75"
     id="rect12" />
  <path
     style="opacity:0.3;fill:none;stroke:#000000;stroke-width:1.5;stroke-linecap:round"
     d="m 8.25,6.25 v 6"
     id="path14"
     inkscape:connector-curvature="0" />
  <path
     style="opacity:0.3;fill:none;stroke:#000000;stroke-width:1.5;stroke-linecap:round"
     d="m 11.250075,6.25 c 0,0 -7.5e-5,1.625 -7.5e-5,3.125 0,1.5 7.5e-5,2.875 7.5e-5,2.875"
     id="path16"
     inkscape:connector-curvature="0" />
  <path
     style="opacity:0.2;fill:#ffffff;stroke-width:0.50917506"
     d="M 1.7777778,1 C 1.3468889,1 1,1.3345 1,1.75 v 0.5 C 1,1.8345 1.3468889,1.5 1.7777778,1.5 H 14.222222 C 14.653111,1.5 15,1.8345 15,2.25 V 1.75 C 15,1.3345 14.653111,1 14.222222,1 Z"
     id="path18"
     inkscape:connector-curvature="0" />
</svg>
