<?xml version="1.0" encoding="UTF-8" standalone="no"?>
<!-- Created with Inkscape (http://www.inkscape.org/) -->

<svg
   xmlns:dc="http://purl.org/dc/elements/1.1/"
   xmlns:cc="http://creativecommons.org/ns#"
   xmlns:rdf="http://www.w3.org/1999/02/22-rdf-syntax-ns#"
   xmlns:svg="http://www.w3.org/2000/svg"
   xmlns="http://www.w3.org/2000/svg"
   xmlns:sodipodi="http://sodipodi.sourceforge.net/DTD/sodipodi-0.dtd"
   xmlns:inkscape="http://www.inkscape.org/namespaces/inkscape"
   id="svg7384"
   height="16"
   width="16"
   version="1.1"
   inkscape:version="0.91 r13725"
   sodipodi:docname="process-working-symbolic.svg">
  <defs
     id="defs9" />
  <sodipodi:namedview
     pagecolor="#ffffff"
     bordercolor="#666666"
     borderopacity="1"
     objecttolerance="10"
     gridtolerance="10"
     guidetolerance="10"
     inkscape:pageopacity="0"
     inkscape:pageshadow="2"
     inkscape:window-width="1920"
     inkscape:window-height="1000"
     id="namedview7"
     showgrid="false"
     inkscape:zoom="14.75"
     inkscape:cx="8.2033898"
     inkscape:cy="8"
     inkscape:window-x="0"
     inkscape:window-y="0"
     inkscape:window-maximized="1"
     inkscape:current-layer="svg7384" />
  <metadata
     id="metadata90">
    <rdf:RDF>
      <cc:Work
         rdf:about="">
        <dc:format>image/svg+xml</dc:format>
        <dc:type
           rdf:resource="http://purl.org/dc/dcmitype/StillImage" />
        <dc:title>Gnome Symbolic Icon Theme</dc:title>
      </cc:Work>
    </rdf:RDF>
  </metadata>
  <title
     id="title9167">Gnome Symbolic Icon Theme</title>
  <g
     id="layer9"
     transform="translate(-201,-317.0678)"
     style="fill:#555555;fill-opacity:1">
    <path
       id="path14339"
       style="color:#000000;fill:#555555;fill-opacity:1"
       d="m -11.667,99.897 10e-7,3.3285 c -0.78263,-10e-4 -1.5835,0.21322 -2.2606,0.60573 l -10e-7,0 c -1.9814,1.028 -2.8568,4.2951 -1.6549,6.176 1.028,1.9814 4.2951,2.8568 6.176,1.6549 l 9e-7,0 c 1.9814,-1.028 2.8568,-4.2951 1.6549,-6.176 1.2184,1.8714 0.37375,5.1607 -1.6264,6.2254 l -3e-7,0 c -1.9030996,1.2327 -5.2182996,0.3811 -6.3031996,-1.6472 l -1e-6,0 c -0.61712,-0.95745 -0.71858,-2.2594 -0.41437,-3.4642 -0.32212,1.2002 -0.24184,2.51 0.36612,3.4921 1.0722,2.0747 4.4203,3.0076 6.4355996,1.7651 l 7e-7,0 c 2.1022,-1.092 3.0419,-4.4654 1.7855,-6.5116 1.2885,2.0276 0.4088,5.4443 -1.7299,6.6079 l -4e-7,0 c -2.0584999,1.3024 -5.5004999,0.41597 -6.6837999,-1.7502 l -10e-7,0 c -0.65145,-1.034 -0.76176,-2.4054 -0.44111,-3.6729 -0.33834,1.2629 -0.24894,2.6421 0.39346,3.7004 l 1e-6,0 c 1.1708,2.212 4.6452,3.1787 6.8144999,1.8666 l 8e-7,0 c 2.2395,-1.1906 3.213,-4.6903 1.887,-6.8905 1.3581,2.1816 0.44457,5.7246 -1.8314,6.9868 l -4e-7,0 c -2.2125003,1.3721 -5.7808003,0.45174 -7.0627003,-1.8518 -0.6859,-1.1102 -0.80532,-2.5511 -0.46845,-3.8812 -0.35456,1.3255 -0.25606,2.7742 0.4208,3.9087 1.2694,2.3492 4.8701,3.3498 7.1935003,1.9682 3e-7,0 6e-7,-10e-6 9e-7,-10e-6 2.3768,-1.2891 3.3841,-4.9152 1.9885,-7.2694 1.4277,2.3357 0.48034,6.0049 -1.9329,7.3657 l -4e-7,0 c -2.3664998,1.4417 -6.0610998,0.48751 -7.4415998,-1.9533 -0.72035,-1.1864 -0.84888,-2.6967 -0.49579,-4.0895 -0.37079,1.3882 -0.26316,2.9063 0.44814,4.117 1.368,2.4866 5.095,3.521 7.5723998,2.0697 l 1e-6,0 c 2.5141,-1.3877 3.5553,-5.1401 2.09,-7.6483 1.4973,2.4897 0.5161,6.2852 -2.0345,7.7446 l -4e-7,0 c -2.5206004,1.5113 -6.3414004,0.52328 -7.8205004,-2.0548 -0.7548,-1.2626 -0.89244,-2.8424 -0.52312,-4.2978 -0.38701,1.4508 -0.27028,3.0384 0.47547,4.3253 l 1e-6,0 c 1.4665,2.6238 5.3199,3.6921 7.9513004,2.1712 l 10e-7,0 c 2.6514,-1.4863 3.7264,-5.3649 2.1916,-8.0272 1.5669,2.6437 0.55188,6.5656 -2.136,8.1235 l -5e-7,0 c -2.6745999,1.5809 -6.6216999,0.55905 -8.1993999,-2.1563 l -10e-7,0 c -0.78925,-1.3389 -0.93601,-2.988 -0.55046,-4.5061 -0.40323,1.5134 -0.27738,3.1704 0.50282,4.5336 l 1e-6,0 c 1.5651,2.7611 5.5448,3.8633 8.3301999,2.2728 l 1.1e-6,0 c 2.7887,-1.5849 3.8976,-5.5898 2.2931,-8.4061 1.6366,2.7978 0.58764,6.8459 -2.2375,8.5024 l -5e-7,0 c -2.8286005,1.6505 -6.9021005,0.59481 -8.5783005,-2.2579 l -1e-6,0 c -0.8237,-1.4151 -0.97956,-3.1337 -0.5778,-4.7144 -0.41946,1.5761 -0.2845,3.3025 0.53015,4.7419 l 1e-6,0 c 1.6637,2.8984 5.7696,4.0344 8.7091005,2.3743 l 1.1e-6,0 c 2.9259,-1.6835 4.0687,-5.8147 2.3946,-8.785 1.7062,2.9518 0.62341,7.1262 -2.339,8.8813 l -5e-7,0 c -2.9826001,1.7201 -7.1824001,0.63058 -8.9572001,-2.3594 l -10e-7,0 c -0.85814,-1.4913 -1.0231,-3.2793 -0.60514,-4.9227 -0.43568,1.6387 -0.29161,3.4346 0.55749,4.9502 l 10e-7,0 c 1.7623,3.0357 5.9945,4.2055 9.0880001,2.4758 l 1.2e-6,0 c 3.0632,-1.782 4.2398,-6.0396 2.4962,-9.1639 1.7758,3.1058 0.65918,7.4065 -2.4406,9.2602 l -6e-7,0 c -3.1366997,1.7897 -7.4626997,0.66635 -9.3360997,-2.4609 -0.89259,-1.5675 -1.0667,-3.425 -0.63248,-5.131 -0.4519,1.7014 -0.29872,3.5667 0.58483,5.1585 l 1e-6,0 c 1.8609,3.173 6.2194,4.3767 9.4668997,2.5773 4e-7,0 8e-7,-1e-5 1.2e-6,-1e-5 3.2005,-1.8806 4.411,-6.2645 2.5977,-9.5428 1.8454,3.2598 0.69494,7.6869 -2.5421,9.6391 l -7e-7,0 c -3.2907002,1.8593 -7.7430002,0.70211 -9.7150002,-2.5624 -0.92704,-1.6438 -1.1102,-3.5706 -0.65981,-5.3393 -0.46812,1.764 -0.30583,3.6987 0.61216,5.3668 l 1e-6,0 c 1.9595,3.3103 6.4443,4.5478 9.8458002,2.6789 l 1.3e-6,0 c 3.3378,-1.9792 4.5821,-6.4894 2.6992,-9.9217 1.915,3.4138 0.73072,7.9672 -2.6436,10.018 l -7e-7,0 c -3.4446998,1.929 -8.0233998,0.73789 -10.0939998,-2.664 l -1e-6,-1e-5 c -0.96149,-1.72 -1.1538,-3.7163 -0.68715,-5.5476 -0.48435,1.8267 -0.31294,3.8308 0.63951,5.5751 0,0 10e-7,0 10e-7,1e-5 2.058,3.4476 6.6692,4.7189 10.2249998,2.7804 l 1.3e-6,0 c 3.4751,-2.0778 4.7532,-6.7142 2.8007,-10.301 1.9846,3.5678 0.76648,8.2475 -2.7451,10.397 l -7e-7,0 c -3.5987004,1.9986 -8.3037004,0.77366 -10.4730004,-2.7655 l -1e-6,0 c -0.99594,-1.7962 -1.1974,-3.8619 -0.71449,-5.7559 -0.50057,1.8893 -0.32005,3.9629 0.66684,5.7834 l 10e-7,0 c 2.1566,3.5849 6.8941,4.8901 10.6040004,2.8819 l 1.4e-6,0 c 3.6124,-2.1764 4.9244,-6.9391 2.9023,-10.68 2.0379,3.7313 0.75533,8.5153 -2.875,10.727 l -9e-7,0 c -3.7306999,2.0376 -8.5141999,0.7552 -10.7249999,-2.8746 -2.0373,-3.7302 -0.75506,-8.5131 2.8742,-10.724 l 2e-6,0 c 1.1929,-0.68698 2.5485,-1.0501 3.925,-1.0514 z"
       transform="matrix(0.88624,0,0,0.88624,219.32,229.52)"
       inkscape:connector-curvature="0" />
  </g>
</svg>
