<?xml version="1.0" encoding="UTF-8" standalone="no"?>
<!-- Created with Inkscape (http://www.inkscape.org/) -->
<svg id="svg7384" xmlns:rdf="http://www.w3.org/1999/02/22-rdf-syntax-ns#" style="enable-background:new" xmlns="http://www.w3.org/2000/svg" xmlns:osb="http://www.openswatchbook.org/uri/2009/osb" height="48" width="48" version="1.1" xmlns:cc="http://creativecommons.org/ns#" xmlns:dc="http://purl.org/dc/elements/1.1/">
 <metadata id="metadata90">
  <rdf:RDF>
   <cc:Work rdf:about="">
    <dc:format>image/svg+xml</dc:format>
    <dc:type rdf:resource="http://purl.org/dc/dcmitype/StillImage"/>
    <dc:title>Paper Symbolic Icon Theme</dc:title>
   </cc:Work>
  </rdf:RDF>
 </metadata>
 <title id="title8473">Paper Symbolic Icon Theme</title>
 <g id="layer12" transform="translate(-457 -25)">
  <path id="path4790" style="opacity:.35;fill:#ffffff" d="m481 34.438c-1.5359 1.5156-3.0326 3.0735-4.5938 4.5625h-5.4062v5.4062c-1.4892 1.5612-3.0467 3.0578-4.5625 4.5938 1.5158 1.5361 3.0734 3.0324 4.5625 4.5938v5.4062h5.4062c1.5612 1.4892 3.0578 3.0467 4.5938 4.5625 1.5361-1.5158 3.0324-3.0734 4.5938-4.5625h5.4062v-5.4062c1.4892-1.5612 3.0467-3.0578 4.5625-4.5938-1.5158-1.5361-3.0734-3.0324-4.5625-4.5938v-5.4062h-5.4062c-1.5612-1.4892-3.0578-3.0467-4.5938-4.5625zm0 5.5625c4.9706 0 9 4.0294 9 9s-4.0294 9-9 9-9-4.0294-9-9 4.0294-9 9-9z"/>
  <path id="path4792" style="opacity:.35;fill:#ffffff" d="m481 43c-3.3137 0-6 2.6863-6 6s2.6863 6 6 6v-12z"/>
  <rect id="rect4794" style="opacity:.1;color:#bebebe;fill:none" height="48" width="48" y="25" x="457"/>
 </g>
</svg>
