<?xml version="1.0" encoding="UTF-8" standalone="no"?>
<svg
   xmlns:dc="http://purl.org/dc/elements/1.1/"
   xmlns:cc="http://creativecommons.org/ns#"
   xmlns:rdf="http://www.w3.org/1999/02/22-rdf-syntax-ns#"
   xmlns:svg="http://www.w3.org/2000/svg"
   xmlns="http://www.w3.org/2000/svg"
   xmlns:sodipodi="http://sodipodi.sourceforge.net/DTD/sodipodi-0.dtd"
   xmlns:inkscape="http://www.inkscape.org/namespaces/inkscape"
   width="32"
   height="32"
   version="1"
   id="svg28"
   sodipodi:docname="ksudoku.svg"
   inkscape:version="0.92.3 (2405546, 2018-03-11)">
  <metadata
     id="metadata34">
    <rdf:RDF>
      <cc:Work
         rdf:about="">
        <dc:format>image/svg+xml</dc:format>
        <dc:type
           rdf:resource="http://purl.org/dc/dcmitype/StillImage" />
        <dc:title></dc:title>
      </cc:Work>
    </rdf:RDF>
  </metadata>
  <defs
     id="defs32" />
  <sodipodi:namedview
     pagecolor="#ffffff"
     bordercolor="#666666"
     borderopacity="1"
     objecttolerance="10"
     gridtolerance="10"
     guidetolerance="10"
     inkscape:pageopacity="0"
     inkscape:pageshadow="2"
     inkscape:window-width="3440"
     inkscape:window-height="1353"
     id="namedview30"
     showgrid="false"
     inkscape:zoom="9.8333333"
     inkscape:cx="12.305085"
     inkscape:cy="12"
     inkscape:window-x="0"
     inkscape:window-y="0"
     inkscape:window-maximized="1"
     inkscape:current-layer="svg28" />
  <rect
     style="fill:#e4e4e4;stroke-width:1.33333337"
     width="26.666666"
     height="26.666666"
     x="-29.333334"
     y="-29.333334"
     rx="13.333333"
     ry="13.333333"
     transform="matrix(0,-1,-1,0,0,0)"
     id="rect2" />
  <path
     style="opacity:0.2;stroke-width:1.33333337"
     d="m 2.6744667,16.333333 c -0.00273,0.111334 -0.0078,0.221334 -0.0078,0.333334 C 2.6666667,24.053333 8.6133333,30 16,30 c 7.386667,0 13.333333,-5.946667 13.333333,-13.333333 0,-0.11192 -0.0051,-0.222094 -0.0079,-0.333334 -0.175966,7.230667 -6.050633,13 -13.3253,13 -7.2746663,0 -13.149333,-5.769333 -13.325333,-13 z"
     id="path4"
     inkscape:connector-curvature="0" />
  <g
     style="font-size:12px;font-family:'Clear Sans';letter-spacing:0px;word-spacing:0px;fill:#3f3f3f"
     transform="matrix(0.70921987,0,0,0.68119893,-0.56737608,-0.3183476)"
     id="g8">
    <path
       d="m 12.08,22.842 q 0,0.924 -0.168,1.824 -0.156,0.888 -0.588,1.62 -0.42,0.72 -1.2,1.152 -0.7679998,0.432 -1.9799998,0.432 -0.24,0 -0.564,-0.036 -0.324,-0.024 -0.516,-0.084 v -0.9 q 0.468,0.156 1.056,0.156 0.84,0 1.38,-0.276 Q 10.052,26.454 10.376,25.986 10.7,25.506 10.844,24.882 10.988,24.246 11.012,23.55 H 10.94 q -0.276,0.408 -0.768,0.708 -0.4919998,0.288 -1.2719998,0.288 -1.104,0 -1.788,-0.672 -0.672,-0.684 -0.672,-1.92 0,-0.9 0.336,-1.548 0.336,-0.648 0.948,-0.996 0.624,-0.348 1.452,-0.348 0.816,0 1.4759998,0.42 0.66,0.408 1.044,1.248 0.384,0.828 0.384,2.112 z M 9.1760002,19.95 q -0.744,0 -1.224,0.492 -0.468,0.492 -0.468,1.5 0,0.828 0.396,1.308 0.408,0.468 1.248,0.468 0.576,0 0.9959998,-0.228 0.42,-0.24 0.648,-0.6 0.24,-0.36 0.24,-0.744 0,-0.516 -0.204,-1.02 -0.204,-0.504 -0.612,-0.84 Q 9.7880002,19.95 9.1760002,19.95 Z"
       style="fill:#3f3f3f"
       id="path6"
       inkscape:connector-curvature="0" />
  </g>
  <rect
     style="fill:#a26b4e;stroke-width:1.33333337"
     width="10.666667"
     height="10.666667"
     x="10.666667"
     y="10.666667"
     ry="0"
     id="rect10" />
  <g
     style="font-size:12px;font-family:'Clear Sans';letter-spacing:0px;word-spacing:0px;opacity:0.2"
     transform="scale(0.66666667)"
     id="g14">
    <path
       d="m 26.616001,22.266 q 0,0.864 -0.492,1.38 -0.48,0.504 -1.284,0.672 v 0.048 q 1.02,0.12 1.524,0.648 0.516,0.528 0.516,1.38 0,0.756 -0.348,1.332 -0.348,0.576 -1.08,0.9 -0.72,0.324 -1.86,0.324 -0.672,0 -1.248,-0.108 -0.576,-0.096 -1.104,-0.36 v -0.984 q 0.54,0.276 1.164,0.42 0.624,0.144 1.2,0.144 1.152,0 1.656,-0.444 0.516,-0.456 0.516,-1.248 0,-0.804 -0.636,-1.152 -0.624,-0.36 -1.764,-0.36 h -0.828 v -0.9 h 0.84 q 1.056,0 1.596,-0.444 0.552,-0.444 0.552,-1.176 0,-0.624 -0.42,-0.96 -0.42,-0.348 -1.14,-0.348 -0.696,0 -1.188,0.204 -0.492,0.204 -0.972,0.516 l -0.528,-0.72 q 0.456,-0.36 1.128,-0.624 0.684,-0.264 1.548,-0.264 1.344,0 1.992,0.6 0.66,0.6 0.66,1.524 z"
       id="path12"
       inkscape:connector-curvature="0" />
  </g>
  <g
     style="font-size:12px;font-family:'Clear Sans';letter-spacing:0px;word-spacing:0px;fill:#ffffff"
     transform="scale(0.66666667)"
     id="g18">
    <path
       d="m 26.616001,21.266 q 0,0.864 -0.492,1.38 -0.48,0.504 -1.284,0.672 v 0.048 q 1.02,0.12 1.524,0.648 0.516,0.528 0.516,1.38 0,0.756 -0.348,1.332 -0.348,0.576 -1.08,0.9 -0.72,0.324 -1.86,0.324 -0.672,0 -1.248,-0.108 -0.576,-0.096 -1.104,-0.36 v -0.984 q 0.54,0.276 1.164,0.42 0.624,0.144 1.2,0.144 1.152,0 1.656,-0.444 0.516,-0.456 0.516,-1.248 0,-0.804 -0.636,-1.152 -0.624,-0.36 -1.764,-0.36 h -0.828 v -0.9 h 0.84 q 1.056,0 1.596,-0.444 0.552,-0.444 0.552,-1.176 0,-0.624 -0.42,-0.96 -0.42,-0.348 -1.14,-0.348 -0.696,0 -1.188,0.204 -0.492,0.204 -0.972,0.516 l -0.528,-0.72 q 0.456,-0.36 1.128,-0.624 0.684,-0.264 1.548,-0.264 1.344,0 1.992,0.6 0.66,0.6 0.66,1.524 z"
       id="path16"
       inkscape:connector-curvature="0" />
  </g>
  <path
     style="fill:#9a9a9a;stroke-width:1.33333337"
     d="M 10.666667,3.7760416 C 7.5835103,5.116744 5.116744,7.5835103 3.7760416,10.666667 h 6.8906254 z m 10.666666,0 v 6.8906254 h 6.890626 C 26.883256,7.5835103 24.416489,5.116744 21.333333,3.7760416 Z M 3.7760416,21.333333 c 1.3407024,3.083156 3.8074687,5.549923 6.8906254,6.890626 v -6.890626 z m 17.5572914,0 v 6.890626 c 3.083156,-1.340703 5.549923,-3.80747 6.890626,-6.890626 z"
     id="path20"
     inkscape:connector-curvature="0" />
  <rect
     style="opacity:0.2;stroke-width:1.33333337"
     width="10.666667"
     height="0.66666669"
     x="10.666667"
     y="10.666667"
     id="rect22" />
  <path
     style="opacity:0.2;stroke-width:1.33333337"
     d="M 3.7760416,21.333333 C 3.8748289,21.560511 3.98551,21.779687 4.0963541,22 h 6.5703129 v -0.666667 z m 17.5572914,0 V 22 h 6.570312 c 0.110844,-0.220313 0.221526,-0.439489 0.320314,-0.666667 z"
     id="path24"
     inkscape:connector-curvature="0" />
  <path
     style="opacity:0.2;fill:#ffffff;stroke-width:1.33333337"
     d="M 16,2.6666667 C 8.6133333,2.6666667 2.6666667,8.6133333 2.6666667,16 c 0,0.112 0.00533,0.222 0.0078,0.333333 C 2.8509333,9.1026667 8.7253333,3.3333333 15.9998,3.3333333 c 7.274467,0 13.149333,5.7692667 13.325333,12.9999997 C 29.3278,16.222093 29.333,16.111913 29.333,16 29.333,8.6133333 23.386333,2.6666667 15.999667,2.6666667 Z"
     id="path26"
     inkscape:connector-curvature="0" />
</svg>
