<svg xmlns="http://www.w3.org/2000/svg" height="16" width="16"><path d="M8.137 1a6.84 6.84 0 0 1 .801.063A7 7 0 0 1 14.063 4.5c.277.477.113 1.09-.367 1.363s-1.09.113-1.363-.363a5 5 0 0 0-5.199-2.426A4.99 4.99 0 0 0 3.418 6H5a1 1 0 1 1 0 2H1a1 1 0 0 1-1-1V3a1 1 0 0 1 1-1 1 1 0 0 1 1 1v1.398c1.023-1.703 2.75-2.934 4.785-3.293.453-.078.906-.113 1.352-.105zM15 8a1 1 0 0 1 1 1v4a1 1 0 1 1-2 0v-1.395c-1.141 1.895-3.133 3.168-5.391 3.367A7 7 0 0 1 1.938 11.5c-.277-.477-.113-1.09.367-1.363a.97.97 0 0 1 .758-.102.99.99 0 0 1 .609.465c.973 1.684 2.824 2.648 4.766 2.48 1.832-.16 3.414-1.309 4.145-2.98H11a1 1 0 1 1 0-2zm0 0" fill="#333333"/></svg>
