<?xml version="1.0" encoding="UTF-8" standalone="no"?>
<!-- Created with Inkscape (http://www.inkscape.org/) -->
<svg id="svg6530" xmlns:rdf="http://www.w3.org/1999/02/22-rdf-syntax-ns#" xmlns="http://www.w3.org/2000/svg" height="24" viewBox="0 0 24 24" width="24" version="1.1" xmlns:cc="http://creativecommons.org/ns#" xmlns:dc="http://purl.org/dc/elements/1.1/">
 <metadata id="metadata6535">
  <rdf:RDF>
   <cc:Work rdf:about="">
    <dc:format>image/svg+xml</dc:format>
    <dc:type rdf:resource="http://purl.org/dc/dcmitype/StillImage"/>
    <dc:title/>
   </cc:Work>
  </rdf:RDF>
 </metadata>
 <g id="layer1" transform="translate(-104 -636.36)">
  <path id="path2986-2-78" style="opacity:.4;color:#000000;fill:#fdb4b4" d="m116 640.36c-0.55228 0-1 0.44772-1 1 0 0.0333 0.002 0.0665 0.006 0.0996-0.64334 0.12889-1.2324 0.39135-1.7598 0.74023l7.7538 7.7539v-1.5938-2c0.00017-2.4292-1.7155-4.4416-4.0059-4.9004 0.004-0.0331 0.006-0.0663 0.006-0.0996 0-0.55228-0.44772-1-1-1zm-5.6562 0.9375-1.4062 1.4062 2.2695 2.2695c-0.13062 0.4396-0.20702 0.9025-0.20703 1.3867v4.5l-2 2v0.5h2 8.5938l2.0625 2.0625 1.4062-1.4062-12.719-12.719zm3.9258 13.062c0.35698 0.61831 1.0165 0.99944 1.7305 1 0.71327-0.001 1.3719-0.38229 1.7285-1h-3.459z"/>
 </g>
</svg>
