<?xml version="1.0" encoding="UTF-8" standalone="no"?>
<!-- Created with Inkscape (http://www.inkscape.org/) -->
<svg id="svg6530" xmlns:rdf="http://www.w3.org/1999/02/22-rdf-syntax-ns#" xmlns:xlink="http://www.w3.org/1999/xlink" version="1.1" height="24" viewBox="0 0 24 24" width="24" xmlns="http://www.w3.org/2000/svg" xmlns:cc="http://creativecommons.org/ns#" xmlns:dc="http://purl.org/dc/elements/1.1/">
 <defs id="defs6532">
  <linearGradient id="linearGradient3816" y2="4.125" gradientUnits="userSpaceOnUse" y1="31.125" gradientTransform="matrix(0 1 1 0 519.88 392.12)" x2="3.875" x1="5.875">
   <stop id="stop3770" style="stop-color:#fcc8b4" offset="0"/>
   <stop id="stop3772" style="stop-color:#fcc8b4;stop-opacity:0" offset="1"/>
  </linearGradient>
  <linearGradient id="linearGradient3819" y2="10" gradientUnits="userSpaceOnUse" y1="6" gradientTransform="matrix(0 -1 1 0 520 416)" x2="23" x1="12">
   <stop id="stop4949" style="stop-color:#fcc8b4" offset="0"/>
   <stop id="stop4951" style="stop-color:#fcc8b4;stop-opacity:0" offset="1"/>
  </linearGradient>
 </defs>
 <metadata id="metadata6535">
  <rdf:RDF>
   <cc:Work rdf:about="">
    <dc:format>image/svg+xml</dc:format>
    <dc:type rdf:resource="http://purl.org/dc/dcmitype/StillImage"/>
    <dc:title/>
   </cc:Work>
  </rdf:RDF>
 </metadata>
 <g id="layer2" transform="translate(-520 -392)">
  <path id="path5158" style="block-progression:tb;text-indent:0;color:#000000;text-transform:none;fill:url(#linearGradient3819)" d="m524 404c0.00001 4.4064 3.5936 8 8 8 4.4064-0.00001 8-3.5936 8-8h-2c-0.00001 3.3256-2.6744 6-6 6s-6-2.6744-6-6c0.00001-0.55229-0.4477-1-0.99998-1-0.5523-0.00002-1 0.44771-1 1z"/>
  <path id="path5160" style="block-progression:tb;text-indent:0;color:#000000;text-transform:none;fill:url(#linearGradient3816)" d="m524 404c0.00001-4.4064 3.5936-8 8-8 4.4064-0.00001 8 3.5936 8 8h-2c0-3.3256-2.6744-6-6-6s-6 2.6744-6 6z"/>
 </g>
</svg>
