<?xml version="1.0" encoding="UTF-8" standalone="no"?>
<!-- Created with Inkscape (http://www.inkscape.org/) -->
<svg id="svg7384" xmlns:rdf="http://www.w3.org/1999/02/22-rdf-syntax-ns#" style="enable-background:new" xmlns="http://www.w3.org/2000/svg" xmlns:osb="http://www.openswatchbook.org/uri/2009/osb" height="48" width="48" version="1.1" xmlns:cc="http://creativecommons.org/ns#" xmlns:dc="http://purl.org/dc/elements/1.1/">
 <metadata id="metadata90">
  <rdf:RDF>
   <cc:Work rdf:about="">
    <dc:format>image/svg+xml</dc:format>
    <dc:type rdf:resource="http://purl.org/dc/dcmitype/StillImage"/>
    <dc:title>Paper Symbolic Icon Theme</dc:title>
   </cc:Work>
  </rdf:RDF>
 </metadata>
 <title id="title8473">Paper Symbolic Icon Theme</title>
 <g id="layer12" transform="translate(-409 23)">
  <rect id="rect10469" style="fill:none" transform="rotate(90)" height="48" width="48" y="-457" x="-23"/>
  <path id="path10471" style="opacity:.35;fill:#d8c4f1" d="m419-10.993c-1.9996 0-2 2-2 2v22s0 2 2 2h18v-4h-4v-5.9999h9.9999 4v-14c0-2-2-2-2-2h-26zm2 4h22v9.9999h-22v-9.9999zm0 12h9.9999v5.9999h-9.9999v-5.9999z"/>
  <path id="path2987-7-9-8-5-1-5" style="enable-background:new;fill:#d8c4f1" d="m439 7.0001v2c0 0.55227 0.20058 1.0756 0.5625 1.4375l1.5625 1.5625-1.5625 1.5625c-0.36192 0.36192-0.5625 0.88521-0.5625 1.4375v2h2c0.55227 0 1.0756-0.20058 1.4375-0.56249l1.5625-1.5625 1.5625 1.5625c0.36191 0.36192 0.8852 0.56249 1.4375 0.56249h2v-2c0-0.55227-0.20057-1.0756-0.56249-1.4375l-1.5625-1.5625 1.5625-1.5625c0.36192-0.36192 0.56249-0.88521 0.56249-1.4375v-2h-2c-0.55228 0-1.0756 0.20058-1.4375 0.56249l-1.5625 1.5625-1.5625-1.5625c-0.36191-0.36192-0.88521-0.56249-1.4375-0.56249h-2z"/>
 </g>
</svg>
