<svg xmlns="http://www.w3.org/2000/svg" width="512" height="512"><path d="M160 40l-80 80v348a19.96 19.96 0 0 0 20 20h312a19.96 19.96 0 0 0 20-20V60a19.96 19.96 0 0 0-20-20z" opacity=".2"/><path d="M160 32l-80 80v348a19.96 19.96 0 0 0 20 20h312a19.96 19.96 0 0 0 20-20V52a19.96 19.96 0 0 0-20-20z" fill="#4f4f4f"/><rect width="272" height="160" x="120" y="-424" rx="20" transform="scale(1 -1)" opacity=".4"/><path d="M376 72h24v64h-24zm-32 0h24v64h-24zm-32 0h24v64h-24zm-32 0h24v64h-24zm-32 0h24v64h-24zm-32 0h24v64h-24zm-32 0h24v64h-24zm-32 0h24v64h-24zm-32 32h24v32h-24z" fill="#f8c44e"/><path d="M160 32l-80 80v8l80-80h252a19.96 19.96 0 0 1 20 20v-8a19.96 19.96 0 0 0-20-20z" opacity=".1" fill="#fff"/></svg>
