<?xml version="1.0" encoding="UTF-8" standalone="no"?>
<svg
   xmlns:dc="http://purl.org/dc/elements/1.1/"
   xmlns:cc="http://creativecommons.org/ns#"
   xmlns:rdf="http://www.w3.org/1999/02/22-rdf-syntax-ns#"
   xmlns:svg="http://www.w3.org/2000/svg"
   xmlns="http://www.w3.org/2000/svg"
   xmlns:sodipodi="http://sodipodi.sourceforge.net/DTD/sodipodi-0.dtd"
   xmlns:inkscape="http://www.inkscape.org/namespaces/inkscape"
   width="512"
   height="512"
   version="1"
   id="svg16"
   sodipodi:docname="video-television.svg"
   inkscape:version="0.92.5 (2060ec1f9f, 2020-04-08)">
  <metadata
     id="metadata22">
    <rdf:RDF>
      <cc:Work
         rdf:about="">
        <dc:format>image/svg+xml</dc:format>
        <dc:type
           rdf:resource="http://purl.org/dc/dcmitype/StillImage" />
        <dc:title></dc:title>
      </cc:Work>
    </rdf:RDF>
  </metadata>
  <defs
     id="defs20" />
  <sodipodi:namedview
     pagecolor="#ffffff"
     bordercolor="#666666"
     borderopacity="1"
     objecttolerance="10"
     gridtolerance="10"
     guidetolerance="10"
     inkscape:pageopacity="0"
     inkscape:pageshadow="2"
     inkscape:window-width="1684"
     inkscape:window-height="1374"
     id="namedview18"
     showgrid="false"
     inkscape:zoom="0.4609375"
     inkscape:cx="32.813559"
     inkscape:cy="32"
     inkscape:window-x="1756"
     inkscape:window-y="27"
     inkscape:window-maximized="0"
     inkscape:current-layer="svg16" />
  <rect
     style="opacity:0.2;stroke-width:8"
     width="320"
     height="224"
     x="-432"
     y="-368"
     rx="20"
     ry="20"
     transform="matrix(0,-1,-1,0,0,0)"
     id="rect2" />
  <rect
     style="fill:#8e8e8e;stroke-width:8"
     width="320"
     height="224"
     x="-424"
     y="-368"
     rx="20"
     ry="20"
     transform="matrix(0,-1,-1,0,0,0)"
     id="rect4" />
  <rect
     style="opacity:0.2;stroke-width:8"
     width="304"
     height="416"
     x="-400"
     y="-464"
     rx="20"
     ry="20"
     transform="matrix(0,-1,-1,0,0,0)"
     id="rect6" />
  <rect
     style="fill:#4f4f4f;stroke-width:8"
     width="304"
     height="416"
     x="-392"
     y="-464"
     rx="20"
     ry="20"
     transform="matrix(0,-1,-1,0,0,0)"
     id="rect8" />
  <rect
     style="fill:#333333;stroke-width:8"
     width="256"
     height="368"
     x="-368"
     y="-440"
     rx="0"
     ry="0"
     transform="matrix(0,-1,-1,0,0,0)"
     id="rect10" />
  <path
     style="opacity:0.1;fill:#ffffff;stroke-width:8"
     d="m 68,88 c -11.08,0 -20,8.92 -20,20 v 8 c 0,-11.08 8.92,-20 20,-20 h 376 c 11.08,0 20,8.92 20,20 v -8 c 0,-11.08 -8.92,-20 -20,-20 z"
     id="path12"
     inkscape:connector-curvature="0" />
  <rect
     style="opacity:0.1;fill:#ffffff;stroke-width:8"
     width="368"
     height="8"
     x="72"
     y="368"
     id="rect14" />
</svg>
