<svg xmlns="http://www.w3.org/2000/svg" width="16" height="16" fill="#333"><path d="M7.995 0a6.01 6.01 0 0 0-5.87 4.777c-.53 2.534.7 5.036 2.872 6.327l.002.898A1 1 0 0 0 6 13h4a1 1 0 0 0 1-.998l.002-.9c2.183-1.293 3.4-3.797 2.87-6.33A6.009 6.009 0 0 0 7.996 0zm0 2a3.99 3.99 0 0 1 3.918 3.182 3.99 3.99 0 0 1-2.312 4.484 1 1 0 0 0-.6.914V11H6.997v-.418a1 1 0 0 0-.6-.914 3.993 3.993 0 0 1-2.316-4.484A3.99 3.99 0 0 1 7.995 2zM6 15a1 1 0 0 0 1 1h2a1 1 0 0 0 1-1v-1H6z"/><path d="M6.992 5.994a.5.5 0 0 0-.348.86l1 1a.5.5 0 0 0 .707 0l1-1a.5.5 0 1 0-.707-.708l-.647.647-.646-.647a.5.5 0 0 0-.36-.152z" opacity=".35" fill-rule="evenodd"/></svg>