<svg xmlns="http://www.w3.org/2000/svg" width="16.003" height="16"><path d="M3.003 1a1 1 0 0 0-.97.758l-1 4a1 1 0 0 0-.03.242v.04c-.564.094-1 .56-1 1.153v4.614c0 .592.436 1.06 1 1.154v1.54a.5.5 0 0 0 .5.5h2a.5.5 0 0 0 .5-.5V13h8v1.5a.5.5 0 0 0 .5.5h2a.5.5 0 0 0 .5-.5v-1.54c.564-.094 1-.56 1-1.153V7.193c0-.592-.436-1.06-1-1.154V6a1 1 0 0 0-.03-.242l-1-4a1 1 0 0 0-.97-.758zm.78 2h8.438l.75 3H3.034zm-.28 5a1.5 1.5 0 1 1 0 3 1.5 1.5 0 1 1 0-3zm9 0a1.5 1.5 0 1 1 0 3 1.5 1.5 0 1 1 0-3z" fill="#333" fill-rule="evenodd"/></svg>