<?xml version="1.0" encoding="UTF-8" standalone="no"?>
<!-- Created with Inkscape (http://www.inkscape.org/) -->
<svg id="svg6530" xmlns:rdf="http://www.w3.org/1999/02/22-rdf-syntax-ns#" xmlns="http://www.w3.org/2000/svg" xmlns:osb="http://www.openswatchbook.org/uri/2009/osb" height="22" viewBox="0 0 22 22" width="22" version="1.1" xmlns:cc="http://creativecommons.org/ns#" xmlns:dc="http://purl.org/dc/elements/1.1/">
 <metadata id="metadata6535">
  <rdf:RDF>
   <cc:Work rdf:about="">
    <dc:format>image/svg+xml</dc:format>
    <dc:type rdf:resource="http://purl.org/dc/dcmitype/StillImage"/>
    <dc:title/>
   </cc:Work>
  </rdf:RDF>
 </metadata>
 <g id="layer1" transform="translate(-33 -861.36)">
  <rect id="rect5241-3" style="color:#bebebe;enable-background:new;fill:none" transform="matrix(0,1,1,0,0,0)" height="22" width="22" y="33" x="861.36"/>
  <path id="path5243-2" style="color:#000000;text-indent:0;block-progression:tb;text-decoration-line:none;text-transform:none;fill:#29292a" d="m37.004 867.36s-1 0-1 1v8s0 1 1 1h9.9961c1 0 1-1 1-1v-3.1992l4 3.1992v-8l-4 3.1992v-3.1992c0-1-1-1-1-1h-9.9961zm1.9961 4a1 1 0 0 1 1 1 1 1 0 0 1 -1 1 1 1 0 0 1 -1 -1 1 1 0 0 1 1 -1zm3 0a1 1 0 0 1 1 1 1 1 0 0 1 -1 1 1 1 0 0 1 -1 -1 1 1 0 0 1 1 -1zm3 0a1 1 0 0 1 1 1 1 1 0 0 1 -1 1 1 1 0 0 1 -1 -1 1 1 0 0 1 1 -1z"/>
 </g>
</svg>
