<svg xmlns="http://www.w3.org/2000/svg" xmlns:xlink="http://www.w3.org/1999/xlink" width="512" height="512"><path d="M76.513 40.003h358.974c11.364 0 20.513 9.111 20.513 20.469V421.51c0 11.359-9.149 18.493-20.513 18.493H200.444L156 496l-44.444-55.997H76.513C65.149 440.003 56 432.869 56 421.51V60.472c0-11.358 9.149-20.469 20.513-20.469z" opacity=".2"/><path d="M76.513 32h358.974C446.851 32 456 41.111 456 52.469v361.038c0 11.359-9.149 18.493-20.513 18.493H200.444L156 487.997 111.556 432H76.513C65.149 432 56 424.866 56 413.507V52.469C56 41.111 65.149 32 76.513 32z" fill="#e4e4e4"/><path d="M112.781 103.998c-4.754 0-8.781 4.027-8.781 8.781v30.438c0 4.754 4.027 8.781 8.781 8.781h30.438c4.754 0 8.781-4.027 8.781-8.781v-30.437c0-4.754-4.027-8.781-8.781-8.781zm111.219 0a24.002 24.002 0 1 0 0 48h160a24.002 24.002 0 1 0 0-48zm-111.219 224c-4.754 0-8.781 4.027-8.781 8.781v30.438c0 4.754 4.027 8.781 8.781 8.781h30.438c4.754 0 8.781-4.027 8.781-8.781v-30.437c0-4.754-4.027-8.781-8.781-8.781zm111.219 0a24.002 24.002 0 1 0 0 48h160a24.002 24.002 0 1 0 0-48z" opacity=".1"/><path d="M56 176h400v112H56z" fill="#15a6f0"/><path d="M112.781 215.998c-4.754 0-8.781 4.027-8.781 8.781v30.438c0 4.754 4.027 8.781 8.781 8.781h30.438c4.754 0 8.781-4.027 8.781-8.781v-30.437c0-4.754-4.027-8.781-8.781-8.781zm111.219 0a24.002 24.002 0 1 0 0 48h160a24.002 24.002 0 1 0 0-48z" opacity=".2"/><use xlink:href="#B" fill="#fff"/><use xlink:href="#B" y="-112" fill="#898989"/><g stroke-width="48" stroke-linecap="round"><path d="M224 231.998h160" fill="#fff" stroke="#fff"/><path d="M224 119.998h160" fill="none" stroke="#898989"/></g><use xlink:href="#B" y="112" fill="#898989"/><path d="M224 343.998h160" fill="none" stroke="#898989" stroke-width="48" stroke-linecap="round"/><path d="M76.5 32C65.136 32 56 41.111 56 52.469v8C56 49.111 65.136 40 76.5 40h359c11.364 0 20.5 9.111 20.5 20.469v-8C456 41.111 446.864 32 435.5 32z" opacity=".2" fill="#fff"/><defs ><path id="B" d="M112.766 208c-4.754 0-8.766 4.035-8.766 8.789v30.445c0 4.754 4.011 8.766 8.766 8.766h30.469c4.754 0 8.766-4.011 8.766-8.766v-30.445c0-4.754-4.011-8.789-8.766-8.789z"/></defs></svg>
