<svg xmlns="http://www.w3.org/2000/svg" xmlns:xlink="http://www.w3.org/1999/xlink" width="512" height="512" preserveAspectRatio="xMidYMid meet"><defs><path id="A" d="M490.72 139.23a7.42 7.42 0 0 1 7.42 7.42v60.83a7.42 7.42 0 0 1-7.42 7.42H361.65c-4.1 0-7.43-3.32-7.43-7.42v-60.83c0-4.1 3.33-7.42 7.43-7.42h129.07z"/><path id="B" d="M297.34 214.9c5.52 0 10 4.48 10 10v55.68c0 5.52-4.48 10-10 10H123.42c-5.52 0-10-4.48-10-10V224.9c0-5.52 4.48-10 10-10h173.92z"/><path id="C" d="M490.72 290.58a7.42 7.42 0 0 1 7.42 7.42v60.83c0 4.1-3.32 7.43-7.42 7.43H361.65c-4.1 0-7.43-3.33-7.43-7.43V298c0-4.1 3.33-7.42 7.43-7.42h129.07z"/></defs><path d="M208 40a112 112 0 0 0-108.281 83.953A104 104 0 0 0 128 328a104 104 0 0 0 14.516-1.141A112 112 0 0 0 326.5 343.063 84 84 0 0 0 448 268a84 84 0 0 0-.016-.5 84 84 0 0 0-37.969-155.203A68 68 0 0 0 301.5 90.438 112 112 0 0 0 208 40zm112 344a40 40 0 1 0 0 80 40 40 0 1 0 0-80zm-120 40a32 32 0 1 0 0 64 32 32 0 1 0 0-64z" opacity=".2"/><g fill="#e4e4e4"><circle cx="292.912" cy="168.912" r="58"/><circle cx="208" cy="144" r="112"/><circle cx="348" cy="132" r="68"/><circle cx="128" cy="216" r="104"/><circle cx="404" cy="188" r="84"/><circle cx="364" cy="260" r="84"/><circle cx="240" cy="264" r="112"/></g><use transform="matrix(.722624 0 0 .845778 24.032242 10.242377)" xlink:href="#A" opacity=".1"/><path d="M213.818 203.709l73.818-61.164" fill="none" stroke="#3f3f3f" stroke-width="21.091"/><use transform="matrix(.722624 0 0 .845778 24.032242 2.242377)" xlink:href="#A" fill="#68b723"/><path d="M213.818 228.28l73.818 61.164" fill="none" stroke="#3f3f3f" stroke-width="21.091"/><use transform="matrix(.783828 0 0 .845666 -.901817 10.266391)" xlink:href="#B" opacity=".1"/><use transform="matrix(.783828 0 0 .845666 -.901817 2.266391)" xlink:href="#B" fill="#c6262e"/><use transform="matrix(.722624 0 0 .845666 24.03224 10.266371)" xlink:href="#C" opacity=".1"/><use transform="matrix(.722624 0 0 .845666 24.03224 2.266371)" xlink:href="#C" fill="#3689e6"/><g fill="#e4e4e4"><circle cx="320" cy="416" r="40"/><circle cx="200" cy="448" r="32"/></g><path d="M208 32a112 112 0 0 0-108.281 83.953A104 104 0 0 0 24 216a104 104 0 0 0 .188 3.906 104 104 0 0 1 75.531-95.953A112 112 0 0 1 208 40a112 112 0 0 1 93.5 50.438 68 68 0 0 1 108.516 21.859 84 84 0 0 1 77.797 79.859A84 84 0 0 0 488 188a84 84 0 0 0-77.984-83.703A68 68 0 0 0 301.5 82.438 112 112 0 0 0 208 32zm112 344a40 40 0 0 0-39.781 44.125 40 40 0 0 1 79.563-.25A40 40 0 0 0 320 376zm-120 40a32 32 0 0 0-31.719 36.047 32 32 0 0 1 63.438-.094A32 32 0 0 0 200 416z" opacity=".2" fill="#fff"/></svg>
