<svg xmlns="http://www.w3.org/2000/svg" xmlns:xlink="http://www.w3.org/1999/xlink" width="512" height="512"><path d="M88 31.998a55.88 55.88 0 0 0-56 56v168 140V448h32v-48h24v48h32v-48h24V255.998v-168a55.88 55.88 0 0 0-56-56z" fill="#1a5fb4"/><use xlink:href="#B" fill="#3584e4"/><path d="M368 144h112v112H368z" fill="#99c1f1"/><path d="M368 256h112v112H368z" fill="#3584e4"/><use xlink:href="#B" x="-112" fill="#b4d6ff"/><path d="M256 144h112v112H256z" fill="#1c71d8"/><path d="M83.692 31.998v.219L88 31.998zm4.308 0a55.88 55.88 0 0 1 56 56c0 130.667 0-74.667 0 56h112c0-130.667 0 74.667 0-56a55.88 55.88 0 0 0-56-56c-1.456 0-2.881.111-4.308.219v-.219z" fill="#3584e4"/><path d="M144 144h112v112H144z" fill="#99c1f1"/><path d="M144 256h112v112H144z" fill="#3584e4"/><path d="M256 256h112v112H256z" fill="#b4d6ff"/><path d="M368 367.998v56.004 56h32v-56h24v56h32v-56h24v-56.004z" fill="#99c1f1"/><path d="M256 367.998v56.004 56h32v-56h24v56h32v-56h24v-56.004z" fill="#1c71d8"/><path d="M144 367.998v56.004 56h32v-56h24v56h32v-56h24v-56.004z" fill="#99c1f1"/><path d="M83.688 32v.219L88 32zM88 32c10.573 0 20.409 2.948 28.828 8h78.859H200h107.688H312h107.688v.219c1.427-.108 2.857-.219 4.313-.219a55.88 55.88 0 0 1 56 56v-8a55.88 55.88 0 0 0-56-56c-1.456 0-2.885.111-4.312.219V32H312h-4.312H200h-4.312zm56 112v8h112v-8zm224 0v8h112v-8zM256 256v8h112v-8zM144 368v8h112v-8zm224 0v8h112v-8z" opacity=".2" fill="#fff"/><path d="M256 144v8h112v-8zM144 256v8h112v-8zm224 0v8h112v-8zM256 368v8h112v-8zM64 400v8h24v-8zm56 0v8h24v-8zm56 24v8h24v-8zm56 0v8h24v-8zm56 0v8h24v-8zm56 0v8h24v-8zm56 0v8h24v-8zm56 0v8h24v-8zM32 448v8h32v-8zm56 0v8h32v-8zm56 32v8h32v-8zm56 0v8h32v-8zm56 0v8h32v-8zm56 0v8h32v-8zm56 0v8h32v-8zm56 0v8h32v-8z" opacity=".2"/><defs ><path id="B" d="M307.692 31.998v.219l4.308-.219zm4.308 0a55.88 55.88 0 0 1 56 56c0 130.667 0-74.667 0 56h112c0-130.667 0 74.667 0-56a55.88 55.88 0 0 0-56-56c-1.456 0-2.881.111-4.308.219v-.219z"/></defs></svg>
