<svg xmlns="http://www.w3.org/2000/svg" xmlns:xlink="http://www.w3.org/1999/xlink" width="512" height="512"><path d="M56.797 136C38.626 136 24 150.626 24 168.797v262.406C24 449.374 38.626 464 56.797 464h166.406C241.374 464 256 449.374 256 431.203 256 449.374 270.626 464 288.797 464h166.406C473.374 464 488 449.374 488 431.203V168.797C488 150.626 473.374 136 455.203 136H288.797C270.626 136 256 150.626 256 168.797 256 150.626 241.374 136 223.203 136z" opacity=".2"/><g fill="#20baba"><rect width="232" height="328" x="24" y="128" ry="32.8"/><rect width="232" height="328" x="256" y="128" ry="32.8"/></g><path d="M85.625 104C69.21 104 56 117.928 56 135.234v31.234 203.063 31.234C56 418.071 69.21 432 85.625 432H256h170.375C442.79 432 456 418.071 456 400.766v-31.234-203.062-31.234C456 117.928 442.79 104 426.375 104h-140.75C269.21 104 256 117.928 256 135.234 256 117.928 242.79 104 226.375 104z" opacity=".2"/><g fill="#e4e4e4"><path d="M226.37 96c16.415 0 29.63 13.932 29.63 31.238V424H85.63C69.215 424 56 410.068 56 392.762v-31.238-203.048-31.238C56 109.932 69.215 96 85.63 96z"/><use xlink:href="#B"/></g><use xlink:href="#B" opacity=".05"/><path d="M288 128h88v24h-88z" fill="#0cc"/><path d="M288 176h136v24H288zM90.32 212.96h132.568v22.096H90.32zM288 224h136v24H288zm0 48h136v24H288zm0 48h136v24H288zm0 48h88v24h-88zM88 272h136v24H88zm0 48h136v24H88zm0 48h136v24H88z" opacity=".2"/><path d="M85.625 96C69.21 96 56 109.928 56 127.234v8C56 117.928 69.21 104 85.625 104h140.75C242.79 104 256 117.928 256 135.234 256 117.928 269.21 104 285.625 104h140.75C442.79 104 456 117.928 456 135.234v-8C456 109.928 442.79 96 426.375 96h-140.75C269.21 96 256 109.928 256 127.234 256 109.928 242.79 96 226.375 96z" opacity=".2" fill="#fff"/><path d="M113.349 64.184S79.903 144.001 80 185.986c.073 31.244 4.477 66.5 25.239 90.538 15.951 18.469 67.564 31.115 67.564 31.115L189.624 368l15.699-4.042-16.821-60.36s38.111-35.759 42.32-59.419c5.477-30.799-9.048-63.45-25.235-90.542-21.753-36.404-92.238-89.453-92.238-89.453z" opacity=".1"/><path d="M113.349 56S79.903 135.818 80 177.802c.073 31.244 4.477 66.5 25.239 90.538 15.951 18.469 67.564 31.115 67.564 31.115l16.821 60.36 15.699-4.042-16.821-60.36s38.111-35.759 42.32-59.419c5.477-30.799-9.048-63.45-25.235-90.542C183.834 109.049 113.349 56 113.349 56z" fill="#0cc"/><path d="M189.372 360l15.699-4.046-29.445-105.629 28.73-47.831-9.954-5.522-22.98 38.267-8.41-30.182 22.98-38.267-9.954-5.522-17.235 28.702-6.31-22.637 17.239-28.698-9.954-5.526-11.49 19.137-14.984-52.639-15.699 4.042 14.984 52.639-19.905-11.049-5.745 9.569 29.859 16.567 6.31 22.637-29.859-16.571-5.745 9.569 39.809 22.094 8.41 30.178-39.809-22.094-5.745 9.569 49.764 27.612z" opacity=".2"/><defs ><path id="B" d="M285.63 96C269.215 96 256 109.932 256 127.238V424h170.37c16.415 0 29.63-13.932 29.63-31.238v-31.238-203.048-31.238C456 109.932 442.785 96 426.37 96z"/></defs></svg>
