<svg xmlns="http://www.w3.org/2000/svg" width="512" height="512"><rect width="448" height="448" x="32" y="40" rx="22.4" opacity=".2"/><rect width="448" height="448" x="32" y="32" rx="22.4" fill="#4f4f4f"/><g transform="matrix(0 -1 -1 0 0 0)"><rect width="320" height="320" x="-424" y="-416" rx="16" opacity=".2"/><rect width="320" height="320" x="-416" y="-416" rx="16" fill="#6c6c6c"/></g><path d="M256 160v96m-72 72l72-72m72 72l-72-72" fill="none" stroke="#3f3f3f" stroke-width="48" stroke-linecap="round"/><circle cx="256" cy="264" r="40" opacity=".2"/><g fill="#fff"><circle cx="256" cy="256" r="40"/><path d="M54.406 32C41.997 32 32 41.997 32 54.406v8C32 49.997 41.997 40 54.406 40h403.188C470.003 40 480 49.997 480 62.406v-8C480 41.997 470.003 32 457.594 32zM112 96c-8.864 0-16 7.136-16 16v8c0-8.864 7.136-16 16-16h288c8.864 0 16 7.136 16 16v-8c0-8.864-7.136-16-16-16z" opacity=".1"/></g></svg>
