<svg xmlns="http://www.w3.org/2000/svg" xmlns:xlink="http://www.w3.org/1999/xlink" width="512" height="512"><rect width="360" height="448" x="80" y="40" rx="33.6" opacity=".2"/><rect width="360" height="448" x="80" y="32" rx="33.6" fill="#e4e4e4"/><path d="M112 336v48h264v-24h32v-24z" opacity=".2"/><path d="M272 168h135.896v136H272z" fill="#ff4d39"/><use xlink:href="#B" opacity=".2"/><use xlink:href="#B" y="-8" fill="#fff"/><path d="M112 72v24h168V72z" opacity=".4"/><path d="M248 144v56H112v-80h296v24zm-136 80h136v64h-48v24h-88z" opacity=".2"/><path d="M113.594 32A33.52 33.52 0 0 0 80 65.594v8A33.52 33.52 0 0 1 113.594 40h292.813A33.52 33.52 0 0 1 440 73.594v-8A33.52 33.52 0 0 0 406.406 32z" opacity=".2" fill="#fff"/><defs ><path id="B" d="M279.258 285.2c25.345-7.311 50.344-20.795 69.805-38.77 7.879-7.456 13.761-21.343 9.876-32.221-4.002-11.168-18.733-15.683-29.652-13.439-16.076 2.778-30.811 17.449-33.146 34.18-2.32 14.804 7.774 30.131 20.511 36.866 17.017 9.046 37.401 9.794 55.993 6.065 12.64-2.667 24.767-7.835 35.356-15.248l-.102-22.049c-18.236 20.048-45.838 31.921-73.014 29.637-13.425-1.125-27.848-10.163-31.656-23.807-3.654-12.651 5.233-28.465 16.507-34.293 8.094-4.401 18.923-7.164 26.987-1.243 7.566 5.728 6.599 19.468 1.481 26.51-8.344 11.418-21.105 20.539-32.458 28.674-11.456 7.62-23.705 14.049-36.487 19.139z"/></defs></svg>
