<svg xmlns="http://www.w3.org/2000/svg" width="512" height="512"><path d="M86 488c-12.188 0-22-9.992-22-22.4V62.4C64 49.99 73.812 40 86 40h308c12.192 0 22 9.99 22 22.4V360L288 488z" opacity=".2"/><path d="M86 480c-12.188 0-22-9.992-22-22.4V54.4C64 41.99 73.812 32 86 32h308c12.192 0 22 9.99 22 22.4V352L288 480z" fill="#e4e4e4"/><path d="M86 32c-12.188 0-22 9.997-22 22.406v8C64 49.997 73.812 40 86 40h308c12.192 0 22 9.997 22 22.406v-8C416 41.997 406.192 32 394 32z" opacity=".2" fill="#fff"/><path d="M446.28 40.081c-7.816.71-13.496 6.39-13.496 6.39L200 279.248V352h72.752l232.776-232.784s14.544-14.552 0-29.104l-43.64-43.641c-5.456-5.456-10.92-6.817-15.608-6.39z" opacity=".1"/><path d="M288 480V373.336A21.34 21.34 0 0 1 309.336 352H416z" fill="#fafafa"/><path d="M200 344v-72.744L272.744 344z" fill="#f3d491"/><path d="M200 344v-29.096L229.096 344z" fill="#545454"/><path d="M432.784 38.466L200 271.256 272.744 344l232.792-232.784s14.544-14.552 0-29.104l-43.648-43.646c-14.552-14.55-29.104 0-29.104 0z" fill="#ffbb29"/></svg>
