<svg xmlns="http://www.w3.org/2000/svg" xmlns:xlink="http://www.w3.org/1999/xlink" width="512" height="512"><g fill-rule="evenodd"><path d="M433.582 56.098c-3.595-.572-6.825 1.459-8.766 3.772s-3.289 5.181-4.462 8.794c-2.029 6.252-9.48 29.458-36.35 52.394S310.799 181.931 230.492 184c-48.832.572-78.511-28.369-97.983-66.952C127.65 107.419 120 89.475 120 100.892v17.653l-.248 91.365.496 1.203s4.375 9.731-.248 22.841-26.281 32.244-67.02 44.488L48 279.925l.946 5.252c2.26 12.722 11.267 25.762 24.564 39.111s31.1 26.853 51.832 39.063c41.462 24.419 94.568 43.716 146.165 44.618s102.08-17.164 135.483-67.205 49.694-145.541 36.35-269.925h-.023c-.424-3.415-1.176-6.331-2.523-8.886s-3.616-5.192-7.211-5.762z" opacity=".2"/><path d="M433.582 48.098c-3.595-.572-6.825 1.459-8.766 3.772s-3.289 5.181-4.462 8.794c-2.029 6.252-9.48 29.458-36.35 52.394S310.799 173.931 230.492 176c-48.832.572-78.511-28.369-97.983-66.952C127.65 99.419 120 81.475 120 92.892v17.653l-.248 91.365.496 1.203s4.375 9.731-.248 22.841-26.281 32.244-67.02 44.488L48 271.925l.946 5.252c2.26 12.722 11.267 25.762 24.564 39.111s31.1 26.853 51.832 39.063c41.462 24.419 94.568 43.716 146.165 44.618s102.08-17.164 135.483-67.205 49.694-145.541 36.35-269.925h-.023c-.424-3.415-1.176-6.331-2.523-8.886s-3.616-5.192-7.211-5.762z" fill="#645b44"/><path d="M433.578 48.094c-3.595-.572-6.824 1.468-8.766 3.781s-3.28 5.168-4.453 8.781c-2.029 6.252-9.49 29.47-36.359 52.406S310.807 173.931 230.5 176c-48.832.572-78.512-28.37-97.984-66.953C127.656 99.418 120 81.473 120 92.891v8c0-11.418 7.656 6.527 12.516 16.156C151.988 155.63 181.668 184.572 230.5 184c80.307-2.069 126.631-40 153.5-62.937s34.33-46.154 36.359-52.406c1.173-3.613 2.512-6.467 4.453-8.781s5.171-4.353 8.766-3.781v.094c3.595.57 5.871 3.211 7.219 5.766s2.092 5.476 2.516 8.891h.031c3.109 28.981 4.544 56.317 4.594 81.953.277-27.898-1.16-57.948-4.594-89.953h-.031c-.424-3.415-1.168-6.335-2.516-8.891s-3.624-5.196-7.219-5.766zM120 110.547l-.25 91.359.016.047.234-83.406zm1.859 107.125c-.279 2.55-.812 5.311-1.859 8.281-4.623 13.111-26.277 32.24-67.016 44.484L48 271.922l.953 5.25c.135.761.364 1.534.547 2.297l3.484-1.031c40.738-12.244 62.393-31.373 67.016-44.484 2.303-6.532 2.369-12.213 1.859-16.281z" opacity=".1" fill="#fff"/><path d="M167.99 176c-13.854 0-27.777 4.58-38.377 14.002S112 213.784 112 232.01s7.012 32.565 17.612 41.988S154.136 288 167.99 288s27.777-4.58 38.377-14.002S224 250.236 224 232.01s-7.033-32.585-17.633-42.008S181.843 176 167.99 176z" opacity=".2"/><path d="M263.99 176c-13.854 0-27.777 4.58-38.377 14.002S208 213.784 208 232.01s7.012 32.565 17.612 41.988S250.136 288 263.99 288s27.777-4.58 38.378-14.002S320 250.236 320 232.01s-7.033-32.585-17.633-42.008S277.843 176 263.99 176z" opacity=".2"/><path d="M167.99 168c-13.854 0-27.777 4.58-38.377 14.002S112 205.784 112 224.01s7.012 32.565 17.612 41.988S154.136 280 167.99 280s27.777-4.58 38.377-14.002S224 242.236 224 224.01s-7.033-32.585-17.633-42.008S181.843 168 167.99 168z" fill="#fff"/><path d="M176 208c-5.881 0-11.826 1.944-16.406 6.015S152 224.357 152 232s3.014 13.913 7.594 17.985S170.119 256 176 256s11.826-1.944 16.406-6.015S200 239.643 200 232s-3.014-13.913-7.594-17.985S181.881 208 176 208z" fill="#3f3f3f"/><path d="M160 331.117c21.945 0 41.951 1.12 60.097 0 30.145-1.895 56.643-5.233 70.04-15.725-5.667-7.423-7.247-15.566-7.247-15.566s17.046 7.087 25.9 18.679c8.829 11.56-3.108 18.682-5.418 33.472-5.144-12.99-8.359-17.862-9.659-23.024-9.349 13.109-25.452 22.51-47.111 23.024-23.054.542-52.403-8.592-86.602-20.84z" opacity=".3"/><use xlink:href="#B" opacity=".1"/><use xlink:href="#B" y="-8" fill="#3f3f3f"/><path d="M263.99 168c-13.854 0-27.777 4.58-38.377 14.002S208 205.784 208 224.01s7.012 32.565 17.612 41.988S250.136 280 263.99 280s27.777-4.58 38.378-14.002S320 242.236 320 224.01s-7.033-32.585-17.633-42.008S277.843 168 263.99 168z" fill="#fff"/><path d="M272 208c-5.881 0-11.826 1.944-16.406 6.015S248 224.357 248 232s3.014 13.913 7.594 17.985S266.119 256 272 256s11.826-1.944 16.406-6.015S296 239.643 296 232s-3.014-13.913-7.594-17.985S277.881 208 272 208z" fill="#3f3f3f"/></g><path d="M297.891 330.875l-10.578 5.813s44.182 39.122 83.891 58.406c-.492 2.882-.683 5.799-.422 9.281l7.313-1.25 46.688 13.844c-2.962 11.981 3.129 26.927 19.328 32.859C470.998 459.676 496 472 496 472c-12.826-41.673-17.372-74.757-50.891-71.812-.952.084-1.798.302-2.688.469l-50.766-26.016v-6.984l-5.047 3.313c-.922.505-1.786 1.13-2.641 1.766-36.749-22.195-86.078-41.859-86.078-41.859z" opacity=".2"/><path d="M391.316 395.135l9.667-19.251c-35.962-26.31-103.098-53.007-103.098-53.007l-10.578 5.815s60.955 54.063 104.009 66.443z" fill="#ff9a0c"/><path d="M391.652 359.653l-5.041 3.315c-4.669 2.556-8.457 6.899-11.529 11.923-3.516 8.258-4.904 13.422-4.3 21.491l7.304-1.251 56.193 16.696 2.112-4.068 7.435-14.39-52.174-26.728z" fill="#8a8a8a"/><path d="M496 464c-12.826-41.673-17.375-74.762-50.894-71.818-27.012 2.373-28.903 39.418-.99 49.641C471.004 451.671 496 464 496 464z" fill="#3f3f3f"/><path d="M63.719 192c-2.84 0-5.621.174-8.328.594-7.219 1.111-13.91 3.76-19.672 7.797-13.189 9.24-20.766 25.205-19.547 44.328 1.067-15.544 8.245-28.41 19.547-36.328 5.762-4.037 12.453-6.686 19.672-7.797 2.707-.419 5.488-.594 8.328-.594 19.879.169 42.536 11.365 61.219 36.516 12.175 16.39 17.98 32.456 18.891 46.75 1.111-16.154-4.385-35.223-18.891-54.75-18.683-25.151-41.34-36.347-61.219-36.516z" opacity=".1" fill="#fff" fill-rule="evenodd"/><defs ><path id="B" d="M63.722 200c-2.84 0-5.625.17-8.332.589-7.219 1.111-13.902 3.772-19.665 7.809-23.049 16.149-29.119 52.748-.65 91.072s66.136 44.274 89.185 28.125 29.142-52.748.672-91.072c-18.683-25.151-41.333-36.352-61.211-36.521z"/></defs></svg>
