<?xml version="1.0" encoding="UTF-8" standalone="no"?>
<svg
   xmlns:dc="http://purl.org/dc/elements/1.1/"
   xmlns:cc="http://creativecommons.org/ns#"
   xmlns:rdf="http://www.w3.org/1999/02/22-rdf-syntax-ns#"
   xmlns:svg="http://www.w3.org/2000/svg"
   xmlns="http://www.w3.org/2000/svg"
   xmlns:sodipodi="http://sodipodi.sourceforge.net/DTD/sodipodi-0.dtd"
   xmlns:inkscape="http://www.inkscape.org/namespaces/inkscape"
   width="512"
   height="512"
   version="1.1"
   id="svg36"
   sodipodi:docname="gimp.svg"
   inkscape:version="0.92.5 (2060ec1f9f, 2020-04-08)">
  <metadata
     id="metadata42">
    <rdf:RDF>
      <cc:Work
         rdf:about="">
        <dc:format>image/svg+xml</dc:format>
        <dc:type
           rdf:resource="http://purl.org/dc/dcmitype/StillImage" />
        <dc:title></dc:title>
      </cc:Work>
    </rdf:RDF>
  </metadata>
  <defs
     id="defs40" />
  <sodipodi:namedview
     pagecolor="#ffffff"
     bordercolor="#666666"
     borderopacity="1"
     objecttolerance="10"
     gridtolerance="10"
     guidetolerance="10"
     inkscape:pageopacity="0"
     inkscape:pageshadow="2"
     inkscape:window-width="1684"
     inkscape:window-height="1374"
     id="namedview38"
     showgrid="false"
     inkscape:zoom="0.921875"
     inkscape:cx="206.37288"
     inkscape:cy="129.62712"
     inkscape:window-x="72"
     inkscape:window-y="27"
     inkscape:window-maximized="0"
     inkscape:current-layer="svg36" />
  <path
     style="opacity:0.2;fill-rule:evenodd;stroke-width:8"
     d="m 433.58169,56.09765 c -3.59497,-0.57219 -6.82469,1.45911 -8.76631,3.77193 -1.94159,2.31397 -3.28878,5.18068 -4.462,8.79354 -2.02898,6.25183 -9.48037,29.4579 -36.34968,52.39386 -26.86932,22.93714 -73.20447,60.87396 -153.51147,62.94302 -48.832,0.57216 -78.51057,-28.36897 -97.98264,-66.95226 -4.85955,-9.62896 -12.50947,-27.57308 -12.50947,-16.15544 v 17.65345 l -0.248,91.36512 0.49576,1.20276 c 0,0 4.37466,9.7308 -0.24792,22.84101 -4.62258,13.11133 -26.281256,32.24433 -67.019614,44.48821 L 48,279.92485 l 0.946485,5.25163 c 2.25964,12.72225 11.266699,25.7615 24.563638,39.11086 13.296941,13.34824 31.100357,26.85326 51.831527,39.06282 41.46235,24.41912 94.56789,43.71591 146.16493,44.6177 51.59702,0.90412 102.08,-17.16365 135.48311,-67.20464 33.40312,-50.03986 49.69365,-145.54136 36.34967,-269.92461 h -0.0232 c -0.42359,-3.41487 -1.17577,-6.33079 -2.52313,-8.88623 -1.34737,-2.55429 -3.61637,-5.19212 -7.21134,-5.76203 z"
     id="path2"
     inkscape:connector-curvature="0" />
  <path
     style="fill:#645b44;fill-rule:evenodd;stroke-width:8"
     d="m 433.58169,48.09765 c -3.59497,-0.57219 -6.82469,1.45911 -8.76631,3.77193 -1.94159,2.31396 -3.28878,5.18068 -4.462,8.79353 -2.02898,6.25184 -9.48037,29.45791 -36.34968,52.39387 -26.86932,22.93714 -73.20447,60.87396 -153.51147,62.94302 -48.832,0.57216 -78.51057,-28.36897 -97.98264,-66.95226 -4.85955,-9.62896 -12.50947,-27.57308 -12.50947,-16.15544 v 17.65345 l -0.248,91.36512 0.49576,1.20276 c 0,0 4.37466,9.7308 -0.24792,22.84101 -4.62258,13.11133 -26.281256,32.24433 -67.019614,44.48821 L 48,271.92485 l 0.946485,5.25163 c 2.25964,12.72225 11.266699,25.7615 24.563638,39.11086 13.296941,13.34824 31.100357,26.85326 51.831527,39.06282 41.46235,24.41912 94.56789,43.71591 146.16493,44.6177 51.59702,0.90412 102.08,-17.16365 135.48311,-67.20464 33.40312,-50.03986 49.69365,-145.54136 36.34967,-269.92461 h -0.0232 c -0.42359,-3.41488 -1.17577,-6.33079 -2.52313,-8.88623 -1.34737,-2.55429 -3.61637,-5.19213 -7.21134,-5.76203 z"
     id="path4"
     inkscape:connector-curvature="0" />
  <path
     style="opacity:0.1;fill:#ffffff;fill-rule:evenodd;stroke-width:8"
     d="m 433.57813,48.09375 c -3.59497,-0.57219 -6.82401,1.46843 -8.76563,3.78125 -1.9416,2.31397 -3.27991,5.16839 -4.45312,8.78125 C 418.33039,66.90809 410.86931,90.12654 384,113.0625 357.13068,135.99964 310.807,173.93094 230.5,176 181.668,176.57216 151.9877,147.63017 132.51562,109.04687 127.65607,99.41791 120,81.47299 120,92.89062 v 8 c 0,-11.41763 7.65607,6.52729 12.51562,16.15625 C 151.9877,155.63017 181.668,184.57216 230.5,184 c 80.307,-2.06906 126.63068,-40.00036 153.5,-62.9375 26.86931,-22.93596 34.33039,-46.15442 36.35938,-52.40625 1.17321,-3.61286 2.51152,-6.46728 4.45312,-8.78125 1.94162,-2.31282 5.17066,-4.35344 8.76563,-3.78125 v 0.0937 c 3.59497,0.56991 5.87137,3.21133 7.21874,5.76562 1.34736,2.55544 2.09203,5.47575 2.51563,8.89063 h 0.0312 c 3.10917,28.9815 4.54388,56.31732 4.59375,81.95312 0.27728,-27.89839 -1.16018,-57.94776 -4.59375,-89.95312 h -0.0312 c -0.4236,-3.41488 -1.16827,-6.33519 -2.51563,-8.89063 -1.34737,-2.55429 -3.62377,-5.19571 -7.21874,-5.76562 z M 120,110.54687 l -0.25,91.35938 0.0156,0.0469 L 120,118.54687 Z m 1.85938,107.125 c -0.2791,2.5498 -0.81192,5.31052 -1.85938,8.28126 -4.62258,13.11133 -26.277264,32.24049 -67.015625,44.48437 L 48,271.92187 l 0.953125,5.25 c 0.135157,0.76096 0.363965,1.53366 0.546875,2.29688 l 3.484375,-1.03125 C 93.722736,266.19362 115.37742,247.06446 120,233.95313 c 2.30324,-6.53227 2.36938,-12.21259 1.85938,-16.28126 z"
     id="path6"
     inkscape:connector-curvature="0" />
  <path
     style="opacity:0.2;fill-rule:evenodd;stroke-width:8"
     d="m 167.98962,176 c -13.85381,0 -27.77724,4.57968 -38.37746,14.00225 C 119.01193,199.42479 112,213.78431 112,232.01009 c 0,18.22575 7.01193,32.56511 17.61216,41.98767 C 140.21238,283.42033 154.13581,288 167.98962,288 c 13.85384,0 27.77727,-4.57967 38.37749,-14.00224 C 216.96735,264.5752 224,250.23584 224,232.01009 224,213.78431 216.96735,199.42479 206.36711,190.00225 195.76689,180.57968 181.84346,176 167.98962,176 Z"
     id="path8"
     inkscape:connector-curvature="0" />
  <path
     style="opacity:0.2;fill-rule:evenodd;stroke-width:8"
     d="m 263.98962,175.99999 c -13.85381,0 -27.77725,4.57968 -38.37747,14.00225 C 215.01192,199.42478 208,213.78431 208,232.01008 c 0,18.22576 7.01192,32.56512 17.61215,41.98768 C 236.21237,283.42033 250.13581,288 263.98962,288 c 13.85384,0 27.77727,-4.57967 38.3775,-14.00224 C 312.96734,264.5752 320,250.23584 320,232.01008 c 0,-18.22577 -7.03266,-32.5853 -17.63288,-42.00784 -10.60023,-9.42257 -24.52366,-14.00225 -38.3775,-14.00225 z"
     id="path10"
     inkscape:connector-curvature="0" />
  <path
     style="fill:#ffffff;fill-rule:evenodd;stroke-width:8"
     d="m 167.98962,168 c -13.85381,0 -27.77724,4.57968 -38.37746,14.00225 C 119.01193,191.42479 112,205.78431 112,224.01009 c 0,18.22575 7.01193,32.56511 17.61216,41.98767 C 140.21238,275.42033 154.13581,280 167.98962,280 c 13.85384,0 27.77727,-4.57967 38.37749,-14.00224 C 216.96735,256.5752 224,242.23584 224,224.01009 224,205.78431 216.96735,191.42479 206.36711,182.00225 195.76689,172.57968 181.84346,168 167.98962,168 Z"
     id="path12"
     inkscape:connector-curvature="0" />
  <path
     style="fill:#3f3f3f;fill-rule:evenodd;stroke-width:8"
     d="m 175.99999,208.00001 c -5.88087,0 -11.82612,1.944 -16.40625,6.01535 C 155.01363,218.08673 152,224.35745 152,232 c 0,7.64257 3.01363,13.91329 7.59374,17.98466 4.58013,4.07134 10.52538,6.01534 16.40625,6.01534 5.88088,0 11.82613,-1.944 16.40625,-6.01534 C 196.98637,245.91329 200,239.64257 200,232 c 0,-7.64255 -3.01363,-13.91327 -7.59376,-17.98464 -4.58012,-4.07135 -10.52537,-6.01535 -16.40625,-6.01535 z"
     id="path14"
     inkscape:connector-curvature="0" />
  <path
     style="opacity:0.3;fill-rule:evenodd;stroke-width:8"
     d="m 160,331.11666 c 21.94462,0 41.95093,1.12021 60.09742,0 30.14517,-1.89516 56.64306,-5.23282 70.03975,-15.72456 -5.66668,-7.42316 -7.2472,-15.56602 -7.2472,-15.56602 0,0 17.04561,7.08733 25.90007,18.67944 8.8291,11.55978 -3.10775,18.68152 -5.4184,33.47154 -5.14398,-12.98977 -8.35934,-17.86171 -9.65922,-23.02362 -9.34901,13.10867 -25.45209,22.51045 -47.11085,23.02362 -23.05426,0.54232 -52.40319,-8.5924 -86.60156,-20.83953 z"
     id="path16"
     inkscape:connector-curvature="0" />
  <path
     style="opacity:0.1;fill-rule:evenodd;stroke-width:8"
     d="m 63.722334,199.99998 c -2.839832,0 -5.624709,0.17 -8.331743,0.58928 -7.218752,1.11068 -13.902433,3.77174 -19.664701,7.80868 -23.049067,16.14888 -29.1192651,52.74764 -0.649528,91.07247 28.469755,38.32596 66.136408,44.2737 89.185468,28.12483 23.04907,-16.14889 29.14168,-52.74766 0.67192,-91.07249 C 106.2505,211.3718 83.601168,200.17106 63.722358,200.0022 Z"
     id="path18"
     inkscape:connector-curvature="0" />
  <path
     style="fill:#3f3f3f;fill-rule:evenodd;stroke-width:8"
     d="m 63.722334,191.99998 c -2.839832,0 -5.624709,0.17 -8.331743,0.58928 -7.218752,1.11068 -13.902433,3.77174 -19.664701,7.80868 -23.049067,16.14888 -29.1192651,52.74764 -0.649528,91.07247 28.469755,38.32596 66.136408,44.2737 89.185468,28.12483 23.04907,-16.14889 29.14168,-52.74766 0.67192,-91.07249 C 106.2505,203.3718 83.601168,192.17106 63.722358,192.0022 Z"
     id="path20"
     inkscape:connector-curvature="0" />
  <path
     style="fill:#ffffff;fill-rule:evenodd;stroke-width:8"
     d="m 263.98962,167.99999 c -13.85381,0 -27.77725,4.57968 -38.37747,14.00225 C 215.01192,191.42478 208,205.78431 208,224.01008 c 0,18.22576 7.01192,32.56512 17.61215,41.98768 C 236.21237,275.42033 250.13581,280 263.98962,280 c 13.85384,0 27.77727,-4.57967 38.3775,-14.00224 C 312.96734,256.5752 320,242.23584 320,224.01008 c 0,-18.22577 -7.03266,-32.5853 -17.63288,-42.00784 -10.60023,-9.42257 -24.52366,-14.00225 -38.3775,-14.00225 z"
     id="path22"
     inkscape:connector-curvature="0" />
  <path
     style="fill:#3f3f3f;fill-rule:evenodd;stroke-width:8"
     d="m 272,208.00001 c -5.88087,0 -11.82612,1.944 -16.40625,6.01536 C 251.01363,218.08673 248,224.35745 248,232 c 0,7.64257 3.01363,13.91329 7.59375,17.98465 C 260.17388,254.056 266.11913,256 272,256 c 5.88087,0 11.82612,-1.944 16.40625,-6.01535 C 292.98637,245.91329 296,239.64257 296,232 c 0,-7.64255 -3.01363,-13.91327 -7.59375,-17.98463 -4.58013,-4.07136 -10.52538,-6.01536 -16.40625,-6.01536 z"
     id="path24"
     inkscape:connector-curvature="0" />
  <path
     style="opacity:0.2;stroke-width:8"
     d="m 297.89062,330.875 -10.57812,5.8125 c 0,0 44.18215,39.12221 83.89063,58.40625 -0.49224,2.88224 -0.68264,5.79934 -0.42184,9.28125 l 7.3125,-1.25 c 0,0 27.29942,7.91107 46.6875,13.84375 -2.96192,11.98073 3.12893,26.92662 19.32813,32.85938 C 470.99793,459.67572 496,472 496,472 c -12.82614,-41.67342 -17.37171,-74.75688 -50.89062,-71.8125 -0.95216,0.0836 -1.79799,0.3016 -2.68751,0.46872 L 391.65625,374.6406 v -6.98438 l -5.04687,3.31251 c -0.92196,0.50464 -1.78611,1.13007 -2.64063,1.76562 -36.74865,-22.19494 -86.07813,-41.85937 -86.07813,-41.85937 z"
     id="path26"
     inkscape:connector-curvature="0" />
  <path
     style="fill:#ff9a0c;stroke-width:8"
     d="m 391.3159,395.135 9.66672,-19.25087 C 365.02092,349.57454 297.88505,322.87707 297.88505,322.87707 l -10.57835,5.81516 c 0,0 60.95486,54.06297 104.0092,66.44277 z"
     id="path28"
     inkscape:connector-curvature="0" />
  <path
     style="fill:#8a8a8a;stroke-width:8"
     d="m 391.65218,359.65253 -5.04077,3.315 c -4.66887,2.55557 -8.45674,6.89918 -11.52913,11.92269 -3.51565,8.25823 -4.90395,13.42245 -4.29966,21.49096 l 7.30435,-1.25074 c 0,0 38.13832,10.94126 56.19257,16.69565 l 2.11188,-4.06841 7.43468,-14.3901 -52.17392,-26.72804 z"
     id="path30"
     inkscape:connector-curvature="0" />
  <path
     style="fill:#3f3f3f;stroke-width:8"
     d="m 496,464 c -12.82614,-41.67342 -17.3753,-74.76202 -50.89422,-71.81764 -27.0116,2.37278 -28.90266,39.4183 -0.99021,49.64089 C 471.00412,451.67084 495.99997,464 495.99997,464 Z"
     id="path32"
     inkscape:connector-curvature="0" />
  <path
     style="opacity:0.1;fill:#ffffff;fill-rule:evenodd;stroke-width:8"
     d="m 63.71875,192 c -2.839831,0 -5.621092,0.17447 -8.328125,0.59375 -7.218752,1.11067 -13.909608,3.75994 -19.671875,7.79687 -13.188619,9.24036 -20.766305,25.20456 -19.546875,44.32813 1.067103,-15.54442 8.245136,-28.40978 19.546875,-36.32813 5.762267,-4.03693 12.453123,-6.6862 19.671875,-7.79687 C 58.097658,200.17447 60.878919,200 63.71875,200 c 19.87881,0.16886 42.5355,11.36467 61.21875,36.51562 12.17509,16.38962 17.9804,32.45613 18.89063,46.75 1.11085,-16.1544 -4.38461,-35.22259 -18.89063,-54.75 C 106.25425,203.36467 83.59756,192.16886 63.71875,192 Z"
     id="path34"
     inkscape:connector-curvature="0" />
</svg>
