<svg xmlns="http://www.w3.org/2000/svg" xmlns:xlink="http://www.w3.org/1999/xlink" width="512" height="512"><use xlink:href="#B" opacity=".2"/><path d="M456.934 358.131A129.399 165.63 14.613 0 1 289.398 484.49a129.399 165.63 14.613 0 1-82.333-193.752 129.399 165.63 14.613 0 1 167.547-126.359 129.399 165.63 14.613 0 1 82.322 193.752zM284.577 120l-258.977.737 118.698 208.554v134.733H104V488h104v-23.976h-40V330.239z" opacity=".2"/><path d="M284.577 112l-258.977.737 118.698 208.554v134.733H104V480h104v-23.976h-40V322.239z" fill="#e4e4e4"/><path d="M65.344 136.344c5.831 11.786 53.231 94.65 64.422 112.45 6.488 10.32 13.691 18.723 18.391 21.463 4.132 2.409 8.866 2.599 12.969.484 4.481-2.309 13.336-12.515 19.766-22.774 10.537-16.81 58.314-100.279 63.984-111.623z" fill="#b31f13"/><use xlink:href="#B" y="-8" fill="#76ae17"/><path d="M456.934 350.131A129.399 165.63 14.613 0 1 289.398 476.49a129.399 165.63 14.613 0 1-82.333-193.752 129.399 165.63 14.613 0 1 167.547-126.359 129.399 165.63 14.613 0 1 82.322 193.752z" fill="#9b7528"/><path d="M382.357 157.944c-2.386 3.634-2.788 8.39-.48 12.431l11.743 20.555c3.253 5.694 10.415 7.626 16.061 4.332l15.228-8.885c-12.205-13.086-26.66-22.744-42.552-28.432zm-26.942-5.705c-15.731-1.07-31.843 1.469-47.55 7.492l5.449 9.539c3.253 5.694 10.415 7.626 16.061 4.332l20.38-11.891c3.528-2.058 5.393-5.674 5.66-9.473zm9.132 18.559a11.62 11.62 0 0 0-8.925 1.195l-20.38 11.891c-5.646 3.294-7.572 10.528-4.319 16.223l11.737 20.577c3.253 5.694 10.415 7.626 16.061 4.332l20.386-11.913c5.646-3.294 7.572-10.528 4.319-16.223l-11.739-20.565c-1.631-2.838-4.231-4.732-7.138-5.516zm68.114 24.759l-17.114 9.986c-5.646 3.294-7.572 10.528-4.319 16.223l11.737 20.577c3.253 5.694 10.415 7.626 16.061 4.332l15.65-9.132c-5.289-15.688-12.726-29.871-22.019-41.991zm-135.698-31.14c-13.715 6.766-26.727 16.129-38.533 27.726l3.925 6.871c3.253 5.694 10.415 7.626 16.061 4.332l20.386-11.913c5.646-3.294 7.572-10.528 4.319-16.223l-6.163-10.788zm16.64 36.093a11.62 11.62 0 0 0-8.925 1.195l-20.386 11.913c-5.646 3.294-7.572 10.528-4.319 16.223l11.743 20.555c3.253 5.694 10.415 7.626 16.061 4.332l20.38-11.891c5.646-3.294 7.572-10.528 4.319-16.223l-11.737-20.577c-1.626-2.847-4.232-4.744-7.136-5.527zm80.304 21.659a11.62 11.62 0 0 0-8.925 1.195l-20.386 11.913c-5.646 3.294-7.572 10.528-4.319 16.223l11.743 20.555c3.253 5.694 10.415 7.626 16.061 4.332l20.38-11.891c5.646-3.294 7.572-10.528 4.319-16.223l-11.737-20.577c-1.626-2.847-4.232-4.744-7.136-5.527zm64.224 27.049l-13.23 7.719c-5.646 3.294-7.572 10.528-4.319 16.223l11.764 20.561c2.419 4.234 6.988 6.367 11.499 5.839.318-17.386-1.611-34.381-5.715-50.343zm-208.179-48.151c-8.521 9.643-16.174 20.421-22.784 32.089.091-.05.196-.038.286-.091l20.402-11.886c5.646-3.294 7.572-10.528 4.319-16.223l-2.22-3.87zm12.705 29.173c-2.903-.783-6.108-.43-8.931 1.218l-20.402 11.886c-5.646 3.294-7.572 10.528-4.319 16.223l11.764 20.561c3.253 5.694 10.415 7.626 16.061 4.332l20.38-11.891c5.646-3.294 7.572-10.528 4.319-16.223l-11.745-20.542c-1.628-2.849-4.233-4.769-7.129-5.55zm80.304 21.659c-2.903-.783-6.108-.43-8.931 1.218l-20.38 11.891c-5.646 3.294-7.572 10.528-4.319 16.223l11.743 20.555c3.253 5.694 10.415 7.626 16.061 4.332l20.38-11.891c5.646-3.294 7.572-10.528 4.319-16.223l-11.745-20.542c-1.628-2.849-4.222-4.766-7.129-5.55zm80.304 21.659c-2.903-.783-6.108-.43-8.931 1.218l-20.38 11.891c-5.646 3.294-7.572 10.528-4.319 16.223l11.743 20.555c3.253 5.694 10.415 7.626 16.061 4.332l20.402-11.886c5.646-3.294 7.572-10.528 4.319-16.223l-11.768-20.549c-1.626-2.847-4.226-4.766-7.13-5.549zm-131.248 8.071c-2.903-.783-6.108-.43-8.931 1.218l-20.38 11.891c-5.646 3.294-7.572 10.528-4.319 16.223l11.743 20.555c3.253 5.694 10.415 7.626 16.061 4.332l20.38-11.891c5.646-3.294 7.572-10.528 4.319-16.223l-11.743-20.555c-1.626-2.847-4.226-4.766-7.13-5.549zm80.304 21.659c-2.903-.783-6.108-.43-8.931 1.218l-20.38 11.891c-5.646 3.294-7.572 10.528-4.319 16.223l11.743 20.555c3.253 5.694 10.415 7.626 16.061 4.332l20.38-11.891c5.646-3.294 7.572-10.528 4.319-16.223l-11.743-20.555c-1.626-2.847-4.226-4.766-7.13-5.549zm80.327 21.665c-2.903-.783-6.108-.43-8.931 1.218l-20.402 11.886c-5.646 3.294-7.572 10.528-4.319 16.223l11.764 20.561a11.63 11.63 0 0 0 15.853 4.396c4.15-9.537 7.607-19.432 10.326-29.554 1.495-5.82 2.743-11.698 3.738-17.608l-.892-1.561c-1.626-2.847-4.226-4.766-7.13-5.549zm-238.603-63.826a212.56 212.56 0 0 0-6.984 21.16c-2.875 10.987-4.865 22.176-5.94 33.389 1.619-.163 3.239-.603 4.746-1.482l20.402-11.886c5.646-3.294 7.572-10.528 4.319-16.223l-11.753-20.557c-1.154-2.02-2.888-3.373-4.784-4.389zm27.019 50.252a11.62 11.62 0 0 0-8.925 1.195l-20.402 11.886c-5.646 3.294-7.572 10.528-4.319 16.223l11.764 20.561c3.253 5.694 10.415 7.626 16.061 4.332l20.38-11.891c5.646-3.294 7.572-10.528 4.319-16.223l-11.733-20.539c-1.628-2.849-4.239-4.746-7.135-5.527zm80.304 21.659a11.62 11.62 0 0 0-8.925 1.195l-20.38 11.891c-5.646 3.294-7.572 10.528-4.319 16.223l11.743 20.555c3.253 5.694 10.415 7.626 16.061 4.332l20.38-11.891c5.646-3.294 7.572-10.528 4.319-16.223l-11.733-20.539c-1.628-2.849-4.228-4.743-7.135-5.527zm80.304 21.659a11.62 11.62 0 0 0-8.925 1.195l-20.38 11.891c-5.646 3.294-7.572 10.528-4.319 16.223l11.743 20.555c3.253 5.694 10.415 7.626 16.061 4.332l20.402-11.886c5.646-3.294 7.572-10.528 4.319-16.223l-11.756-20.545c-1.628-2.849-4.228-4.743-7.135-5.527zm-131.239 8.083a11.62 11.62 0 0 0-8.925 1.195l-20.38 11.891c-5.646 3.294-7.572 10.528-4.319 16.223l11.737 20.577c3.253 5.694 10.415 7.626 16.061 4.332l20.386-11.913c5.646-3.294 7.572-10.528 4.319-16.223l-11.742-20.554c-1.628-2.849-4.239-4.746-7.135-5.527zm80.304 21.659a11.62 11.62 0 0 0-8.925 1.195l-20.38 11.891c-5.646 3.294-7.572 10.528-4.319 16.223l11.737 20.577c3.253 5.694 10.415 7.626 16.061 4.332l20.386-11.913c5.646-3.294 7.572-10.528 4.319-16.223l-11.742-20.554c-1.628-2.849-4.228-4.743-7.135-5.527zm80.327 21.665a11.62 11.62 0 0 0-8.925 1.195l-20.402 11.886c-5.646 3.294-7.572 10.528-4.319 16.223l4.541 7.949c11.326-10.484 21.508-22.864 30.198-36.717-.38-.147-.701-.429-1.094-.535zm-230.213-53.181c.873 10.126 2.533 20.007 4.96 29.509 4.644-3.577 6.192-9.987 3.198-15.228l-8.158-14.28zm18.636 39.585a11.62 11.62 0 0 0-8.925 1.195l-1.239.723c5.288 15.685 12.725 29.867 22.015 41.986l2.702-1.577c5.646-3.294 7.572-10.528 4.319-16.223l-11.741-20.603c-1.631-2.838-4.239-4.746-7.135-5.527zm80.304 21.659a11.62 11.62 0 0 0-8.925 1.195l-20.386 11.913c-5.646 3.294-7.572 10.528-4.319 16.223l11.743 20.555c3.253 5.694 10.415 7.626 16.061 4.332l20.38-11.891c5.646-3.294 7.572-10.528 4.319-16.223l-11.733-20.588c-1.631-2.838-4.228-4.743-7.135-5.527zm80.304 21.659a11.62 11.62 0 0 0-8.925 1.195l-20.386 11.913c-5.646 3.294-7.572 10.528-4.319 16.223l5.076 8.886c14.402-4.906 28.34-12.661 41.251-22.953l-5.563-9.738c-1.626-2.847-4.232-4.744-7.136-5.527zm-131.248 8.071c-2.903-.783-6.108-.43-8.931 1.218l-.816.476c8.051 8.701 17.109 15.923 26.949 21.485l-10.072-17.631c-1.626-2.847-4.226-4.766-7.13-5.549zm80.304 21.659c-2.903-.783-6.108-.43-8.931 1.218l-20.38 11.891c-.04.024-.056.07-.097.094 13.083 2.058 26.591 1.554 40.056-1.493l-3.519-6.161c-1.626-2.847-4.226-4.766-7.13-5.549z" opacity=".3"/><path d="M284.578 112l-258.984.734 4.547 7.984 250-.703zM104 456.031v8h40.297v-8zm64 0v8h40v-8zM455.266 24.016c-50.379-1.254-86.609 53.422-86.609 53.422-15.109-26.729-42.695-45.453-62.297-51.953-8.977-2.977-9.93-.256-3.672 7.078.029.034.05.076.078.109 1.07.181 2.058.303 3.594.813 19.602 6.5 47.188 25.224 62.297 51.953 0 0 36.23-54.676 86.609-53.422 2.218.055 3.897.449 5.141 1.047 4.39-4.641 2.825-8.849-5.141-9.047zM295.422 104.5c-8.284-.495-9.347 3.158-4.562 8.344 1.168-.307 2.619-.46 4.562-.344 9.135.546 21.631 3.171 36.609 11 0 0-.389-3.477-1.172-8.531-14.44-7.343-26.551-9.937-35.438-10.469zm146.438.109c-20.47-1.295-31.494 9.304-33.078 10.937-.351 2.808-.606 5.658-.641 8.594 0 0 11.613-12.93 33.719-11.531 14.327.906 31.68 11.855 49.984 27.891.901.789 1.648 1.553 2.25 2.313 2.955-2.272 2.529-6.126-2.25-10.312-18.304-16.036-35.658-26.984-49.984-27.891zm-15.172 63.719c-.81-.041-1.393.036-2.172.031-3.397 2.411-6.397 5.159-8.766 8.391 0 0 21.016-2.869 24.391 5.188.347.829.582 1.762.781 2.719.768-3.854.457-7.762-.781-10.719-1.687-4.028-7.776-5.32-13.453-5.609z" opacity=".2" fill="#fff"/><defs ><path id="B" d="M332.678 172.485c-17.504-12.025-26.737-38.231-39.566-49.45-7.215-6.308-7.098-11.098 2.31-10.535 9.135.546 21.623 3.171 36.602 10.999 0 0-5.503-54.991-29.341-82.93-6.258-7.334-5.305-10.062 3.673-7.085 19.602 6.5 47.191 25.232 62.301 51.961 0 0 36.228-54.678 86.608-53.424 9.421.235 10 6.057 2.212 11.598-18.432 13.117-48.858 41.142-49.329 80.527 0 0 11.603-12.936 33.708-11.537 14.327.906 31.686 11.847 49.99 27.882 7.209 6.315 4.664 11.96-4.752 12.386-21.436.97-57.137 4.486-71.346 23.874 0 0 21.022-2.872 24.397 5.184 3.288 7.853.088 22.381-12.713 24.929-32.177 6.407-67.366-15.564-94.752-34.379z"/></defs></svg>
