<svg xmlns="http://www.w3.org/2000/svg" width="512" height="512"><path d="M64 96h384c17.672 0 32 14.328 32 32v272c0 17.672-14.328 32-32 32H64c-17.672 0-32-14.328-32-32V128c0-17.672 14.328-32 32-32zm0 0" opacity=".2"/><path d="M64 88h384c17.672 0 32 14.328 32 32v272c0 17.672-14.328 32-32 32H64c-17.672 0-32-14.328-32-32V120c0-17.672 14.328-32 32-32zm0 0" fill="#f1356a"/><path d="M64 128v53.344c.006 5.883 5.57 10.651 11.453 10.656 5.895.012 12.541-4.761 12.547-10.656V152h29.344c5.895-.006 10.668-6.652 10.656-12.547-.006-5.883-4.773-11.447-10.656-11.453zm330.656 0c-5.883.006-10.651 5.57-10.656 11.453-.012 5.895 4.761 12.541 10.656 12.547H424v29.344c.006 5.895 6.652 10.667 12.547 10.656 5.883-.006 11.447-4.773 11.453-10.656V128zm-39.719 64l-69.844.031h-65.375c-6.458 0-11.461 6.04-11.625 11.969 0 0-.187-4.713-.188 59.375l-54.344-55.344-5.906-.062H144v112.094h3.125l5.313-.125 55.469-56.531v.188l.031 60.062c.848 8.854 6.137 11.865 11.938 12.344l65.313-.156H354.5c9.933 0 12.98-6.496 13.5-12.531v-59.719l-.031-58.219c.002-8.392-5.602-13.363-13.031-13.375zm-67.062 24c1.92 0 3.861.122 5.781.344 26.295 3.191 45.084 26.976 42.031 53.219l-.094.844c-3.545 26.169-27.642 44.575-53.937 41.188-25.039-3.412-43.212-25.525-41.562-50.687 1.625-25.138 22.495-44.759 47.781-44.906zm-.656 24c-11.6.36-21.534 9.141-23.031 21.031-1.629 13.097 7.589 25.06 20.688 26.781 13.098 1.698 25.138-7.52 26.906-20.594l.062-.438c1.536-13.121-7.847-25.012-20.969-26.594-1.228-.149-2.456-.225-3.656-.187zM75.453 336c-5.883.006-11.447 4.773-11.453 10.656V400h53.344c5.883-.006 10.651-5.57 10.656-11.453.012-5.895-4.761-12.541-10.656-12.547H88v-29.344c-.006-5.895-6.652-10.668-12.547-10.656zm361.094 0c-5.895-.011-12.541 4.761-12.547 10.656V376h-29.344c-5.895.006-10.667 6.652-10.656 12.547.006 5.883 4.773 11.447 10.656 11.453H448v-53.344c-.006-5.883-5.57-10.651-11.453-10.656z" opacity=".2"/><path d="M354.938 184l-69.844.032h-65.375c-6.458 0-11.461 6.04-11.625 11.969 0 0-.187-4.713-.188 59.375l-54.344-55.345-5.906-.062H144v112.094h3.125l5.313-.125 55.469-56.531v.188l.032 60.063c.848 8.854 6.136 11.865 11.937 12.344l65.312-.157H354.5c9.933 0 12.98-6.496 13.5-12.531v-59.719l-.032-58.219c.002-8.392-5.602-13.362-13.031-13.374zm-67.062 24c1.92 0 3.861.122 5.781.344 26.295 3.191 45.084 26.976 42.031 53.219l-.094.844c-3.545 26.17-27.642 44.575-53.937 41.187-25.039-3.412-43.212-25.525-41.563-50.687 1.625-25.138 22.495-44.759 47.781-44.906zm-.656 24c-11.6.36-21.534 9.141-23.031 21.031-1.629 13.097 7.589 25.06 20.688 26.781 13.098 1.698 25.138-7.52 26.906-20.594l.062-.437c1.536-13.121-7.847-25.012-20.969-26.594-1.228-.149-2.456-.225-3.656-.187z" fill="#fff"/><path d="M64 120v53.344c.006 5.883 5.57 10.651 11.453 10.656 5.895.012 12.541-4.761 12.547-10.656V144h29.344c5.895-.006 10.668-6.652 10.656-12.547-.006-5.883-4.773-11.447-10.656-11.453zm330.656 0c-5.883.006-10.651 5.57-10.656 11.453-.012 5.895 4.761 12.541 10.656 12.547H424v29.344c.006 5.895 6.652 10.667 12.547 10.656 5.883-.006 11.447-4.773 11.453-10.656V120zM75.453 328c-5.883.006-11.447 4.773-11.453 10.656V392h53.344c5.883-.006 10.651-5.57 10.656-11.453.012-5.895-4.761-12.541-10.656-12.547H88v-29.344c-.006-5.895-6.652-10.668-12.547-10.656zm361.094 0c-5.895-.011-12.541 4.761-12.547 10.656V368h-29.344c-5.895.006-10.667 6.652-10.656 12.547.006 5.883 4.773 11.447 10.656 11.453H448v-53.344c-.006-5.883-5.57-10.651-11.453-10.656z" fill="#f89ab5"/><path d="M64 88c-17.672 0-32 14.328-32 32v8c0-17.672 14.328-32 32-32h384c17.672 0 32 14.328 32 32v-8c0-17.672-14.328-32-32-32z" opacity=".2" fill="#fff"/></svg>
