<svg xmlns="http://www.w3.org/2000/svg" width="512" height="512"><path d="M54.4 40C41.99 40 32 49.99 32 62.4v403.2c0 12.41 9.99 22.4 22.4 22.4H304l176-176V62.4c0-12.41-9.99-22.4-22.4-22.4z" opacity=".2"/><path d="M54.4 32C41.99 32 32 41.99 32 54.4v403.2c0 12.41 9.99 22.4 22.4 22.4H304l176-176V54.4c0-12.41-9.99-22.4-22.4-22.4z" fill="#579c3b"/><path d="M176 120c-61.856 0-112 50.144-112 112s50.144 112 112 112 112-50.144 112-112a112.02 112.02 0 0 0-1.281-16H344v160h32V216h72v-32H277.031c-18.515-39.033-57.829-63.938-101.031-64zm0 33.594c43.304-.003 78.41 35.102 78.406 78.406.003 43.304-35.102 78.41-78.406 78.406-43.304.003-78.41-35.102-78.406-78.406-.003-43.304 35.102-78.41 78.406-78.406z" opacity=".2"/><path d="M376 208v160h-32V208z" fill="#fff"/><path d="M480 304H326c-12.151 0-22 9.85-22 22v154z" fill="#85df66"/><g fill="#fff"><path d="M256 176h192v32H256z"/><path d="M176 112a112 112 0 1 0 0 224 112 112 0 1 0 0-224zm0 33.6a78.4 78.4 0 0 1 0 156.8 78.4 78.4 0 0 1 0-156.8z"/><path d="M54.406 32C41.997 32 32 41.997 32 54.406v8C32 49.997 41.997 40 54.406 40h403.188C470.003 40 480 49.997 480 62.406v-8C480 41.997 470.003 32 457.594 32zM326 304c-12.151 0-22 9.85-22 22v8c0-12.15 9.849-22 22-22h146l8-8z" opacity=".2"/></g></svg>
