<?xml version="1.0" encoding="UTF-8" standalone="no"?>
<svg
   xmlns:dc="http://purl.org/dc/elements/1.1/"
   xmlns:cc="http://creativecommons.org/ns#"
   xmlns:rdf="http://www.w3.org/1999/02/22-rdf-syntax-ns#"
   xmlns:svg="http://www.w3.org/2000/svg"
   xmlns="http://www.w3.org/2000/svg"
   xmlns:sodipodi="http://sodipodi.sourceforge.net/DTD/sodipodi-0.dtd"
   xmlns:inkscape="http://www.inkscape.org/namespaces/inkscape"
   width="512"
   height="512"
   version="1"
   id="svg8"
   sodipodi:docname="kmines.svg"
   inkscape:version="0.92.3 (2405546, 2018-03-11)">
  <metadata
     id="metadata14">
    <rdf:RDF>
      <cc:Work
         rdf:about="">
        <dc:format>image/svg+xml</dc:format>
        <dc:type
           rdf:resource="http://purl.org/dc/dcmitype/StillImage" />
        <dc:title />
      </cc:Work>
    </rdf:RDF>
  </metadata>
  <defs
     id="defs12">
    <filter
       inkscape:collect="always"
       style="color-interpolation-filters:sRGB"
       id="filter827"
       x="-0.030213308"
       width="1.0604266"
       y="-0.044528439"
       height="1.0890569">
      <feGaussianBlur
         inkscape:collect="always"
         stdDeviation="5.4866399"
         id="feGaussianBlur829" />
    </filter>
  </defs>
  <sodipodi:namedview
     pagecolor="#ffffff"
     bordercolor="#666666"
     borderopacity="1"
     objecttolerance="10"
     gridtolerance="10"
     guidetolerance="10"
     inkscape:pageopacity="0"
     inkscape:pageshadow="2"
     inkscape:window-width="3440"
     inkscape:window-height="1353"
     id="namedview10"
     showgrid="false"
     inkscape:zoom="1.3037281"
     inkscape:cx="60.42667"
     inkscape:cy="335.74431"
     inkscape:window-x="0"
     inkscape:window-y="0"
     inkscape:window-maximized="1"
     inkscape:current-layer="svg8" />
  <path
     style="fill:#4f4f4f;stroke-width:8"
     d="m 210.144,32.0208 c -4.7488,0.51678 -8.932,4.40232 -9.8,9.0992 l -9.4496,47.9472 c -16.964,6.6344 -32.908,15.7496 -46.8976,26.9496 L 97.4544,100.2672 C 92.61616,98.6 86.7504,100.76 84.152,105.16784 l -44.7984,77.6968 c -2.52344,4.46864 -1.4416,10.6528 2.44984,13.9992 l 37.0984,32.548 c -1.3056,8.7272 -2.09992,17.508 -2.09992,26.5992 0,9.0912 0.793576,17.8712 2.09992,26.5992 l -37.0984,32.5496 c -3.89096,3.34648 -4.97328,9.5304 -2.44984,13.9992 l 44.7984,77.6968 c 2.59816,4.40624 8.464,6.5672 13.2992,4.89968 l 46.5472,-15.7496 c 13.9904,11.1992 29.9336,20.3144 46.8976,26.9496 l 9.4496,47.9472 c 0.9584,5.01904 5.74048,9.0296 10.8496,9.0992 h 89.592 c 5.10912,-0.064 9.8912,-4.08056 10.8496,-9.0992 l 9.4496,-47.9472 c 16.964,-6.6344 32.908,-15.7496 46.8976,-26.9496 l 46.5472,15.7496 c 4.83568,1.66752 10.7016,-0.4928 13.2992,-4.89968 l 44.7984,-77.6968 c 2.52328,-4.46864 1.4416,-10.6528 -2.44984,-13.9992 l -37.0984,-32.5496 c 1.3056,-8.7272 2.09976,-17.5064 2.09976,-26.5992 0,-9.0912 -0.7952,-17.8712 -2.09976,-26.5992 l 37.0984,-32.548 c 3.89096,-3.34648 4.97312,-9.5304 2.44984,-13.9992 l -44.7984,-77.6968 c -2.59192,-4.41264 -8.464,-6.57424 -13.296,-4.90704 l -46.5472,15.7496 c -13.968,-11.216 -29.904,-20.328 -46.864,-26.96 l -9.456,-47.9512 c -0.96,-5.0184 -5.744,-9.0296 -10.848,-9.0984 h -89.592 c -0.3504,-0.008 -0.7008,-0.008 -1.0496,0 z"
     id="path2"
     inkscape:connector-curvature="0" />
  <path
     style="opacity:0.1;fill:#ffffff;stroke-width:8"
     d="m 210.16,32 -0.016,0.016 c -4.752,0.5168 -8.936,4.412 -9.8,9.1088 L 190.888,89.064 C 173.928,95.696 157.992,104.816 144,116.016 L 97.456,100.264 c -4.84,-1.664 -10.704,0.504 -13.296,4.904 l -44.8008,77.688 c -1.6144,2.864 -1.6128,6.368 -0.484,9.44 0.1792,-0.472 0.2344,-0.976 0.484,-1.424 L 84.16,113.168 c 2.592,-4.4 8.456,-6.568 13.296,-4.904 L 144,124.016 c 13.992,-11.2 29.928,-20.304 46.888,-26.936 l 9.456,-47.9552 c 0.864,-4.6968 5.048,-8.5768 9.8,-9.0936 l 0.016,-0.0152 c 0.344,-0.009 0.696,-0.009 1.04,0 h 89.6 c 5.104,0.0688 9.88,4.0744 10.84,9.0936 l 9.456,47.9544 c 16.96,6.632 32.904,15.744 46.904,26.952 l 46.544,-15.752 c 4.832,-1.664 10.704,0.496 13.296,4.904 l 44.8,77.704 c 0.248,0.44 0.304,0.944 0.488,1.408 1.12,-3.064 1.12,-6.568 -0.488,-9.424 l -44.8,-77.688 c -2.592,-4.408 -8.464,-6.568 -13.296,-4.904 L 368,116.016 C 354,104.808 338.056,95.68 321.096,89.048 L 311.64,41.1096 C 310.68,36.0904 305.904,32.0688 300.8,32 h -89.6 c -0.344,-0.008 -0.696,-0.008 -1.04,0 z M 78.048,236.672 c -0.7256,6.352 -1.2504,12.76 -1.2504,19.344 0,1.352 0.1376,2.656 0.172,4 0.196,-7.664 0.8264,-15.168 1.9376,-22.592 z m 355.888,0.016 -0.84,0.736 c 1.112,7.424 1.72,14.928 1.92,22.592 0.032,-1.344 0.168,-2.648 0.168,-4 0,-6.576 -0.52,-12.976 -1.248,-19.328 z m 0,46.656 c -0.272,2.424 -0.48,4.856 -0.84,7.264 l 37.088,32.56 c 1.408,1.216 2.304,2.848 2.944,4.584 1.64,-4.296 0.568,-9.576 -2.944,-12.592 z m -355.888,0.016 -36.2344,31.8 c -3.5064,3.016 -4.5768,8.28 -2.9376,12.576 0.6352,-1.728 1.5352,-3.36 2.9376,-4.568 l 37.0936,-32.56 c -0.36,-2.4 -0.5832,-4.832 -0.8592,-7.248 z"
     id="path4"
     inkscape:connector-curvature="0" />
  <path
     style="opacity:0.2;stroke-width:8;filter:url(#filter827)"
     d="m 473.128,190.61263 c -0.63456,1.73928 -1.52896,3.38224 -2.93752,4.59376 l -37.0936,32.5472 c 0.35944,2.4048 0.5676,4.83184 0.84376,7.25 l 36.2496,-31.8128 c 3.50736,-3.01664 4.57824,-8.2848 2.93752,-12.5784 z m -434.248,0.016 c -1.63408,4.29112 -0.567056,9.5488 2.93752,12.5624 l 36.2496,31.7968 c 0.27576,-2.41264 0.48484,-4.83512 0.84376,-7.2344 l -37.0984,-32.552 c -1.404,-1.208 -2.3024,-2.84 -2.9376,-4.576 z m 38.0936,67.7184 c -0.03424,1.34024 -0.171872,2.64688 -0.171872,4 0,6.58608 0.5238,12.9856 1.25,19.344 l 0.85936,-0.75 c -1.1168,-7.424 -1.7464,-14.928 -1.9424,-22.592 z m 358.048,0 c -0.19592,7.6648 -0.81064,15.1656 -1.92184,22.5936 l 0.84376,0.7344 c 0.72504,-6.3528 1.25,-12.7464 1.25,-19.328 0,-1.3532 -0.1376,-2.65976 -0.17184,-4 z m -396.152,67.704 c -1.12824,3.0708 -1.12992,6.5788 0.484376,9.4376 l 44.7968,77.7032 c 2.59816,4.40624 8.4608,6.55808 13.2968,4.89064 l 46.544004,-15.752 c 13.9904,11.1992 29.9416,20.3184 46.9064,26.9528 l 9.4376,47.9528 c 0.96,5.024 5.752,9.024 10.856,9.096 h 89.592 c 5.10912,-0.064 9.8856,-4.07472 10.844,-9.0936 l 9.4528,-47.9528 c 16.968,-6.632 32.92,-15.752 46.912,-26.952 l 46.5472,15.7504 c 4.83568,1.66752 10.6984,-0.48376 13.2968,-4.89064 l 44.7968,-77.7032 c 1.61088,-2.85288 1.60512,-6.35536 0.4844,-9.4216 -0.17984,0.47144 -0.23464,0.97968 -0.4844,1.42184 l -44.7968,77.7032 c -2.59816,4.40688 -8.4608,6.57376 -13.2968,4.90624 l -46.544,-15.752 c -13.9904,11.2 -29.9416,20.3032 -46.9064,26.9376 l -9.4528,47.9528 c -0.95792,5.01904 -5.73464,9.0456 -10.844,9.1096 h -89.6 c -5.10912,-0.0696 -9.9008,-4.09032 -10.8592,-9.1096 l -9.4376,-47.9528 c -16.96,-6.632 -32.912,-15.736 -46.904,-26.936 l -46.547204,15.7504 c -4.83584,1.66752 -10.6984,-0.5 -13.2968,-4.90624 l -44.8008,-77.704 c -0.25184,-0.446 -0.303568,-0.96192 -0.484376,-1.43752 z"
     id="path6"
     inkscape:connector-curvature="0" />
</svg>
