<svg xmlns="http://www.w3.org/2000/svg" xmlns:xlink="http://www.w3.org/1999/xlink" width="512" height="512"><defs><filter id="A" x="-.027" width="1.054" y="-.053" height="1.106" color-interpolation-filters="sRGB"><feGaussianBlur stdDeviation="4.84"/></filter><path id="B" d="M283.904 237.504q0 9.216-5.248 14.72-5.12 5.376-13.696 7.168v.512q10.88 1.28 16.256 6.912 5.504 5.632 5.504 14.72 0 8.064-3.712 14.208-3.712 6.144-11.52 9.6-7.68 3.456-19.84 3.456-7.168 0-13.312-1.152-6.144-1.024-11.776-3.84v-10.496q5.76 2.944 12.416 4.48 6.656 1.536 12.8 1.536 12.288 0 17.664-4.736 5.504-4.864 5.504-13.312 0-8.576-6.784-12.288-6.656-3.84-18.816-3.84h-8.832v-9.6h8.96q11.264 0 17.024-4.736 5.888-4.736 5.888-12.544 0-6.656-4.48-10.24-4.48-3.712-12.16-3.712-7.424 0-12.672 2.176-5.248 2.176-10.368 5.504l-5.632-7.68q4.864-3.84 12.032-6.656 7.296-2.816 16.512-2.816 14.336 0 21.248 6.4 7.04 6.4 7.04 16.256z"/></defs><path d="M42.791 255.717l-.125 5.333c0 118.187 95.147 213.333 213.333 213.333s213.333-95.147 213.333-213.333c0-1.791-.081-3.553-.126-5.333-2.816 115.691-96.811 208-213.205 208s-210.389-92.309-213.205-208z" opacity=".2" filter="url(#A)"/><rect width="426.667" height="426.667" x="-469.333" y="-469.333" rx="213.333" transform="matrix(0 -1 -1 0 0 0)" fill="#e4e4e4"/><path d="M128 243.866q0 10.071-1.906 19.88-1.77 9.678-6.672 17.657-4.766 7.847-13.617 12.556-8.715 4.708-22.468 4.708-2.723 0-6.4-.392-3.677-.262-5.855-.916v-9.809q5.311 1.7 11.983 1.7 9.532 0 15.66-3.008 6.264-3.008 9.94-8.109 3.677-5.232 5.311-12.033 1.634-6.932 1.906-14.518h-.817q-3.132 4.447-8.715 7.717-5.583 3.139-14.434 3.139-12.528 0-20.289-7.324Q64 247.658 64 234.187q0-9.809 3.813-16.872 3.813-7.063 10.757-10.856 7.081-3.793 16.477-3.793 9.26 0 16.749 4.578 7.489 4.447 11.847 13.602Q128 229.871 128 243.866zm-32.953-31.52q-8.443 0-13.889 5.362-5.311 5.362-5.311 16.349 0 9.025 4.494 14.256 4.63 5.101 14.162 5.101 6.536 0 11.302-2.485 4.766-2.616 7.353-6.54 2.723-3.924 2.723-8.109 0-5.624-2.315-11.117-2.315-5.493-6.945-9.155-4.63-3.662-11.574-3.662z" fill="#3f3f3f"/><path d="M170.667 170.667h170.667v170.667H170.667z" fill="#a26b4e"/><use xlink:href="#B" opacity=".2"/><use xlink:href="#B" y="-10.667" fill="#fff"/><path d="M170.667 60.417c-49.331 21.451-88.799 60.919-110.25 110.25h110.25zm170.667 0v110.25h110.25c-21.451-49.331-60.92-88.799-110.25-110.25zM60.417 341.333c21.451 49.33 60.919 88.799 110.25 110.25v-110.25zm280.917 0v110.25c49.331-21.451 88.799-60.92 110.25-110.25z" fill="#9a9a9a"/><path d="M170.667 170.667h170.667v10.667H170.667zM60.417 341.333c1.581 3.635 3.351 7.142 5.125 10.667h105.125v-10.667zm280.917 0V352h105.125c1.774-3.525 3.544-7.032 5.125-10.667z" opacity=".2"/><path d="M256 42.667C137.813 42.667 42.667 137.813 42.667 256c0 1.792.085 3.552.125 5.333 2.823-115.691 96.814-208 213.205-208s210.389 92.308 213.205 208l.126-5.333c0-118.187-95.147-213.333-213.333-213.333z" opacity=".2" fill="#fff"/></svg>
