<svg xmlns="http://www.w3.org/2000/svg" width="512" height="512"><circle cx="256" cy="264" r="224" opacity=".2"/><circle cx="256" cy="256" r="224" fill="#8bc34a"/><path d="M256 32A224 224 0 0 0 32 256a224 224 0 0 0 .141 3.938A224 224 0 0 1 256 40a224 224 0 0 1 223.797 219.938A224 224 0 0 0 480 256 224 224 0 0 0 256 32z" opacity=".2" fill="#fff"/><circle cx="256" cy="264" r="160" opacity=".2"/><circle cx="256" cy="256" r="160" fill="#fff"/><path d="M42.594 240A224 168 0 0 0 40 263.953a228.571 240 0 0 0 0 .047 228.571 240 0 0 0 .75 13.031A224 168 0 0 0 42.531 288h436.094A224 224 0 0 0 480 264a224 224 0 0 0-1.547-24z" opacity=".2"/><path d="M42.594 232A224 168 0 0 0 40 255.953a228.571 240 0 0 0 0 .047 228.571 240 0 0 0 .75 13.031A224 168 0 0 0 42.531 280h436.094A224 224 0 0 0 480 256a224 224 0 0 0-1.547-24z" fill="#4f4f4f"/><rect width="128" height="128" x="16" y="200" rx="21.336" opacity=".2"/><rect width="128" height="128" x="16" y="192" rx="21.336" fill="#4f4f4f"/></svg>
