<svg xmlns="http://www.w3.org/2000/svg" width="512" height="512"><rect width="256" height="336" x="128" y="112" rx="20" opacity=".2"/><rect width="256" height="336" x="128" y="104" rx="20" fill="#a5a5a5"/><rect width="416" height="320" x="48" y="80" rx="20" opacity=".2"/><path d="M48 352v20a19.96 19.96 0 0 0 20 20h376a19.96 19.96 0 0 0 20-20v-20z" fill="#e4e4e4"/><path d="M68 72a19.96 19.96 0 0 0-20 20v260h416V92a19.96 19.96 0 0 0-20-20z" fill="#8c5edc"/><path d="M48 352h416v8H48zM68 72a19.96 19.96 0 0 0-20 20v8a19.96 19.96 0 0 1 20-20h376a19.96 19.96 0 0 1 20 20v-8a19.96 19.96 0 0 0-20-20z" opacity=".2" fill="#fff"/><path d="M256.125 140.188c-29.724-.026-59.448 9.002-84.812 27.094a8.001 8.001 0 1 0 9.281 13.031c45.209-32.247 105.847-32.201 151 .125a8.002 8.002 0 0 0 9.313-13.016c-25.333-18.137-55.057-27.208-84.781-27.234zm.344 39.891c-21.877-.095-43.783 6.519-62.437 19.875a8.002 8.002 0 0 0 9.313 13.016c31.749-22.73 74.404-22.553 105.953.453a8.001 8.001 0 1 0 9.438-12.922c-18.538-13.518-40.389-20.326-62.266-20.422zm-.125 40.172a66.96 66.96 0 0 0-40.047 13.016 8.001 8.001 0 1 0 9.469 12.891c18.179-13.354 42.868-13.231 60.906.312a8.002 8.002 0 1 0 9.609-12.797c-11.813-8.869-25.871-13.348-39.937-13.422zM256 260a16 16 0 1 0 0 32 16 16 0 1 0 0-32z" opacity=".2"/><path d="M175.952 165.793a137.846 137.846 0 0 1 160.291.14" fill="none" stroke="#fff" stroke-width="16" stroke-linecap="round" stroke-linejoin="round"/><path d="M256 252a16 16 0 1 0 0 32 16 16 0 1 0 0-32z" fill="#fff"/><path d="M198.683 198.461a98.462 98.462 0 0 1 115.33.503m-92.987 32.742a59.077 59.077 0 0 1 70.445.369" fill="none" stroke="#fff" stroke-width="16" stroke-linecap="round" stroke-linejoin="round"/></svg>
