<svg xmlns="http://www.w3.org/2000/svg" width="512" height="512"><g transform="rotate(90)"><rect width="464" height="368" x="32" y="-440" rx="33.168" ry="36.8" opacity=".2"/><rect width="464" height="368" x="24" y="-440" rx="33.168" ry="36.8" fill="#8d8d8d"/></g><path d="M120 279V80.625S120 72 128.774 72h254.452C392 72 392 80.625 392 80.625V279" fill="#01dfd8"/><path d="M120 287v146.781S120 448 132.75 448H296l96-96v-65z" opacity=".2"/><path d="M120 279h272v65l-63.75 34.441L296 440H132.75C120 440 120 425.794 120 425.794z" fill="#e4e4e4"/><path d="M296 440v-82.909S296 344 309.091 344H392z" fill="#ccc"/><rect width="464" height="48" x="24" y="264" rx="11.6" ry="12" opacity=".2"/><g fill="#fff"><rect width="464" height="48" x="24" y="256" rx="11.6" ry="12"/><path d="M108.813 24C88.425 24 72 38.78 72 57.156v8C72 46.78 88.425 32 108.813 32h294.375C423.575 32 440 46.78 440 65.156v-8C440 38.78 423.575 24 403.188 24z" opacity=".1"/><path d="M128.781 72c-8.774 0-8.781 8.625-8.781 8.625v8S120.007 80 128.781 80h254.438c8.774 0 8.781 8.625 8.781 8.625v-8S391.993 72 383.219 72z" opacity=".2"/></g></svg>
