<?xml version="1.0" encoding="UTF-8" standalone="no"?>
<svg
   xmlns:dc="http://purl.org/dc/elements/1.1/"
   xmlns:cc="http://creativecommons.org/ns#"
   xmlns:rdf="http://www.w3.org/1999/02/22-rdf-syntax-ns#"
   xmlns:svg="http://www.w3.org/2000/svg"
   xmlns="http://www.w3.org/2000/svg"
   xmlns:sodipodi="http://sodipodi.sourceforge.net/DTD/sodipodi-0.dtd"
   xmlns:inkscape="http://www.inkscape.org/namespaces/inkscape"
   width="512"
   height="512"
   version="1.1"
   id="svg24"
   sodipodi:docname="remmina.svg"
   inkscape:version="0.92.5 (2060ec1f9f, 2020-04-08)">
  <metadata
     id="metadata30">
    <rdf:RDF>
      <cc:Work
         rdf:about="">
        <dc:format>image/svg+xml</dc:format>
        <dc:type
           rdf:resource="http://purl.org/dc/dcmitype/StillImage" />
        <dc:title></dc:title>
      </cc:Work>
    </rdf:RDF>
  </metadata>
  <defs
     id="defs28" />
  <sodipodi:namedview
     pagecolor="#ffffff"
     bordercolor="#666666"
     borderopacity="1"
     objecttolerance="10"
     gridtolerance="10"
     guidetolerance="10"
     inkscape:pageopacity="0"
     inkscape:pageshadow="2"
     inkscape:window-width="3440"
     inkscape:window-height="1356"
     id="namedview26"
     showgrid="false"
     inkscape:zoom="0.65186406"
     inkscape:cx="32.813559"
     inkscape:cy="32"
     inkscape:window-x="0"
     inkscape:window-y="0"
     inkscape:window-maximized="1"
     inkscape:current-layer="svg24" />
  <g
     transform="matrix(8,0,0,8,0,-2146.4)"
     id="g22">
    <circle
       style="fill:#ffffff"
       cx="32"
       cy="300.29999"
       r="26.1"
       id="circle2" />
    <polygon
       style="opacity:0.1"
       class="st1"
       transform="matrix(0.7664523,0,0,0.7664523,3.1972864,270.3011)"
       points="20.62,17.74 20.62,26.92 29.55,32.88 20.62,38.83 20.62,48.01 43.32,32.88 "
       id="polygon4" />
    <polygon
       style="fill:#20aa73"
       class="st1"
       transform="matrix(0.7664523,0,0,0.7664523,3.1972864,269.3011)"
       points="20.62,48.01 43.32,32.88 20.62,17.74 20.62,26.92 29.55,32.88 20.62,38.83 "
       id="polygon6" />
    <polygon
       style="opacity:0.1"
       class="st2"
       transform="matrix(0.76641852,0,0,0.76641852,2.5496107,273.3035)"
       points="32.69,44.1 55.39,59.23 55.39,50.05 46.46,44.1 55.39,38.14 55.39,28.96 "
       id="polygon8" />
    <polygon
       style="fill:#3989da"
       class="st2"
       transform="matrix(0.76641852,0,0,0.76641852,2.5496107,272.3035)"
       points="55.39,38.14 55.39,28.96 32.69,44.1 55.39,59.23 55.39,50.05 46.46,44.1 "
       id="polygon10" />
    <path
       style="opacity:0.2"
       d="m 57.372168,287.30128 -4.876758,3.2455 A 23.2,23.2 0 0 1 55.199998,301.3 23.2,23.2 0 0 1 32,324.5 23.2,23.2 0 0 1 14.149707,316.0577 l -4.8597658,3.23418 C 14.606225,325.98952 22.80444,330.3 32,330.3 c 15.990474,0 29,-13.00876 29,-29 0,-5.07706 -1.325304,-9.84392 -3.627832,-13.99872 z"
       id="path12"
       inkscape:connector-curvature="0" />
    <path
       style="fill:#20aa73"
       d="m 57.372168,286.30128 -4.876758,3.2455 A 23.2,23.2 0 0 1 55.199998,300.3 23.2,23.2 0 0 1 32,323.5 23.2,23.2 0 0 1 14.149707,315.0577 l -4.8597658,3.23418 C 14.606225,324.98952 22.80444,329.3 32,329.3 c 15.990474,0 29,-13.00876 29,-29 0,-5.07706 -1.325304,-9.84392 -3.627832,-13.99872 z"
       id="path14"
       inkscape:connector-curvature="0" />
    <path
       style="opacity:0.2"
       d="m 32,272.3 c -15.991229,0 -29.0000001,13.00876 -29.0000001,29 0,4.71932 1.1368765,9.1759 3.1463867,13.11798 L 11.045801,311.1583 A 23.2,23.2 0 0 1 8.8,301.3 23.2,23.2 0 0 1 32,278.1 a 23.2,23.2 0 0 1 17.19043,7.67764 l 4.888086,-3.25118 C 48.755678,276.2751 40.833542,272.3 32,272.3 Z"
       id="path16"
       inkscape:connector-curvature="0" />
    <path
       style="fill:#3989da"
       d="m 32,271.3 c -15.991229,0 -29.0000001,13.00876 -29.0000001,29 0,4.71932 1.1368765,9.1759 3.1463867,13.11798 L 11.045801,310.1583 A 23.2,23.2 0 0 1 8.8,300.3 23.2,23.2 0 0 1 32,277.1 a 23.2,23.2 0 0 1 17.19043,7.67764 l 4.888086,-3.25118 C 48.755678,275.2751 40.833542,271.3 32,271.3 Z"
       id="path18"
       inkscape:connector-curvature="0" />
    <path
       style="opacity:0.2;fill:#ffffff"
       transform="translate(0,268.3)"
       d="M 32,3 C 16.008771,3 3,16.00876 3,32 3,32.152068 3.01132,32.301611 3.013672,32.453125 3.3073138,16.714196 16.192157,4 32,4 c 8.531176,0 16.205041,3.7146469 21.515625,9.599609 l 0.5625,-0.373047 C 48.755287,6.9752025 40.833542,3 32,3 Z M 8.8164062,32.677734 A 23.2,23.2 0 0 0 8.8007812,33 23.2,23.2 0 0 0 10.71875,42.074219 l 0.326172,-0.216797 A 23.2,23.2 0 0 1 8.8164062,32.677734 Z"
       id="path20"
       inkscape:connector-curvature="0" />
  </g>
</svg>
