<svg xmlns="http://www.w3.org/2000/svg" width="512" height="512"><g transform="matrix(8 0 0 8 0 -2146.4)"><circle cx="32" cy="300.3" r="26.1" fill="#fff"/><path d="M19.002 283.898v7.036l6.844 4.568-6.844 4.56v7.036L36.4 295.502z" opacity=".1"/><path d="M19.002 306.098L36.4 294.502l-17.398-11.604v7.036l6.844 4.568-6.844 4.56z" fill="#20aa73"/><path d="M27.604 307.103l17.398 11.596v-7.036l-6.844-4.56 6.844-4.568v-7.036z" opacity=".1"/><path d="M45.002 301.535v-7.036l-17.398 11.604 17.398 11.596v-7.036l-6.844-4.56z" fill="#3989da"/><path d="M57.372 287.301l-4.877 3.245A23.2 23.2 0 0 1 32 324.5a23.2 23.2 0 0 1-17.85-8.442l-4.86 3.234C14.606 325.99 22.804 330.3 32 330.3c15.99 0 29-13.009 29-29 0-5.077-1.325-9.844-3.628-13.999z" opacity=".2"/><path d="M57.372 286.301l-4.877 3.245A23.2 23.2 0 0 1 32 323.5a23.2 23.2 0 0 1-17.85-8.442l-4.86 3.234C14.606 324.99 22.804 329.3 32 329.3c15.99 0 29-13.009 29-29 0-5.077-1.325-9.844-3.628-13.999z" fill="#20aa73"/><path d="M32 272.3c-15.991 0-29 13.009-29 29a28.8 28.8 0 0 0 3.146 13.118l4.899-3.26A23.2 23.2 0 0 1 32 278.1a23.2 23.2 0 0 1 17.19 7.678l4.888-3.251C48.756 276.275 40.834 272.3 32 272.3z" opacity=".2"/><path d="M32 271.3c-15.991 0-29 13.009-29 29a28.8 28.8 0 0 0 3.146 13.118l4.899-3.26A23.2 23.2 0 0 1 32 277.1a23.2 23.2 0 0 1 17.19 7.678l4.888-3.251C48.756 275.275 40.834 271.3 32 271.3z" fill="#3989da"/><path d="M32 271.3c-15.991 0-29 13.009-29 29 0 .152.011.302.014.453C3.307 285.014 16.192 272.3 32 272.3c8.531 0 16.205 3.715 21.516 9.6l.563-.373C48.755 275.275 40.834 271.3 32 271.3zM8.816 300.978l-.016.322a23.2 23.2 0 0 0 1.918 9.074l.326-.217a23.2 23.2 0 0 1-2.229-9.18z" opacity=".2" fill="#fff"/></g></svg>
