<?xml version="1.0" encoding="UTF-8" standalone="no"?>
<svg
   width="512"
   height="512"
   version="1"
   id="svg12"
   sodipodi:docname="solaar.svg"
   inkscape:version="1.1.2 (0a00cf5339, 2022-02-04)"
   xmlns:inkscape="http://www.inkscape.org/namespaces/inkscape"
   xmlns:sodipodi="http://sodipodi.sourceforge.net/DTD/sodipodi-0.dtd"
   xmlns="http://www.w3.org/2000/svg"
   xmlns:svg="http://www.w3.org/2000/svg">
  <defs
     id="defs16" />
  <sodipodi:namedview
     id="namedview14"
     pagecolor="#ffffff"
     bordercolor="#666666"
     borderopacity="1.0"
     inkscape:pageshadow="2"
     inkscape:pageopacity="0.0"
     inkscape:pagecheckerboard="0"
     showgrid="false"
     inkscape:zoom="0.57245266"
     inkscape:cx="31.443648"
     inkscape:cy="31.443648"
     inkscape:window-width="3440"
     inkscape:window-height="1356"
     inkscape:window-x="0"
     inkscape:window-y="0"
     inkscape:window-maximized="1"
     inkscape:current-layer="svg12" />
  <rect
     style="opacity:0.2;stroke-width:8"
     width="448"
     height="448"
     x="32"
     y="40"
     rx="134.39999"
     ry="134.39999"
     id="rect2" />
  <rect
     style="fill:#029499;stroke-width:8"
     width="448"
     height="448"
     x="32"
     y="32"
     rx="134.39999"
     ry="134.39999"
     id="rect4" />
  <path
     style="opacity:0.2;stroke-width:8"
     d="m 196.78125,113.43501 -41.5625,24 37.71875,65.31249 a 88,88 0 0 0 -21.51563,37.25 H 96 v 48 h 75.35938 a 88,88 0 0 0 21.53124,37.32813 l -37.67187,65.23437 41.5625,24 37.73437,-65.34374 A 88,88 0 0 0 256,351.9975 a 88,88 0 0 0 21.51562,-2.75 l 37.70313,65.3125 41.5625,-24 -37.71875,-65.3125 a 88,88 0 0 0 21.51563,-37.25 H 416 v -48 h -75.35938 a 88,88 0 0 0 -21.53124,-37.32812 l 37.67187,-65.23437 -41.5625,-24 -37.73437,65.34374 A 88,88 0 0 0 256,175.9975 a 88,88 0 0 0 -21.51562,2.75 z M 256,207.9975 a 56,56 0 0 1 56,56 56,56 0 0 1 -56,56 56,56 0 0 1 -56,-56 56,56 0 0 1 56,-56 z"
     id="path6" />
  <path
     style="fill:#ffffff;stroke-width:8"
     d="m 196.78125,105.4375 -41.5625,24 37.71875,65.3125 A 88,88 0 0 0 171.42187,232 H 96 v 48 h 75.35938 a 88,88 0 0 0 21.53124,37.32813 l -37.67187,65.23437 41.5625,24 37.73437,-65.34375 A 88,88 0 0 0 256,344 a 88,88 0 0 0 21.51562,-2.75 l 37.70313,65.3125 41.5625,-24 L 319.0625,317.25 A 88,88 0 0 0 340.57813,280 H 416 v -48 h -75.35938 a 88,88 0 0 0 -21.53124,-37.32813 l 37.67187,-65.23437 -41.5625,-24 -37.73437,65.34375 A 88,88 0 0 0 256,168 88,88 0 0 0 234.48438,170.75 Z M 256,200 a 56,56 0 0 1 56,56 56,56 0 0 1 -56,56 56,56 0 0 1 -56,-56 56,56 0 0 1 56,-56 z"
     id="path8" />
  <path
     style="opacity:0.2;fill:#ffffff;stroke-width:8"
     d="M 166.40625,32 C 91.948656,32 32,91.948656 32,166.40625 v 8 C 32,99.948656 91.948656,40 166.40625,40 h 179.1875 C 420.05134,40 480,99.948656 480,174.40625 v -8 C 480,91.948656 420.05134,32 345.59375,32 Z"
     id="path10" />
</svg>
