<svg xmlns="http://www.w3.org/2000/svg" xmlns:xlink="http://www.w3.org/1999/xlink" width="512" height="512"><path d="M451.464 115.693c-2.768-.272-5.712.29-8.848 1.906-25.168 12.803-50.607 72.278-57.311 113.093-1.152 7.04-1.088 16.16-.592 25.872.16-3.344.128-7.04.592-9.872 6.704-40.816 32.144-100.29 57.311-113.093 25.088-12.923 37.648 43.238 50.623 29.374 2.992-3.214 3.36-10.198 1.76-19.155-.448 1.248-1.008 2.346-1.76 3.155-11.36 12.128-22.384-29.377-41.776-31.28zM18.717 403.306c-2.227 3.632-3.376 7.504-2.155 11.936 9.698 19.44 13.062 21.6 13.062 21.6s56.023 86.527 223.118 63.151c167.07-23.376 190.222-61.471 188.718-80.367-.16-2-.864-3.92-1.696-5.792-7.728 20.32-46.16 50.447-187.022 70.159-167.102 23.376-223.118-63.151-223.118-63.151-.006 0-3.061-2.464-10.913-17.536z" opacity=".2"/><path d="M299.562 19.051c-45.785 6.382-94.986 30.452-135.011 101.668-91.516 162.734-85.017 219.374-99.602 237.678-14.64 18.227-54.094 28.12-48.388 48.839 9.698 19.438 13.062 21.597 13.062 21.597s56.022 86.534 223.118 63.161c167.086-23.373 190.254-61.463 188.734-80.369-1.514-18.926-36.776-32.726-36.776-32.726s-26.105-99.394-19.403-140.199c6.702-40.824 32.161-100.313 57.324-113.116 25.089-12.923 37.644 43.236 50.622 29.376 12.928-13.888-21.488-95.652-63.519-120.018-33.632-22.854-70.703-20.656-130.159-15.801" fill="#3e50b4"/><g opacity=".2"><use xlink:href="#B"/><use xlink:href="#C"/><use xlink:href="#D"/></g><g fill="#ffbe4b"><use xlink:href="#B" y="-8.001"/><use xlink:href="#C" y="-8.001"/><use xlink:href="#D" y="-8.001"/></g><path d="M358 15.984c-16.999-.108-36.142 1.336-58.437 3.156v-.094c-45.785 6.382-94.99 30.457-135.016 101.672-91.516 162.734-85.008 219.368-99.594 237.672-14.64 18.227-54.096 28.124-48.391 48.844l.063.125c4.555-15.669 35.676-25.217 48.328-40.969 14.585-18.304 8.078-74.938 99.594-237.672 40.025-71.215 89.231-95.29 135.016-101.672v.094c59.455-4.854 96.525-7.057 130.156 15.797 33.952 19.683 62.911 76.786 65.984 105.344 2.999-24.008-28.4-91.556-65.984-113.344-21.02-14.284-43.387-18.774-71.719-18.953zm26.313 243.359c-1.095 45.603 20.391 127.563 20.391 127.563s32.448 12.739 36.359 30.516c.382-2.063.548-4.038.406-5.797-1.514-18.926-36.766-32.719-36.766-32.719s-19.145-73.005-20.391-119.562z" opacity=".1" fill="#fff"/><defs ><path id="B" d="M233.552 192.409l47.07-2.527 24.918-37.874 17.102 43.198 45.351 16.382-34.966 28.213-.762 45.797-37.11-24.018-49.64 16.168 13.911-44.398m-25.892-40.957"/><path id="C" d="M226.495 330.121l44.234-16.455 12.671-43.7 28.941 36.028 48.116 2.097-25.059 37.39 12.671 43.968-42.445-11.758-42.64 30.31.284-46.568m-36.755-31.296"/><path id="D" d="M111.995 272.22l46.999 3.567 29.418-34.451 11.555 45.026 42.922 22.119-38.209 23.463-6.504 45.295-33.707-28.499-51.306 9.661 19.317-42.212m-20.487-43.968"/></defs></svg>
