<svg xmlns="http://www.w3.org/2000/svg" width="512" height="512"><path d="M65.594 40A33.52 33.52 0 0 0 32 73.594v380.813A33.52 33.52 0 0 0 65.594 488h156.813A33.52 33.52 0 0 0 256 454.406 33.52 33.52 0 0 0 289.594 488h156.813A33.52 33.52 0 0 0 480 454.406V73.594A33.52 33.52 0 0 0 446.406 40H289.594A33.52 33.52 0 0 0 256 73.594 33.52 33.52 0 0 0 222.406 40z" opacity=".2"/><rect width="224" height="448" x="256" y="32" rx="33.6" fill="#ffe658"/><rect width="224" height="448" x="32" y="32" rx="33.6" fill="#fff689"/><path d="M145.141 173.279l-9.766 8.734.219 26.359-70-2.016 10.328 10.766h59.766l.156 23.391h-33.859l-13.359-6.375.562 65.734 14.641-7.547v-11.937h32.344l.172 31.953-69.328-.547 18.078 18.328 7.734-9.891h43.594l.109 18.625c0 5.539 5.172 11.047 5.172 11.047l14.328-10.484s-6.875-4.316-6.875-9.297l-.172-9.891h71.187l-20.234-17.313-9.734 9.875-41.531-.344-.578-32.062h19.813l6.109 12.813 13.828-10.797-4.312-4.937v-32.875l9.453-5.797-25.844-12.234.125 13.953h-20.344l-.453-23.391h61.359l-20.203-20.5-9.766 13.094-31.719-1.016zm215.984 2.531c0 21.841-.429 45.552-3.453 64.688l-68.078-.312 7.422 8.281h58.516c-7.336 32.744-24.227 61.117-63.344 84.516l2.594 15.938c41.693-19.789 68.327-50.664 76.781-100.453h74.094l-26.141-26.141-11.484 18.406-34.906-.156c.904-8.181 1.344-20.032 1.344-29.187l13-2.953zm34.109 18.922l-7.391 3.687c7.728 7.129 18.175 12.916 18.531 23.734l14.828-11.125c-5.961-8.796-16.194-12.27-25.969-16.297zM103.828 247.81h32.047l.094 9.234h-32.141zm43.297 0h20.234l.109 9.234h-20.031zm228.094 7.328c0 50.58 56.719 94.156 56.719 94.156l14.469-22.984s-63.031-30.385-63.031-69.328zm-271.391 9.156h32.203l.062 8.813h-32.266zm43.797 0h19.906l.109 8.813h-19.75z" opacity=".1"/><path d="M145.135 165.28l-9.756 8.728.219 26.371-69.998-2.012 10.325 10.753h59.76l.153 23.401h-33.854l-13.366-6.387.569 65.734 14.634-7.547v-11.927h32.344l.175 31.95-69.319-.547 18.069 18.331 7.744-9.897h43.594l.11 18.625c0 5.539 5.162 11.047 5.162 11.047l14.328-10.478s-6.869-4.316-6.869-9.297l-.175-9.897h71.184l-20.234-17.315-9.734 9.887-41.521-.35-.591-32.06h19.819l6.103 12.801 13.83-10.784-4.309-4.944v-32.878l9.45-5.797-25.839-12.228.131 13.956h-20.344l-.459-23.401h61.362l-20.213-20.497-9.756 13.091-31.721-1.006zm-41.313 74.525h32.06l.087 9.236h-32.147zm43.304 0h20.235l.11 9.236h-20.039zm-43.304 16.498h32.213l.066 8.807h-32.279zm43.807 0h19.907l.11 8.807h-19.754zm213.502-88.498c0 21.841-.432 45.556-3.456 64.691l-68.075-.306 7.416 8.284h58.516c-7.336 32.744-24.233 61.104-63.35 84.503l2.603 15.947c41.693-19.789 68.327-50.661 76.781-100.45h74.091l-26.141-26.141-11.484 18.404-34.913-.154c.904-8.181 1.356-20.032 1.356-29.188l12.994-2.953zm34.103 18.922l-7.394 3.697c7.728 7.129 18.172 12.916 18.528 23.734l14.831-11.134c-5.961-8.796-16.191-12.27-25.966-16.297zm-20.016 60.419c0 50.58 56.722 94.15 56.722 94.15l14.459-22.991s-63.022-30.378-63.022-69.322z" fill="#c58c00"/><path d="M65.594 32A33.52 33.52 0 0 0 32 65.594v8A33.52 33.52 0 0 1 65.594 40h156.813A33.52 33.52 0 0 1 256 73.594 33.52 33.52 0 0 1 289.594 40h156.813A33.52 33.52 0 0 1 480 73.594v-8A33.52 33.52 0 0 0 446.406 32H289.594A33.52 33.52 0 0 0 256 65.594 33.52 33.52 0 0 0 222.406 32z" opacity=".2" fill="#fff"/></svg>
