<svg xmlns="http://www.w3.org/2000/svg" width="512" height="512"><rect width="448" height="448" x="32" y="40" rx="22.4" opacity=".2"/><rect width="448" height="448" x="32" y="32" rx="22.4" fill="#e4e4e4"/><path d="M371.234 72.001c-37.244 0-67.234 29.99-67.234 67.234v9.531c0 37.244 29.99 67.234 67.234 67.234h9.531c37.245 0 67.234-29.99 67.234-67.234v-9.531c0-37.244-29.99-67.234-67.234-67.234zm-282.441 8v94.156s.31 15.611-16.406 23.969L84.7 217.939c27.591-13.796 28.094-35.781 28.094-35.781v1.844h63.203v3.688s.5-1.528-1.953 4.359-4.6 9.797-14.016 9.797h-5.531l-9.891 22.156h11.078 5.547c18.277 0 29.983-12.71 34.453-23.438s4.313-20.875 4.313-20.875V80.001zm24 24h63.203v16h-63.203zm0 40h63.203v16h-63.203zm23.113 168c-3.53 0-6.713.683-9.562 2.047-3.592 1.735-6.377 3.595-8.359 5.578-2.354 2.355-4.184 5.041-5.484 8.078s-1.953 6.359-1.953 9.953c0 3.471.621 6.761 1.859 9.859s3.101 5.817 5.578 8.172c.619.62 1.67 1.494 3.156 2.609a25.96 25.96 0 0 1 2.781 2.422c2.23 2.107 4.028 4.698 5.391 7.797 1.363 3.037 2.047 6.644 2.047 10.797-3.902 0-7.371-.62-10.406-1.859s-5.788-3.099-8.266-5.578c-1.239-1.239-2.05-2.113-2.422-2.609-1.115-1.611-1.974-2.724-2.594-3.344-2.354-2.355-5.027-4.183-8-5.484-2.911-1.301-6.253-1.953-10.031-1.953-3.592 0-6.903.652-9.937 1.953a25.57 25.57 0 0 0-8.078 5.484c-2.23 2.231-4.092 5.013-5.578 8.359-1.363 2.975-2.047 6.233-2.047 9.766s.684 6.727 2.047 9.578c1.672 3.595 3.534 6.376 5.578 8.359a25.57 25.57 0 0 0 8.078 5.484c3.035 1.301 6.345 1.953 9.937 1.953 3.468 0 6.747-.62 9.844-1.859s5.834-3.099 8.187-5.578c.619-.62 1.479-1.669 2.594-3.156a26.14 26.14 0 0 1 2.422-2.797c2.415-2.417 5.137-4.245 8.172-5.484 3.097-1.301 6.598-1.937 10.5-1.937 0 3.966-.652 7.463-1.953 10.5-1.239 2.975-3.069 5.725-5.484 8.266-.805.806-1.697 1.585-2.687 2.328-1.548 1.116-2.631 1.99-3.25 2.609-2.415 2.417-4.277 5.167-5.578 8.266-1.239 3.099-1.859 6.389-1.859 9.859 0 3.595.652 6.901 1.953 9.938a25.64 25.64 0 0 0 5.484 8.094c2.23 2.231 5.015 4.091 8.359 5.578 2.911 1.301 6.126 1.953 9.656 1.953s6.745-.652 9.656-1.953c3.345-1.487 6.13-3.347 8.359-5.578a25.64 25.64 0 0 0 5.484-8.094c1.301-3.037 1.953-6.343 1.953-9.937 0-3.471-.652-6.761-1.953-9.859-1.239-3.099-3.069-5.849-5.484-8.266-.619-.62-1.702-1.494-3.25-2.609a25.02 25.02 0 0 1-2.687-2.328c-2.044-2.045-3.81-4.604-5.297-7.703-1.425-3.161-2.141-6.848-2.141-11.062 3.964 0 7.433.636 10.406 1.938 3.035 1.239 5.82 3.067 8.359 5.484.805.806 1.585 1.712 2.328 2.703 1.115 1.549 1.974 2.63 2.594 3.25a25.69 25.69 0 0 0 8.281 5.578c3.097 1.24 6.375 1.859 9.844 1.859 3.592 0 6.903-.652 9.937-1.953a25.57 25.57 0 0 0 8.078-5.484c2.23-2.231 4.092-5.013 5.578-8.359 1.301-2.913 1.953-6.139 1.953-9.672s-.652-6.759-1.953-9.672c-1.486-3.347-3.348-6.128-5.578-8.359a25.57 25.57 0 0 0-8.078-5.484c-3.035-1.302-6.345-1.953-9.937-1.953-3.468 0-6.747.652-9.844 1.953-3.097 1.24-5.866 3.067-8.281 5.484-.619.62-1.479 1.701-2.594 3.25-.743.992-1.523 1.897-2.328 2.703-2.044 2.045-4.638 3.81-7.797 5.297-3.097 1.425-6.757 2.141-10.969 2.141 0-3.904.589-7.353 1.766-10.328 1.239-3.037 3.133-5.787 5.672-8.266 1.239-1.24 2.098-2.05 2.594-2.422 1.61-1.116 2.724-1.99 3.344-2.609 2.354-2.355 4.184-4.978 5.484-7.891 1.301-2.975 1.953-6.36 1.953-10.141 0-3.595-.652-6.916-1.953-9.953s-3.131-5.723-5.484-8.078c-2.23-2.231-5.015-4.091-8.359-5.578-2.973-1.363-6.22-2.047-9.75-2.047zm260.094 0c-6.627 0-12 5.373-12 12s5.373 12 12 12 12-5.373 12-12-5.373-12-12-12zm-24 32c-6.627 0-12 5.373-12 12s5.373 12 12 12 12-5.373 12-12-5.373-12-12-12zm48 0c-6.627 0-12 5.373-12 12s5.373 12 12 12 12-5.373 12-12-5.373-12-12-12zm36 35.938l-24 9.75v18.344h-24v-8.625-9.719l-24 9.719v8.625l-23.375-.062v-10.188l-21.406 11.469v14.5c0 6.254-6.309 11.313-12.562 11.313s-11.437-5.059-11.437-11.312v-7.844l-22.125 12.844c2.483 16.619 16.759 28.945 33.563 28.969 18.657-.011 33.804-15.093 33.938-33.75h.031l95.375.031z" opacity=".1"/><path d="M396.002 304c-6.627 0-12 5.373-12 12s5.373 12 12 12 12-5.373 12-12-5.373-12-12-12zm-24 32c-6.627 0-12 5.373-12 12s5.373 12 12 12 12-5.373 12-12-5.373-12-12-12zm48 0c-6.627 0-12 5.373-12 12s5.373 12 12 12 12-5.373 12-12-5.373-12-12-12zm36 35.938l-24 9.75v18.344h-24v-8.625-9.719l-24 9.719v8.625l-23.375-.062v-10.188l-21.406 11.469v14.5c0 6.254-6.309 11.312-12.562 11.312s-11.437-5.059-11.437-11.312v-7.844l-22.125 12.844c2.483 16.619 16.759 28.945 33.563 28.969 18.657-.011 33.804-15.093 33.937-33.75h.032l95.374.031z" fill="#26a269"/><path d="M131.355 371.305q0-6.229-2.044-10.784-2.044-4.648-5.388-7.809-1.301-1.301-2.787-2.417-2.23-1.673-3.159-2.603-3.716-3.533-5.574-8.181-1.858-4.648-1.858-9.854 0-5.392 1.951-9.947 1.951-4.555 5.481-8.088 2.973-2.975 8.361-5.578 4.274-2.045 9.569-2.045 5.295 0 9.755 2.045 5.017 2.231 8.361 5.578 3.53 3.533 5.481 8.088 1.951 4.555 1.951 9.947 0 5.671-1.951 10.133-1.951 4.369-5.481 7.902-.929.929-3.345 2.603-.743.557-2.601 2.417-3.809 3.719-5.667 8.274-1.765 4.462-1.765 10.319 6.317 0 10.963-2.138 4.738-2.231 7.804-5.299 1.208-1.208 2.323-2.696 1.672-2.324 2.601-3.254 3.623-3.625 8.268-5.485 4.645-1.952 9.848-1.952 5.388 0 9.941 1.952 4.552 1.952 8.083 5.485 3.345 3.347 5.574 8.367 1.951 4.369 1.951 9.668 0 5.299-1.951 9.668-2.23 5.02-5.574 8.367-3.53 3.533-8.083 5.485-4.552 1.952-9.941 1.952-5.203 0-9.848-1.859-4.645-1.952-8.268-5.578-.929-.93-2.601-3.254-1.115-1.487-2.323-2.696-3.809-3.626-8.361-5.485-4.459-1.952-10.405-1.952 0 6.321 2.137 11.063 2.23 4.648 5.295 7.716 1.208 1.209 2.694 2.324 2.323 1.673 3.252 2.603 3.623 3.626 5.481 8.274 1.951 4.648 1.951 9.854 0 5.392-1.951 9.947-1.951 4.555-5.481 8.088-3.345 3.347-8.361 5.578Q141.295 448 136 448q-5.295 0-9.662-1.952-5.017-2.231-8.361-5.578-3.53-3.533-5.481-8.088-1.951-4.555-1.951-9.947 0-5.206 1.858-9.854 1.951-4.648 5.574-8.274.929-.929 3.252-2.603 1.486-1.115 2.694-2.324 3.623-3.811 5.481-8.274 1.951-4.555 1.951-10.505-5.853 0-10.498 1.952-4.552 1.859-8.175 5.485-1.301 1.301-2.415 2.789-1.672 2.231-2.601 3.161-3.53 3.719-8.175 5.578-4.645 1.859-9.848 1.859-5.388 0-9.941-1.952-4.552-1.952-8.083-5.485-3.066-2.975-5.574-8.367Q64 381.345 64 376.046q0-5.299 2.044-9.761 2.23-5.02 5.574-8.367 3.53-3.533 8.083-5.485 4.552-1.952 9.941-1.952 5.667 0 10.034 1.952 4.459 1.952 7.99 5.485.929.93 2.601 3.347.558.744 2.415 2.603 3.716 3.719 8.268 5.578 4.552 1.859 10.405 1.859z" fill="#a347ba"/><rect width="144" height="144" x="304" y="64" rx="67.232" fill="#ffb820"/><path d="M352 160h48s0 16-24 16-24-16-24-16z" fill="#c01c27"/><path d="M352 152h48v8h-48z" fill="#fff"/><path d="M336 118c0-3.314 3.582-6 8-6s8 2.686 8 6v18h-16zm64 0c0-3.314 3.582-6 8-6s8 2.686 8 6v18h-16z" fill="#b45600"/><path d="M54.406 32C41.997 32 32 41.997 32 54.406v8C32 49.997 41.997 40 54.406 40h403.188C470.003 40 480 49.997 480 62.406v-8C480 41.997 470.003 32 457.594 32z" opacity=".2" fill="#fff"/><path d="M88.799 72v94.154s.312 15.613-16.405 23.971l12.31 19.806c27.591-13.796 28.094-35.776 28.094-35.776v1.846h63.198v3.692s.495-1.536-1.958 4.352-4.593 9.8-14.008 9.8h-5.538L144.612 216h11.077 5.538c18.277 0 29.983-12.702 34.453-23.43s4.316-20.877 4.316-20.877V72zm24 24h63.198v16h-63.198zm0 40h63.198v16.002h-63.198z" fill="#4191ef"/><path d="M248 32v216H32v16h216v216h16V264h216v-16H264V32z" opacity=".1"/></svg>
