<svg xmlns="http://www.w3.org/2000/svg" width="512" height="512"><path d="M256 40a224 224 0 1 0 0 448 224 224 0 1 0 0-448z" opacity=".2"/><path d="M256 32a224 224 0 1 0 0 448 224 224 0 1 0 0-448z" fill="#484b61"/><circle cx="256" cy="264" r="128" opacity=".2"/><circle cx="256" cy="256" r="128" fill="#9499b2"/><g transform="rotate(30)"><rect width="48" height="208" x="332.8" y="-94.56" rx="24" ry="23.112" opacity=".1"/><rect width="48" height="208" x="328.8" y="-101.44" rx="24" ry="23.112" fill="#fff"/></g><path d="M256 32A224 224 0 0 0 32 256a224 224 0 0 0 .172 3.25A224 224 0 0 1 256 40a224 224 0 0 1 223.828 220.625A224 224 0 0 0 480 256 224 224 0 0 0 256 32z" opacity=".1" fill="#fff"/><g transform="rotate(90)"><rect width="32" height="56" x="248" y="-104" rx="8" ry="7" opacity=".1"/><rect width="32" height="56" x="240" y="-104" rx="8" ry="7" fill="#9499b2"/><rect width="32" height="56" x="248" y="-464" rx="8" ry="7" opacity=".1"/><rect width="32" height="56" x="240" y="-464" rx="8" ry="7" fill="#9499b2"/></g><g transform="scale(-1)"><rect width="32" height="56" x="-272" y="-112" rx="8" ry="7" opacity=".1"/><rect width="32" height="56" x="-272" y="-104" rx="8" ry="7" fill="#9499b2"/><rect width="32" height="56" x="-272" y="-472" rx="8" ry="7" opacity=".1"/><rect width="32" height="56" x="-272" y="-464" rx="8" ry="7" fill="#9499b2"/></g></svg>
