<svg xmlns="http://www.w3.org/2000/svg" xmlns:xlink="http://www.w3.org/1999/xlink" width="512" height="512"><path d="M480 449.778V94.222C480 81.911 470.01 72 457.6 72H54.4C41.99 72 32 81.911 32 94.222v355.556C32 462.089 41.99 472 54.4 472h403.2c12.41 0 22.4-9.911 22.4-22.222z" opacity=".2"/><path d="M480 441.778V86.222C480 73.911 470.01 64 457.6 64H54.4C41.99 64 32 73.911 32 86.222v355.556C32 454.089 41.99 464 54.4 464h403.2c12.41 0 22.4-9.911 22.4-22.222z" fill="#4f4f4f"/><path d="M54.406 64C41.997 64 32 73.908 32 86.219v8C32 81.908 41.997 72 54.406 72h403.188C470.003 72 480 81.908 480 94.219v-8C480 73.908 470.003 64 457.594 64z" opacity=".1" fill="#fff"/><path d="M240 64l.625 400H272V64z" fill="#e14c39"/><g fill-rule="evenodd"><use xlink:href="#B" opacity=".2"/><use xlink:href="#B" y="-8" fill="#83b9f5"/></g><path d="M320 56h-64-64l32 48 32 48 32-48z" opacity=".2"/><path d="M320 48h-64-64l32 48 32 48 32-48z" fill="#ff6161"/><path d="M316.442 179.215c-5.892.318-12.237 5.499-12.222 11.239L304 359.948c0 7.655 11.267 14.316 17.712 9.768L443.14 284.68c6.487-4.491 6.472-15.027 0-19.538l-121.203-84.456c-1.618-1.127-3.526-1.576-5.491-1.471z" opacity=".2"/><path d="M316.442 171.215c-5.892.318-12.237 5.499-12.222 11.239L304 351.948c0 7.655 11.267 14.316 17.712 9.768L443.14 276.68c6.487-4.491 6.472-15.027 0-19.538l-121.203-84.456c-1.618-1.127-3.526-1.576-5.491-1.471z" fill="#3a7cca"/><g fill="#fff"><path d="M316.438 171.219c-5.892.318-12.234 5.494-12.219 11.234l-.219 169.5c0 .022.015.041.016.063l.203-161.562c-.015-5.741 6.327-10.917 12.219-11.234h.016c1.965-.105 3.867.342 5.484 1.469l121.203 84.453c2.065 1.44 3.392 3.523 4.141 5.797 1.614-4.855.278-10.717-4.141-13.797l-121.203-84.453c-1.618-1.127-3.519-1.574-5.484-1.469z" opacity=".1"/><path d="M176 128v8h32v-8zm-32 48v8h64v-8zm-64 48v8h128v-8zm-32 48v8h160v-8zm32 48v8h128v-8zm64 48v8h64v-8z" opacity=".1" fill-rule="evenodd"/></g><defs ><path id="B" d="M176 136v24h32v-24zm-32 48v24h64v-24zm-64 48v24h128v-24zm-32 48v24h160v-24zm32 48v24h128v-24zm64 48v24h64v-24z"/></defs></svg>
