<svg xmlns="http://www.w3.org/2000/svg" width="512" height="512"><defs><filter id="A" x="-.03" width="1.06" y="-.045" height="1.089" color-interpolation-filters="sRGB"><feGaussianBlur stdDeviation="5.487"/></filter></defs><path d="M210.144 32.021c-4.749.517-8.932 4.402-9.8 9.099l-9.45 47.947c-16.964 6.634-32.908 15.75-46.898 26.95l-46.542-15.75c-4.838-1.667-10.704.493-13.302 4.901l-44.798 77.697c-2.523 4.469-1.442 10.653 2.45 13.999l37.098 32.548c-1.306 8.727-2.1 17.508-2.1 26.599s.794 17.871 2.1 26.599l-37.098 32.55c-3.891 3.346-4.973 9.53-2.45 13.999l44.798 77.697c2.598 4.406 8.464 6.567 13.299 4.9l46.547-15.75c13.99 11.199 29.934 20.314 46.898 26.95l9.45 47.947c.958 5.019 5.74 9.03 10.85 9.099h89.592c5.109-.064 9.891-4.081 10.85-9.099l9.45-47.947c16.964-6.634 32.908-15.75 46.898-26.95l46.547 15.75c4.836 1.668 10.702-.493 13.299-4.9l44.798-77.697c2.523-4.469 1.442-10.653-2.45-13.999l-37.098-32.55c1.306-8.727 2.1-17.506 2.1-26.599s-.795-17.871-2.1-26.599l37.098-32.548c3.891-3.346 4.973-9.53 2.45-13.999l-44.798-77.697c-2.592-4.413-8.464-6.574-13.296-4.907l-46.547 15.75c-13.968-11.216-29.904-20.328-46.864-26.96l-9.456-47.951c-.96-5.018-5.744-9.03-10.848-9.098h-89.592c-.35-.008-.701-.008-1.05 0z" fill="#4f4f4f"/><path d="M210.16 32l-.016.016c-4.752.517-8.936 4.412-9.8 9.109l-9.456 47.939c-16.96 6.632-32.896 15.752-46.888 26.952l-46.544-15.752c-4.84-1.664-10.704.504-13.296 4.904l-44.801 77.688c-1.614 2.864-1.613 6.368-.484 9.44.179-.472.234-.976.484-1.424l44.801-77.704c2.592-4.4 8.456-6.568 13.296-4.904L144 124.016c13.992-11.2 29.928-20.304 46.888-26.936l9.456-47.955c.864-4.697 5.048-8.577 9.8-9.094l.016-.015c.344-.009.696-.009 1.04 0h89.6c5.104.069 9.88 4.074 10.84 9.094l9.456 47.954c16.96 6.632 32.904 15.744 46.904 26.952l46.544-15.752c4.832-1.664 10.704.496 13.296 4.904l44.8 77.704c.248.44.304.944.488 1.408 1.12-3.064 1.12-6.568-.488-9.424l-44.8-77.688c-2.592-4.408-8.464-6.568-13.296-4.904L368 116.016c-14-11.208-29.944-20.336-46.904-26.968L311.64 41.11c-.96-5.019-5.736-9.041-10.84-9.11h-89.6c-.344-.008-.696-.008-1.04 0zM78.048 236.672c-.726 6.352-1.25 12.76-1.25 19.344 0 1.352.138 2.656.172 4 .196-7.664.826-15.168 1.938-22.592zm355.888.016l-.84.736c1.112 7.424 1.72 14.928 1.92 22.592.032-1.344.168-2.648.168-4 0-6.576-.52-12.976-1.248-19.328zm0 46.656c-.272 2.424-.48 4.856-.84 7.264l37.088 32.56c1.408 1.216 2.304 2.848 2.944 4.584 1.64-4.296.568-9.576-2.944-12.592zm-355.888.016l-36.234 31.8c-3.506 3.016-4.577 8.28-2.938 12.576.635-1.728 1.535-3.36 2.938-4.568l37.094-32.56c-.36-2.4-.583-4.832-.859-7.248z" opacity=".1" fill="#fff"/><path d="M473.128 190.613c-.635 1.739-1.529 3.382-2.938 4.594l-37.094 32.547.844 7.25 36.25-31.813c3.507-3.017 4.578-8.285 2.938-12.578zm-434.248.016c-1.634 4.291-.567 9.549 2.938 12.562l36.25 31.797c.276-2.413.485-4.835.844-7.234l-37.098-32.552c-1.404-1.208-2.302-2.84-2.938-4.576zm38.094 67.718c-.034 1.34-.172 2.647-.172 4 0 6.586.524 12.986 1.25 19.344l.859-.75c-1.117-7.424-1.746-14.928-1.942-22.592zm358.048 0c-.196 7.665-.811 15.166-1.922 22.594l.844.734c.725-6.353 1.25-12.746 1.25-19.328 0-1.353-.138-2.66-.172-4zM38.87 326.051c-1.128 3.071-1.13 6.579.484 9.438l44.797 77.703c2.598 4.406 8.461 6.558 13.297 4.891l46.544-15.752c13.99 11.199 29.942 20.318 46.906 26.953l9.438 47.953c.96 5.024 5.752 9.024 10.856 9.096h89.592c5.109-.064 9.886-4.075 10.844-9.094l9.453-47.953c16.968-6.632 32.92-15.752 46.912-26.952l46.547 15.75c4.836 1.668 10.698-.484 13.297-4.891l44.797-77.703c1.611-2.853 1.605-6.355.484-9.422-.18.471-.235.98-.484 1.422l-44.797 77.703c-2.598 4.407-8.461 6.574-13.297 4.906l-46.544-15.752c-13.99 11.2-29.942 20.303-46.906 26.938l-9.453 47.953c-.958 5.019-5.735 9.046-10.844 9.11h-89.6c-5.109-.07-9.901-4.09-10.859-9.11l-9.438-47.953c-16.96-6.632-32.912-15.736-46.904-26.936L97.444 410.1c-4.836 1.668-10.698-.5-13.297-4.906L39.347 327.49c-.252-.446-.304-.962-.484-1.438z" opacity=".2" filter="url(#A)"/></svg>
