<?xml version="1.0" encoding="UTF-8" standalone="no"?>
<svg
   xmlns:dc="http://purl.org/dc/elements/1.1/"
   xmlns:cc="http://creativecommons.org/ns#"
   xmlns:rdf="http://www.w3.org/1999/02/22-rdf-syntax-ns#"
   xmlns:svg="http://www.w3.org/2000/svg"
   xmlns="http://www.w3.org/2000/svg"
   xmlns:sodipodi="http://sodipodi.sourceforge.net/DTD/sodipodi-0.dtd"
   xmlns:inkscape="http://www.inkscape.org/namespaces/inkscape"
   width="512"
   height="512"
   version="1"
   id="svg28"
   sodipodi:docname="ksudoku.svg"
   inkscape:version="0.92.3 (2405546, 2018-03-11)">
  <metadata
     id="metadata34">
    <rdf:RDF>
      <cc:Work
         rdf:about="">
        <dc:format>image/svg+xml</dc:format>
        <dc:type
           rdf:resource="http://purl.org/dc/dcmitype/StillImage" />
        <dc:title></dc:title>
      </cc:Work>
    </rdf:RDF>
  </metadata>
  <defs
     id="defs32">
    <filter
       inkscape:collect="always"
       style="color-interpolation-filters:sRGB"
       id="filter871"
       x="-0.027225"
       width="1.05445"
       y="-0.05312195"
       height="1.1062439">
      <feGaussianBlur
         inkscape:collect="always"
         stdDeviation="4.84"
         id="feGaussianBlur873" />
    </filter>
  </defs>
  <sodipodi:namedview
     pagecolor="#ffffff"
     bordercolor="#666666"
     borderopacity="1"
     objecttolerance="10"
     gridtolerance="10"
     guidetolerance="10"
     inkscape:pageopacity="0"
     inkscape:pageshadow="2"
     inkscape:window-width="3440"
     inkscape:window-height="1353"
     id="namedview30"
     showgrid="false"
     inkscape:zoom="1"
     inkscape:cx="212.30508"
     inkscape:cy="252"
     inkscape:window-x="0"
     inkscape:window-y="0"
     inkscape:window-maximized="1"
     inkscape:current-layer="svg28" />
  <path
     style="opacity:0.2;stroke-width:21.33333397;filter:url(#filter871)"
     d="m 42.791467,255.71734 c -0.04373,1.78134 -0.1248,3.54134 -0.1248,5.33334 0,118.18666 95.146663,213.33333 213.333333,213.33333 118.18667,0 213.33333,-95.14667 213.33333,-213.33333 0,-1.79072 -0.0811,-3.5535 -0.12586,-5.33334 -2.816,115.69067 -96.81067,208 -213.20534,208 -116.39466,0 -210.38933,-92.30933 -213.20533,-208 z"
     id="path4"
     inkscape:connector-curvature="0" />
  <rect
     style="fill:#e4e4e4;stroke-width:21.33333397"
     width="426.66666"
     height="426.66666"
     x="-469.33334"
     y="-469.33334"
     rx="213.33333"
     ry="213.33333"
     transform="matrix(0,-1,-1,0,0,0)"
     id="rect2" />
  <g
     style="font-size:12px;font-family:'Clear Sans';letter-spacing:0px;word-spacing:0px;fill:#3f3f3f"
     transform="matrix(11.347518,0,0,10.899183,-9.0780173,-5.09356)"
     id="g8">
    <path
       d="m 12.08,22.842 q 0,0.924 -0.168,1.824 -0.156,0.888 -0.588,1.62 -0.42,0.72 -1.2,1.152 -0.7679998,0.432 -1.9799998,0.432 -0.24,0 -0.564,-0.036 -0.324,-0.024 -0.516,-0.084 v -0.9 q 0.468,0.156 1.056,0.156 0.84,0 1.38,-0.276 Q 10.052,26.454 10.376,25.986 10.7,25.506 10.844,24.882 10.988,24.246 11.012,23.55 H 10.94 q -0.276,0.408 -0.768,0.708 -0.4919998,0.288 -1.2719998,0.288 -1.104,0 -1.788,-0.672 -0.672,-0.684 -0.672,-1.92 0,-0.9 0.336,-1.548 0.336,-0.648 0.948,-0.996 0.624,-0.348 1.452,-0.348 0.816,0 1.4759998,0.42 0.66,0.408 1.044,1.248 0.384,0.828 0.384,2.112 z M 9.1760002,19.95 q -0.744,0 -1.224,0.492 -0.468,0.492 -0.468,1.5 0,0.828 0.396,1.308 0.408,0.468 1.248,0.468 0.576,0 0.9959998,-0.228 0.42,-0.24 0.648,-0.6 0.24,-0.36 0.24,-0.744 0,-0.516 -0.204,-1.02 -0.204,-0.504 -0.612,-0.84 Q 9.7880002,19.95 9.1760002,19.95 Z"
       style="fill:#3f3f3f"
       id="path6"
       inkscape:connector-curvature="0" />
  </g>
  <rect
     style="fill:#a26b4e;stroke-width:21.33333397"
     width="170.66667"
     height="170.66667"
     x="170.66667"
     y="170.66666"
     ry="0"
     id="rect10" />
  <g
     style="font-size:12px;font-family:'Clear Sans';letter-spacing:0px;word-spacing:0px;opacity:0.2"
     transform="scale(10.666667)"
     id="g14">
    <path
       d="m 26.616001,22.266 q 0,0.864 -0.492,1.38 -0.48,0.504 -1.284,0.672 v 0.048 q 1.02,0.12 1.524,0.648 0.516,0.528 0.516,1.38 0,0.756 -0.348,1.332 -0.348,0.576 -1.08,0.9 -0.72,0.324 -1.86,0.324 -0.672,0 -1.248,-0.108 -0.576,-0.096 -1.104,-0.36 v -0.984 q 0.54,0.276 1.164,0.42 0.624,0.144 1.2,0.144 1.152,0 1.656,-0.444 0.516,-0.456 0.516,-1.248 0,-0.804 -0.636,-1.152 -0.624,-0.36 -1.764,-0.36 h -0.828 v -0.9 h 0.84 q 1.056,0 1.596,-0.444 0.552,-0.444 0.552,-1.176 0,-0.624 -0.42,-0.96 -0.42,-0.348 -1.14,-0.348 -0.696,0 -1.188,0.204 -0.492,0.204 -0.972,0.516 l -0.528,-0.72 q 0.456,-0.36 1.128,-0.624 0.684,-0.264 1.548,-0.264 1.344,0 1.992,0.6 0.66,0.6 0.66,1.524 z"
       id="path12"
       inkscape:connector-curvature="0" />
  </g>
  <g
     style="font-size:12px;font-family:'Clear Sans';letter-spacing:0px;word-spacing:0px;fill:#ffffff"
     transform="scale(10.666667)"
     id="g18">
    <path
       d="m 26.616001,21.266 q 0,0.864 -0.492,1.38 -0.48,0.504 -1.284,0.672 v 0.048 q 1.02,0.12 1.524,0.648 0.516,0.528 0.516,1.38 0,0.756 -0.348,1.332 -0.348,0.576 -1.08,0.9 -0.72,0.324 -1.86,0.324 -0.672,0 -1.248,-0.108 -0.576,-0.096 -1.104,-0.36 v -0.984 q 0.54,0.276 1.164,0.42 0.624,0.144 1.2,0.144 1.152,0 1.656,-0.444 0.516,-0.456 0.516,-1.248 0,-0.804 -0.636,-1.152 -0.624,-0.36 -1.764,-0.36 h -0.828 v -0.9 h 0.84 q 1.056,0 1.596,-0.444 0.552,-0.444 0.552,-1.176 0,-0.624 -0.42,-0.96 -0.42,-0.348 -1.14,-0.348 -0.696,0 -1.188,0.204 -0.492,0.204 -0.972,0.516 l -0.528,-0.72 q 0.456,-0.36 1.128,-0.624 0.684,-0.264 1.548,-0.264 1.344,0 1.992,0.6 0.66,0.6 0.66,1.524 z"
       id="path16"
       inkscape:connector-curvature="0" />
  </g>
  <path
     style="fill:#9a9a9a;stroke-width:21.33333397"
     d="M 170.66667,60.41667 C 121.33616,81.8679 81.867904,121.33616 60.416666,170.66667 H 170.66667 Z m 170.66666,0 v 110.25 H 451.58334 C 430.1321,121.33616 390.66383,81.8679 341.33333,60.41667 Z M 60.416666,341.33333 c 21.451238,49.3305 60.919494,88.79877 110.250004,110.25001 V 341.33333 Z m 280.916664,0 v 110.25001 c 49.3305,-21.45124 88.79877,-60.91951 110.25001,-110.25001 z"
     id="path20"
     inkscape:connector-curvature="0" />
  <rect
     style="opacity:0.2;stroke-width:21.33333397"
     width="170.66667"
     height="10.666667"
     x="170.66667"
     y="170.66666"
     id="rect22" />
  <path
     style="opacity:0.2;stroke-width:21.33333397"
     d="m 60.416666,341.33333 c 1.580597,3.63484 3.351494,7.14166 5.125,10.66667 H 170.66667 v -10.66667 z m 280.916664,0 V 352 h 105.125 c 1.7735,-3.52501 3.5444,-7.03183 5.12501,-10.66667 z"
     id="path24"
     inkscape:connector-curvature="0" />
  <path
     style="opacity:0.2;fill:#ffffff;stroke-width:21.33333397"
     d="M 256,42.66667 C 137.81333,42.66667 42.666667,137.81333 42.666667,256 c 0,1.792 0.08533,3.552 0.1248,5.33333 2.823466,-115.69066 96.813863,-208 213.205333,-208 116.39147,0 210.38933,92.30827 213.20533,208 0.0427,-1.77984 0.12587,-3.54272 0.12587,-5.33333 0,-118.18667 -95.14667,-213.33333 -213.33333,-213.33333 z"
     id="path26"
     inkscape:connector-curvature="0" />
</svg>
