<svg xmlns="http://www.w3.org/2000/svg" width="512" height="512"><rect width="480" height="352" x="16" y="112" rx="32" opacity=".2"/><path d="M16 392v32c0 17.728 14.272 32 32 32h416c17.728 0 32-14.272 32-32v-32l-32 24H48z" fill="#ff8915"/><rect width="480" height="352" x="16" y="80" rx="32" opacity=".2"/><rect width="480" height="352" x="16" y="72" rx="32" fill="#e4e4e4"/><g transform="scale(8)" opacity=".1"><rect width="14" height="14" x="48" y="39" rx="4"/><path d="M57 39h5v5h-5zm-9 9h5v5h-5z"/></g><path d="M64 112h112v24H64z" fill="#ff8915"/><path d="M64 160v24h128v-24zm0 48v24h112v-24zm0 48v24h128v-24zm240 0v24h80v-24zM64 304v24h80v-24zm240 0v24h128v-24zM64 352v24h128v-24zm240 0v24h128v-24z" fill="#9c9891"/><path d="M48 72c-17.728 0-32 14.272-32 32v8c0-17.728 14.272-32 32-32h416c17.728 0 32 14.272 32 32v-8c0-17.728-14.272-32-32-32z" opacity=".2" fill="#fff"/><g fill="#ff8915"><circle cx="328" cy="216" r="24"/><path d="M304 152v11.264a10.98 10.98 0 0 0 10.968 10.84h0c30.096 0 54.992 24.984 54.992 54.928h0c.008 6.056 4.848 10.96 10.904 10.968H392v-10.84c0-41.352-33.016-77.16-74-77.16zm128 76.408C432 165.336 380.656 112 317.808 112H304v10.816c0 5.832 4.824 10.52 10.656 10.528h0c52.96 0 96.08 43.16 96 96.128.072 5.832 4.824 10.528 10.656 10.528H432"/></g><path d="M416 320c-17.728 0-32 14.272-32 32v80l112-112z" opacity=".1"/><path d="M416 312c-17.728 0-32 14.272-32 32v80l112-112z" fill="#fafafa"/></svg>
