<svg xmlns="http://www.w3.org/2000/svg" xmlns:xlink="http://www.w3.org/1999/xlink" width="512" height="512"><rect width="448" height="448" x="32" y="40" rx="33.6" opacity=".2"/><rect width="448" height="448" x="32" y="32" rx="33.6" fill="#a448ba"/><g opacity=".2"><use xlink:href="#B"/><use xlink:href="#C"/><use xlink:href="#D"/><use xlink:href="#E" fill-rule="evenodd"/></g><g fill="#fff"><use xlink:href="#B" y="-8"/><use xlink:href="#C" y="-8"/><use xlink:href="#D" y="-8"/><use xlink:href="#E" y="-8" fill-rule="evenodd"/></g><path d="M65.6 32A33.53 33.53 0 0 0 32 65.6v380.8A33.53 33.53 0 0 0 65.6 480H120V32z" opacity=".3"/><path d="M65.594 32A33.52 33.52 0 0 0 32 65.594v8A33.52 33.52 0 0 1 65.594 40h380.813A33.52 33.52 0 0 1 480 73.594v-8A33.52 33.52 0 0 0 446.406 32z" opacity=".1" fill="#fff"/><defs ><path id="B" d="M372.063 127.996c-16.208 0-32.604 4.174-43.723 11.796l10.554 19.781c7.35-5.626 18.469-9.074 29.212-9.074 15.831 0 24.687 11.589 24.687 23.748l-29.261-.133c-30.908-.14-43.533 11.534-43.533 28.775 0 16.878 12.899 29.105 36.645 29.105 14.889 0 30.683-4.242 36.149-13.135l.002 12.025 31.204-.006-.004-58.603c-.002-29.581-21.023-44.281-51.931-44.281zm-6.834 85.42c-10.365 0-16.585-4.719-16.585-11.796 0-6.533 4.333-9.56 18.091-9.475l26.057.133.002 5.632c.002 9.474-17.765 15.506-27.565 15.506z"/><path id="C" d="M258.365 213.583c-3.722 3.098-6.349 4.204-9.633 4.204-5.035 0-6.568-3.098-6.568-12.834v-43.149c0-11.506-1.095-17.923-4.378-23.234-4.816-7.966-18.011-12.17-30.928-12.17-20.579 0-36.779 10.843-36.779 24.783 0 5.089 4.16 9.515 9.414 9.515s9.851-4.425 9.851-9.294c0-.885-.219-1.991-.438-3.54-.438-1.991-.657-3.762-.657-5.311 0-5.974 7.005-10.843 15.762-10.843 10.727 0 18.403 6.417 18.403 18.366v17.594c-30.151 8.995-39.2 11.393-48.614 19.801-4.816 4.425-7.881 11.949-7.881 19.251 0 13.94 9.633 23.677 22.987 23.677 9.633 0 20.373-4.647 33.727-16.153 1.095 11.728 7.052 16.153 16.028 16.153 7.443 0 12.041-2.655 19.703-11.064zm-35.95-12.613c0 6.638-1.095 9.072-5.692 11.728-5.473 3.098-13.149 4.868-17.746 4.868-7.662 0-13.792-7.523-13.792-17.038v-.885c.219-13.277 11.616-17.588 37.23-26.661z"/><path id="D" d="M378.106 296.048c-3.583-.318-8.101.954-13.554 3.815s-10.983 7.153-16.592 12.875c-5.609 5.563-10.828 12.319-15.657 20.266-4.674 7.947-8.101 16.769-10.282 26.465-1.714 7.153-2.337 13.352-1.87 18.597.467 5.086 1.558 9.298 3.272 12.636 1.714 3.179 3.817 5.484 6.31 6.914 2.493 1.59 4.83 2.384 7.011 2.384 4.674-.318 9.348-1.351 14.021-3.1 4.051-1.589 8.335-4.053 12.853-7.391 4.518-3.497 8.647-8.424 12.386-14.782-.156 4.292.078 7.868.701 10.729.779 2.861 1.558 5.166 2.337 6.914.935 2.066 2.103 3.656 3.505 4.768 1.402.954 3.038 1.59 4.908 1.907 1.87.477 3.817.636 5.842.477a27.73 27.73 0 0 0 6.31-1.192c2.025-.636 3.817-1.431 5.375-2.384 2.337-1.589 5.219-4.292 8.647-8.106 3.583-3.974 7.167-8.265 10.75-12.875l10.75-14.067 8.413-11.921c1.87-2.543 2.96-4.768 3.272-6.676.467-1.907.389-3.338-.234-4.292s-1.558-1.271-2.804-.954c-1.246.159-2.493.954-3.739 2.384-.935 1.272-2.493 3.258-4.674 5.961l-7.011 9.299c-2.649 3.497-5.531 7.153-8.647 10.967-2.96 3.656-5.842 7.073-8.647 10.252-2.804 3.02-5.453 5.563-7.946 7.63-2.493 1.907-4.518 2.861-6.076 2.861-1.87 0-3.35-.397-4.44-1.192-.935-.954-1.636-2.146-2.103-3.576s-.779-2.941-.935-4.53c0-1.748.078-3.338.234-4.768l1.168-5.961c.312-1.589.545-2.941.701-4.053.312-1.272.545-2.464.701-3.576l.935-4.053 3.739-17.882 2.103-10.967c.467-2.702.701-4.53.701-5.484 0-1.113-.078-1.828-.234-2.146-.312-.159-.935-.238-1.869-.238-.779 0-1.947.078-3.505.238-1.402.159-3.194.477-5.375.954 3.272-5.086 4.518-9.14 3.739-12.16-.623-3.179-2.025-5.563-4.206-7.153-2.648-1.748-6.076-3.02-10.282-3.815zm-5.503 14.913c.594.032 1.102.227 1.531.584.467.636.779 1.51.935 2.623.156.954.078 2.305-.234 4.053-.156 1.589-.857 3.656-2.103 6.199 1.246-.318 2.493-.556 3.739-.715s2.259-.397 3.038-.715c.935-.318 1.792-.556 2.571-.715.623-.159.701 1.113.234 3.815-.312 2.543-.857 5.802-1.636 9.775s-1.714 8.106-2.804 12.398l-2.804 11.206c-.156.795-.857 2.066-2.103 3.815-1.091 1.748-2.571 3.656-4.44 5.722-1.714 2.066-3.739 4.053-6.076 5.961-2.181 1.907-4.44 3.497-6.777 4.768-2.181 1.113-4.362 1.748-6.543 1.907-2.181 0-4.129-.874-5.842-2.623-.935-.954-1.558-2.941-1.87-5.961-.312-3.179-.234-6.835.234-10.967.623-4.133 1.636-8.504 3.038-13.113 1.402-4.768 3.272-9.219 5.609-13.352 5.609-10.014 10.516-16.849 14.723-20.504 3.272-2.861 5.801-4.25 7.583-4.16z"/><path id="E" d="M190.005 296.001c-11.903-.165-11.903 17.461 0 17.295h43.485c.049.004 1.257.141 2.579.853 1.348.726 2.138.814 2.364 4.062v-.084l1.083 26.723c-2.027-.763-3.387-1.089-3.387-1.089l-1.04-.253h-40.683c-19.071 0-25.95 18.883-25.95 18.883l-.456 1.334v5.782c0 13.116 6.299 22.172 12.936 26.247s13.469 4.02 13.469 4.02h33.411l14.931-9.526.086 1.385c.395 11.827 18.586 10.778 17.57-1.013l-4.401-73.548v-.042c-.62-8.93-6.433-15.332-11.475-18.047s-9.937-2.964-9.937-2.964l-.292-.017zm4.401 64.802h38.044c.47.135 2.312.611 4.564 2.086 2.458 1.609 3.863 2.179 3.937 5.059l.61 2.429-18.953 12.102h-28.202s-1.97-.056-4.135-1.385-4.667-3.083-4.667-11.587v-3.299c.453-1.319 2.353-5.405 8.802-5.405z"/></defs></svg>
