<svg xmlns="http://www.w3.org/2000/svg" width="16" height="16" fill="#333"><path d="M8 4l-.307.014a4 4 0 0 0-1.641.498l.615.492c.582.456 1.3.73 1.477.78a.5.5 0 0 1 .355.365c.046.192-.022.537-.203.76s-.442.432-.89.727a.5.5 0 0 1-.26.082c-.88.028-1.348.184-1.662.383-.33.222-.435.358-.463.443s-.026.252.1.617c.17.497.467.886 1.088 1.306s1.376.534 2 .534c1.42 0 2.515-1.266 2.516-2.713a2.8 2.8 0 0 0-1.614-2.533c-.475-.22-.334-.93.2-.953l.195-.008c.425 0 .778.198 1.158.328C9.942 4.457 9.05 4 8 4z" opacity=".3"/><path d="M10.516 0C8.825 1.15 8.1 2.31 7.78 3.522L8 3.5c2.146 0 3.943 1.517 4.39 3.53C11.83 6 10.75 5.293 9.496 5.293l-.172.008c1.16.544 1.9 1.707 1.9 2.986-.001 1.707-1.3 3.152-2.983 3.318-.747.018-1.582-.228-2.15-.615-.835-.565-1.238-1.062-1.445-1.668-.275-.804-.185-1.143.565-1.643.407-.258.98-.433 1.918-.463.858-.564.924-.78.883-.95h-.002c-.267-.073-1-.356-1.652-.87 0 0-.565-.5-.96-.768-.153-.507-.272-1.068-.072-2.135-.77.253-1.396.92-1.926 1.516l-.037-.002c-.318-.613-.29-2.144-.29-2.144C1.408 3.152 0 5.25 0 8.094 0 12.46 3.582 16 8 16s8-3.54 8-7.906c0-2.033-.777-3.886-2.053-5.287 0 0-.12-.116-.195-.088.452.75.73 1.614.807 2.533l-.485-.697c-1.61-2.062-3.08-2.66-3.558-4.555z"/></svg>