<svg xmlns="http://www.w3.org/2000/svg" height="16" width="16"><defs><filter  color-interpolation-filters="sRGB"><feBlend in2="BackgroundImage" mode="darken"/></filter></defs><path d="M6.25 1l-.154 1.844a5.5 5.5 0 0 0-1.607.93l-1.676-.79-1.75 3.03 1.52 1.057A5.5 5.5 0 0 0 2.5 8a5.5 5.5 0 0 0 .08.932L1.063 9.984l1.75 3.03 1.672-.787a5.5 5.5 0 0 0 1.611.924L6.25 15h3.5l.154-1.844a5.5 5.5 0 0 0 1.607-.93l1.676.79 1.75-3.03-1.52-1.057A5.5 5.5 0 0 0 13.5 8a5.5 5.5 0 0 0-.08-.932l1.518-1.053-1.75-3.03-1.672.787a5.5 5.5 0 0 0-1.611-.924L9.75 1h-3.5zM8 6a2 2 0 1 1 0 4 2 2 0 1 1 0-4z" fill="#333"/></svg>