<?xml version="1.0" encoding="UTF-8" standalone="no"?>
<!-- Created with Inkscape (http://www.inkscape.org/) -->
<svg id="svg7384" xmlns:rdf="http://www.w3.org/1999/02/22-rdf-syntax-ns#" style="enable-background:new" xmlns="http://www.w3.org/2000/svg" xmlns:osb="http://www.openswatchbook.org/uri/2009/osb" height="48" width="48" version="1.1" xmlns:cc="http://creativecommons.org/ns#" xmlns:dc="http://purl.org/dc/elements/1.1/">
 <metadata id="metadata90">
  <rdf:RDF>
   <cc:Work rdf:about="">
    <dc:format>image/svg+xml</dc:format>
    <dc:type rdf:resource="http://purl.org/dc/dcmitype/StillImage"/>
    <dc:title>Paper Symbolic Icon Theme</dc:title>
   </cc:Work>
  </rdf:RDF>
 </metadata>
 <title id="title8473">Paper Symbolic Icon Theme</title>
 <g id="layer12" transform="translate(-409 71)">
  <rect id="rect4906" style="fill:none" transform="rotate(90)" height="48" width="48" y="-457" x="-71"/>
  <path id="path4908" style="fill:#bbf1dd" d="m419-58.992s-0.17191 0.006-0.40625 0.0527c-0.38724 0.0645-0.68424 0.20602-0.9043 0.39843-0.044 0.0338-0.0832 0.0742-0.125 0.11329-0.0391 0.0418-0.0795 0.081-0.11328 0.125-0.19242 0.22006-0.33389 0.51699-0.39844 0.90429-0.0471 0.23435-0.0527 0.40625-0.0527 0.40625v14 7.998s0.00002 2 2 2h8 10 8c2 0 2-2 2-2v-7.998-14s-0.006-0.1719-0.0527-0.40625c-0.0645-0.3873-0.20602-0.68423-0.39844-0.90429-0.0338-0.044-0.0741-0.0832-0.11328-0.125-0.0418-0.0391-0.081-0.0795-0.125-0.11329-0.22006-0.19241-0.51706-0.33389-0.9043-0.39843-0.2344-0.047-0.40631-0.0527-0.40631-0.0527h-26zm2 4h22v10h-22v-10zm0 12h10v5.998h-4-6v-5.998zm12 0h10v5.998h-6-4v-5.998z"/>
 </g>
</svg>
