<?xml version="1.0" encoding="UTF-8" standalone="no"?>
<!-- Created with Inkscape (http://www.inkscape.org/) -->
<svg id="svg7384" xmlns:rdf="http://www.w3.org/1999/02/22-rdf-syntax-ns#" style="enable-background:new" xmlns="http://www.w3.org/2000/svg" xmlns:osb="http://www.openswatchbook.org/uri/2009/osb" height="48" width="48" version="1.1" xmlns:cc="http://creativecommons.org/ns#" xmlns:dc="http://purl.org/dc/elements/1.1/">
 <metadata id="metadata90">
  <rdf:RDF>
   <cc:Work rdf:about="">
    <dc:format>image/svg+xml</dc:format>
    <dc:type rdf:resource="http://purl.org/dc/dcmitype/StillImage"/>
    <dc:title>Paper Symbolic Icon Theme</dc:title>
   </cc:Work>
  </rdf:RDF>
 </metadata>
 <title id="title8473">Paper Symbolic Icon Theme</title>
 <g id="layer12" transform="translate(-313 23)">
  <path id="path6517" style="opacity:.35;fill:#bbf1dd" d="m325-10.993s-2 0-2 2v18c0 2 2 2 2 2h4l2 2h10v-4h-8l-2-2h-4v-14h20v12h4v-14c0-2-2-2-2-2h-24z"/>
  <path id="path5898-0" style="enable-background:new;fill:#bbf1dd" d="m343 7.0002v2c0 0.55228 0.20058 1.0756 0.5625 1.4375l1.5625 1.5625-1.5625 1.5625c-0.36192 0.36192-0.5625 0.88522-0.5625 1.4375v2h2c0.55228 0 1.0756-0.20058 1.4375-0.5625l1.5625-1.5625 1.5625 1.5625c0.36192 0.36192 0.88522 0.5625 1.4375 0.5625h2v-2c0-0.55228-0.20058-1.0756-0.5625-1.4375l-1.5625-1.5625 1.5625-1.5625c0.36192-0.36192 0.5625-0.88522 0.5625-1.4375v-2h-2c-0.55228 0-1.0756 0.20058-1.4375 0.5625l-1.5625 1.5625-1.5625-1.5625c-0.36192-0.36192-0.88522-0.5625-1.4375-0.5625h-2z"/>
  <rect id="rect10241" style="color:#bebebe;fill:none" transform="rotate(-90)" height="48" width="48" y="313" x="-25"/>
 </g>
</svg>
