<svg xmlns="http://www.w3.org/2000/svg" height="16.01" width="16" fill="#333"><path d="M7.063.01c-.454.05-.884.22-1.25.5C5.325.88 5 1.464 5 2.197V7.51s.236.507.5.507.5-.507.5-.507V2.197a1.03 1.03 0 0 1 .438-.906c.266-.202.664-.3 1.063-.28s.784.154 1.063.406.47.584.47 1.125c0 2.165 1.464 3.51 3 3.47.857-.022 1.688-.477 2.25-1.312l-.562-1c-.375.916-1.068 1.295-1.72 1.313-.96.025-1.97-.73-1.97-2.47 0-.792-.337-1.444-.812-1.875S8.138.038 7.53.01c-.152-.007-.317-.017-.47 0zm6.938 2v.125l.78 1.375.03-.125zm0 .344l-.03.313.72 1.22.063-.187zm-.062.5c-.014.1-.044.167-.062.25l.656 1.125.094-.187zm-.094.438c-.024.09-.065.17-.094.25l.594 1.03c.04-.065.088-.118.125-.187z"/><rect height="8" rx=".727" width="7" x="2" y="6.009"/></svg>