<svg xmlns="http://www.w3.org/2000/svg" height="16" width="16"><defs><filter color-interpolation-filters="sRGB" id="A"><feBlend in2="BackgroundImage" mode="darken"/></filter></defs><g transform="translate(-281 52.031)" filter="url(#A)" fill="#333"><path d="M289.5-47a2.5 2.5 0 1 0 0 5 2.5 2.5 0 1 0 0-5zm0 1a1.5 1.5 0 1 1 0 3 1.5 1.5 0 1 1 0-3z"/><path d="M288-41h3v1h-3z"/><path d="M288-39h3v1h-3z"/><g transform="matrix(.707107 -.707107 .707107 .707107 0 0)"><path d="M234.67 166.74h3v1h-3z"/><path d="M234.67 168.74h3v1h-3z"/></g><path transform="matrix(.707107 .707107 -.707107 .707107 0 0)" d="M171.74-242.67h3v3h-3z"/></g></svg>