<?xml version="1.0" encoding="UTF-8" standalone="no"?>
<svg
   xmlns:dc="http://purl.org/dc/elements/1.1/"
   xmlns:cc="http://creativecommons.org/ns#"
   xmlns:rdf="http://www.w3.org/1999/02/22-rdf-syntax-ns#"
   xmlns:svg="http://www.w3.org/2000/svg"
   xmlns="http://www.w3.org/2000/svg"
   xmlns:sodipodi="http://sodipodi.sourceforge.net/DTD/sodipodi-0.dtd"
   xmlns:inkscape="http://www.inkscape.org/namespaces/inkscape"
   width="512"
   height="512"
   version="1"
   id="svg46"
   sodipodi:docname="user-trash-full.svg"
   inkscape:version="0.92.5 (2060ec1f9f, 2020-04-08)">
  <metadata
     id="metadata52">
    <rdf:RDF>
      <cc:Work
         rdf:about="">
        <dc:format>image/svg+xml</dc:format>
        <dc:type
           rdf:resource="http://purl.org/dc/dcmitype/StillImage" />
        <dc:title></dc:title>
      </cc:Work>
    </rdf:RDF>
  </metadata>
  <defs
     id="defs50" />
  <sodipodi:namedview
     pagecolor="#ffffff"
     bordercolor="#666666"
     borderopacity="1"
     objecttolerance="10"
     gridtolerance="10"
     guidetolerance="10"
     inkscape:pageopacity="0"
     inkscape:pageshadow="2"
     inkscape:window-width="1720"
     inkscape:window-height="1374"
     id="namedview48"
     showgrid="false"
     inkscape:zoom="4.9166667"
     inkscape:cx="24.610169"
     inkscape:cy="24"
     inkscape:window-x="1720"
     inkscape:window-y="27"
     inkscape:window-maximized="0"
     inkscape:current-layer="svg46" />
  <path
     style="opacity:0.2;stroke-width:10.66666698"
     d="m 117.33333,106.66667 h 277.33334 c 11.81866,0 21.33333,9.79535 21.33333,21.96266 0,0 32,95.37067 32,170.03734 C 448,373.33333 426.66667,480 394.66667,480 H 117.33333 C 85.333333,480 64,373.33333 64,298.66667 64,224 96,128.62933 96,128.62933 c 2.250313,-11.9574 9.51467,-21.96266 21.33333,-21.96266 z"
     id="path28"
     inkscape:connector-curvature="0" />
  <rect
     style="fill:#9f9f9f;stroke-width:10.66666698"
     width="128"
     height="42.666668"
     x="192"
     y="42.666656"
     id="rect30" />
  <path
     style="fill:#8e8e8e;stroke-width:10.66666698"
     d="M 117.33333,96 H 394.66667 C 406.48533,96 416,105.79535 416,117.96267 c 0,0 32,95.37066 32,170.03733 0,74.66667 -21.33333,181.33333 -53.33333,181.33333 H 117.33333 C 85.333333,469.33333 64,362.66667 64,288 64,213.33333 96,117.96267 96,117.96267 98.250313,106.00525 105.51467,96 117.33333,96 Z"
     id="path32"
     inkscape:connector-curvature="0" />
  <path
     style="opacity:0.3;fill:none;stroke:#000000;stroke-width:42.66666794;stroke-linecap:round"
     d="m 170.6688,224 c 0,0 -10.6688,42.66667 -10.6688,85.33333 0,42.66667 10.6688,85.33334 10.6688,85.33334"
     id="path34"
     inkscape:connector-curvature="0" />
  <rect
     style="fill:#9f9f9f;stroke-width:10.66666698"
     width="384"
     height="85.333336"
     x="64"
     y="64"
     rx="21.333334"
     ry="21.333334"
     id="rect36" />
  <path
     style="opacity:0.3;fill:none;stroke:#000000;stroke-width:42.66666794;stroke-linecap:round"
     d="M 256,224 V 394.66667"
     id="path38"
     inkscape:connector-curvature="0" />
  <path
     style="opacity:0.2;fill:#ffffff;stroke-width:10.66666698"
     d="M 85.333333,64 C 73.514667,64 64,73.51467 64,85.33333 V 96 C 64,84.18133 73.514667,74.66667 85.333333,74.66667 H 426.66667 C 438.48533,74.66667 448,84.18133 448,96 V 85.33333 C 448,73.51467 438.48533,64 426.66667,64 Z"
     id="path40"
     inkscape:connector-curvature="0" />
  <path
     style="opacity:0.2;stroke-width:10.66666698"
     d="m 64,128 v 10.66667 C 64,150.48533 73.514667,160 85.333333,160 H 426.66667 C 438.48533,160 448,150.48533 448,138.66667 V 128 c 0,11.81867 -9.51467,21.33333 -21.33333,21.33333 H 85.333333 C 73.514667,149.33333 64,139.81867 64,128 Z"
     id="path42"
     inkscape:connector-curvature="0" />
  <path
     style="opacity:0.3;fill:none;stroke:#000000;stroke-width:42.66666794;stroke-linecap:round"
     d="m 341.33547,224 c 0,0 10.66453,42.66667 10.66453,85.33333 0,42.66667 -10.66453,85.33334 -10.66453,85.33334"
     id="path44"
     inkscape:connector-curvature="0" />
</svg>
