<?xml version="1.0" encoding="UTF-8" standalone="no"?>
<svg
   xmlns:dc="http://purl.org/dc/elements/1.1/"
   xmlns:cc="http://creativecommons.org/ns#"
   xmlns:rdf="http://www.w3.org/1999/02/22-rdf-syntax-ns#"
   xmlns:svg="http://www.w3.org/2000/svg"
   xmlns="http://www.w3.org/2000/svg"
   xmlns:sodipodi="http://sodipodi.sourceforge.net/DTD/sodipodi-0.dtd"
   xmlns:inkscape="http://www.inkscape.org/namespaces/inkscape"
   width="512"
   height="512"
   version="1"
   id="svg36"
   sodipodi:docname="audio-input-microphone.svg"
   inkscape:version="0.92.5 (2060ec1f9f, 2020-04-08)">
  <metadata
     id="metadata42">
    <rdf:RDF>
      <cc:Work
         rdf:about="">
        <dc:format>image/svg+xml</dc:format>
        <dc:type
           rdf:resource="http://purl.org/dc/dcmitype/StillImage" />
        <dc:title></dc:title>
      </cc:Work>
    </rdf:RDF>
  </metadata>
  <defs
     id="defs40" />
  <sodipodi:namedview
     pagecolor="#ffffff"
     bordercolor="#666666"
     borderopacity="1"
     objecttolerance="10"
     gridtolerance="10"
     guidetolerance="10"
     inkscape:pageopacity="0"
     inkscape:pageshadow="2"
     inkscape:window-width="1684"
     inkscape:window-height="1374"
     id="namedview38"
     showgrid="false"
     inkscape:zoom="0.65186406"
     inkscape:cx="278.26351"
     inkscape:cy="154.72497"
     inkscape:window-x="1756"
     inkscape:window-y="27"
     inkscape:window-maximized="0"
     inkscape:current-layer="svg36" />
  <path
     style="opacity:0.2;fill-rule:evenodd;stroke-width:8"
     d="m 400.03125,175.53475 c -14.29807,-0.0432 -25.46261,12.34593 -23.93751,26.5625 0,0 2.24783,22.48566 -11.18748,51.934 C 351.47093,283.47958 326.94626,312 256,312 c -70.94624,0 -95.47093,-28.52042 -108.90626,-57.96875 -13.43532,-29.44834 -11.18749,-51.934 -11.18749,-51.934 1.47485,-14.40912 -10.05223,-26.83191 -24.53125,-26.4375 -12.322632,0.33784 -22.38588,9.95531 -23.281248,22.25001 0,0 -4.069752,33.50733 15.343748,76.05899 17.5098,38.37903 57.96772,77.41283 128.5625,84.71875 V 424 h -88 c -13.25484,0 -24,10.74517 -24,24 0,13.25483 10.74516,24 24,24 h 224 c 13.25483,0 24,-10.74517 24,-24 0,-13.25483 -10.74517,-24 -24,-24 h -88 v -65.3125 c 70.59478,-7.30592 111.05269,-46.33972 128.5625,-84.71875 19.4135,-42.55166 15.34376,-76.05899 15.34376,-76.05899 -0.85402,-12.56778 -11.27831,-22.33714 -23.87501,-22.37501 z"
     id="path24"
     inkscape:connector-curvature="0" />
  <rect
     style="opacity:0.2;stroke-width:8"
     width="240"
     height="208"
     x="-296"
     y="-360"
     rx="100.008"
     ry="104"
     transform="matrix(0,-1,-1,0,0,0)"
     id="rect26" />
  <path
     style="fill:#4f4f4f;fill-rule:evenodd;stroke-width:8"
     d="m 400.03125,167.53475 c -14.29807,-0.0432 -25.46261,12.34593 -23.93751,26.5625 0,0 2.24783,22.48566 -11.18748,51.934 C 351.47093,275.47958 326.94626,304 256,304 c -70.94624,0 -95.47093,-28.52042 -108.90626,-57.96875 -13.43532,-29.44834 -11.18749,-51.934 -11.18749,-51.934 1.47485,-14.40912 -10.05223,-26.83191 -24.53125,-26.4375 -12.322632,0.33784 -22.38588,9.95531 -23.281248,22.25001 0,0 -4.069752,33.50733 15.343748,76.05899 17.5098,38.37903 57.96772,77.41283 128.5625,84.71875 V 416 h -88 c -13.25484,0 -24,10.74517 -24,24 0,13.25483 10.74516,24 24,24 h 224 c 13.25483,0 24,-10.74517 24,-24 0,-13.25483 -10.74517,-24 -24,-24 h -88 v -65.3125 c 70.59478,-7.30592 111.05269,-46.33972 128.5625,-84.71875 19.4135,-42.55166 15.34376,-76.05899 15.34376,-76.05899 -0.85402,-12.56778 -11.27831,-22.33714 -23.87501,-22.37501 z"
     id="path28"
     inkscape:connector-curvature="0" />
  <rect
     style="fill:#8e8e8e;stroke-width:8"
     width="240"
     height="208"
     x="-288"
     y="-360"
     rx="100.008"
     ry="104"
     transform="matrix(0,-1,-1,0,0,0)"
     id="rect30" />
  <path
     style="opacity:0.1;fill:#ffffff;stroke-width:8"
     d="M 256,48 C 198.384,48 152,92.59723 152,148 v 8 c 0,-55.40277 46.384,-100 104,-100 57.616,0 104,44.59723 104,100 v -8 C 360,92.59723 313.616,48 256,48 Z"
     id="path32"
     inkscape:connector-curvature="0" />
  <path
     style="opacity:0.1;fill:#ffffff;fill-rule:evenodd;stroke-width:8"
     d="m 400.03125,167.53125 c -14.29807,-0.0432 -25.4626,12.34593 -23.9375,26.5625 0,0 0.0374,1.43474 0.0781,2.40625 1.48421,-11.71356 11.48393,-21.00614 23.85938,-20.96875 12.5967,0.0379 23.02098,9.80721 23.875,22.375 0,0 0.1607,2.23893 0.26562,4.79688 0.30374,-8.10019 -0.26562,-12.79688 -0.26562,-12.79688 -0.85402,-12.56779 -11.2783,-22.33713 -23.875,-22.375 z m -288.65625,0.125 c -12.322632,0.33784 -22.38588,9.95529 -23.281248,22.25 0,0 -0.569352,4.69669 -0.265624,12.79688 0.10492,-2.55795 0.265624,-4.79688 0.265624,-4.79688 0.895368,-12.29471 10.958616,-21.91216 23.281248,-22.25 12.57795,-0.34263 22.90323,9.00434 24.4375,20.90625 0.0412,-1.02156 0.0937,-2.46875 0.0937,-2.46875 1.47485,-14.40912 -10.05223,-26.83192 -24.53125,-26.4375 z m 24.51562,32.42188 c -0.0123,0.6772 0.086,1.3282 0.0156,2.01562 0,0 -2.24782,22.48916 11.1875,51.9375 C 160.52908,283.47958 185.05376,312 256,312 c 70.94626,0 95.47092,-28.52042 108.90625,-57.96875 13.43531,-29.44834 11.1875,-51.9375 11.1875,-51.9375 -0.0668,-0.62251 0.0189,-1.21352 0,-1.82813 -0.18557,8.46604 -1.78278,25.1518 -11.1875,45.76563 C 351.47092,275.47958 326.94626,304 256,304 185.05376,304 160.52908,275.47958 147.09375,246.03125 137.63138,225.29106 136.05863,208.48809 135.89062,200.07813 Z M 144,416 c -13.25484,0 -24,10.74517 -24,24 0,1.36846 0.18625,2.69411 0.40625,4 1.91092,-11.34296 11.70737,-20 23.59375,-20 h 88 v -8 z m 136,0 v 8 h 88 c 11.88638,0 21.68283,8.65704 23.59375,20 0.22,-1.30589 0.40625,-2.63154 0.40625,-4 0,-13.25483 -10.74517,-24 -24,-24 z"
     id="path34"
     inkscape:connector-curvature="0" />
</svg>
