<?xml version="1.0" encoding="UTF-8" standalone="no"?>
<svg
   xmlns:dc="http://purl.org/dc/elements/1.1/"
   xmlns:cc="http://creativecommons.org/ns#"
   xmlns:rdf="http://www.w3.org/1999/02/22-rdf-syntax-ns#"
   xmlns:svg="http://www.w3.org/2000/svg"
   xmlns="http://www.w3.org/2000/svg"
   xmlns:sodipodi="http://sodipodi.sourceforge.net/DTD/sodipodi-0.dtd"
   xmlns:inkscape="http://www.inkscape.org/namespaces/inkscape"
   inkscape:version="1.0 (4035a4fb49, 2020-05-01)"
   sodipodi:docname="audio-headphones.svg"
   id="svg12"
   version="1"
   height="512"
   width="512">
  <metadata
     id="metadata18">
    <rdf:RDF>
      <cc:Work
         rdf:about="">
        <dc:format>image/svg+xml</dc:format>
        <dc:type
           rdf:resource="http://purl.org/dc/dcmitype/StillImage" />
        <dc:title></dc:title>
      </cc:Work>
    </rdf:RDF>
  </metadata>
  <defs
     id="defs16" />
  <sodipodi:namedview
     inkscape:current-layer="svg12"
     inkscape:window-maximized="1"
     inkscape:window-y="0"
     inkscape:window-x="0"
     inkscape:cy="214.22683"
     inkscape:cx="186.31127"
     inkscape:zoom="1.453125"
     showgrid="false"
     id="namedview14"
     inkscape:window-height="1353"
     inkscape:window-width="3440"
     inkscape:pageshadow="2"
     inkscape:pageopacity="0"
     guidetolerance="10"
     gridtolerance="10"
     objecttolerance="10"
     borderopacity="1"
     bordercolor="#666666"
     pagecolor="#ffffff" />
  <path
     id="path2"
     d="M 256,66 C 167.36,66 96,137.36 96,226 v 16 c 0,-88.64 71.36,-160 160,-160 88.64,0 160,71.36 160,160 V 226 C 416,137.36 344.64,66 256,66 Z M 32,370 v 16 c 0,57.1136 40.6704,72.656 64,76.9056 v -16 c -23.3296,-4.256 -64,-19.792 -64,-76.912 z m 448,0 c 0,57.1136 -40.6704,72.7216 -64,77 v 16 c 23.328,-4.272 64,-19.872 64,-76.992 v -16 z M 96,482 v 16 h 80 v -16 z m 240,0 v 16 h 80 v -16 z"
     style="opacity:0.2;stroke-width:8" />
  <path
     id="path4"
     d="m 256,16.0032 c -123.712,0 -224,100.288 -224,224 v 144 c 0,57.1136 40.6704,72.656 64,76.9056 v -220.912 c 0,-88.64 71.36,-160 160,-160 88.64,0 160,71.36 160,160 v 220.992 c 23.328,-4.288 64,-19.872 64,-76.992 v -144 c 0,-123.712 -100.288,-224 -224,-224 z"
     style="fill:#4f4f4f;stroke-width:8" />
  <path
     id="path6"
     d="m 96,272 v 224 h 80 V 272 Z m 240,0 v 224 h 80 V 272 Z"
     style="fill:#8e8e8e;stroke-width:8" />
  <path
     sodipodi:nodetypes="sscscss"
     id="path8"
     d="M 256,16 C 132.288,16 32,116.288 32,240 v 8 C 32,124.288 132.33203,18.012368 256.04403,18.012368 379.75603,18.012368 480,124.288 480,248 v -8 C 480,116.288 379.712,16 256,16 Z"
     style="opacity:0.1;fill:#ffffff;stroke-width:8" />
  <path
     id="path10"
     d="m 96,272 v 2 h 80 v -2 z m 240,0 v 2 h 80 v -2 z"
     style="opacity:0.1;fill:#ffffff;stroke-width:4" />
</svg>
