<?xml version="1.0" encoding="UTF-8" standalone="no"?>
<svg
   xmlns:dc="http://purl.org/dc/elements/1.1/"
   xmlns:cc="http://creativecommons.org/ns#"
   xmlns:rdf="http://www.w3.org/1999/02/22-rdf-syntax-ns#"
   xmlns:svg="http://www.w3.org/2000/svg"
   xmlns="http://www.w3.org/2000/svg"
   xmlns:sodipodi="http://sodipodi.sourceforge.net/DTD/sodipodi-0.dtd"
   xmlns:inkscape="http://www.inkscape.org/namespaces/inkscape"
   width="512"
   height="512"
   version="1"
   id="svg12"
   sodipodi:docname="application-x-iso9660-appimage.svg"
   inkscape:version="0.92.5 (2060ec1f9f, 2020-04-08)">
  <metadata
     id="metadata18">
    <rdf:RDF>
      <cc:Work
         rdf:about="">
        <dc:format>image/svg+xml</dc:format>
        <dc:type
           rdf:resource="http://purl.org/dc/dcmitype/StillImage" />
        <dc:title></dc:title>
      </cc:Work>
    </rdf:RDF>
  </metadata>
  <defs
     id="defs16" />
  <sodipodi:namedview
     pagecolor="#ffffff"
     bordercolor="#666666"
     borderopacity="1"
     objecttolerance="10"
     gridtolerance="10"
     guidetolerance="10"
     inkscape:pageopacity="0"
     inkscape:pageshadow="2"
     inkscape:window-width="3440"
     inkscape:window-height="1356"
     id="namedview14"
     showgrid="false"
     inkscape:zoom="0.921875"
     inkscape:cx="32.813559"
     inkscape:cy="32"
     inkscape:window-x="0"
     inkscape:window-y="0"
     inkscape:window-maximized="1"
     inkscape:current-layer="svg12" />
  <path
     style="opacity:0.2;stroke-width:8"
     d="m 41.06707,187.89077 -1.718696,2.96875 c -2.523483,4.46874 -1.422747,10.65329 2.468764,13.9998 l 35.498684,31.15154 c 0.3614,-4.9068 0.871091,-9.76305 1.59372,-14.59354 l -37.09226,-32.55953 c -0.313592,-0.288 -0.473592,-0.672 -0.750392,-0.97598 z m 429.86575,0 c -0.27664,0.304 -0.43664,0.6992 -0.74992,0.96878 l -37.09386,32.56273 c 0.72208,4.83049 1.23214,9.68674 1.59374,14.59354 l 35.50028,-31.15634 c 3.89098,-3.34651 4.99208,-9.53106 2.46876,-13.9998 l -1.71196,-2.97595 z M 77.162544,256.01778 c -0.13328,2.65804 -0.343736,5.29352 -0.343736,7.99988 0,4.05946 0.20856,8.04148 0.499992,11.99983 l 1.593718,-1.40623 c -0.918386,-6.12791 -1.436779,-12.31981 -1.750374,-18.59172 z m 357.674796,0 c -0.31456,6.27095 -0.83311,12.46413 -1.75005,18.59332 l 1.59373,1.40623 c 0.29152,-3.95835 0.5,-7.94037 0.5,-11.99983 0,-2.70636 -0.2104,-5.34184 -0.34368,-7.99988 z m -393.77027,68.127 c -3.156755,3.47196 -4.038342,8.91188 -1.718376,13.02381 l 44.812146,77.68687 c 2.598208,4.40634 8.44516,6.57367 13.281088,4.90617 l 46.560922,-15.75977 c 13.99036,11.19936 29.94197,20.33411 46.90492,26.96761 l 9.4373,47.93691 c 0.95839,5.01912 5.73432,9.02402 10.84368,9.09362 h 89.6243 c 5.10921,-0.064 9.88561,-4.0745 10.84369,-9.09362 l 9.43729,-47.93691 c 16.94376,-6.6399 32.89553,-15.77577 46.87932,-26.97561 l 46.56252,15.74985 c 4.83578,1.6675 10.68289,-0.4992 13.28109,-4.90617 l 44.81215,-77.68687 c 2.32013,-4.10873 1.43838,-9.56097 -1.71869,-13.03101 l -43.09378,74.71732 c -2.5982,4.40697 -8.44531,6.57366 -13.28109,4.90616 l -46.57532,-15.75976 c -13.99035,11.19936 -29.94196,20.3021 -46.90492,26.9372 l -9.43729,47.96731 c -0.944,5.00793 -5.72792,9.02386 -10.83185,9.08786 h -89.6243 c -5.1092,-0.0688 -9.88529,-4.07449 -10.84368,-9.09362 l -9.42386,-47.96731 c -16.97575,-6.6399 -32.92112,-15.74376 -46.91132,-26.9436 l -46.562522,15.74376 c -4.835128,1.67998 -10.68144,-0.496 -13.279808,-4.89592 L 41.04691,324.10014 Z"
     id="path2"
     inkscape:connector-curvature="0" />
  <path
     style="fill:#1fa5cd;stroke-width:8"
     d="m 210.14621,32.01475 c -4.74889,0.51679 -8.93187,4.40234 -9.79986,9.09971 l -9.44962,47.9481 c -16.96455,6.63446 -32.90832,15.74985 -46.89852,26.95001 L 97.454888,100.2624 c -4.835928,-1.6675 -10.70144,0.4928 -13.299648,4.89993 L 39.355894,182.8604 c -2.523483,4.46873 -1.441579,10.65312 2.449884,13.99963 l 37.09866,32.54833 c -1.30558,8.72739 -2.099968,17.50854 -2.099968,26.59961 0,9.09139 0.793584,17.87174 2.099968,26.59961 l -37.09866,32.54993 c -3.890983,3.34651 -4.973367,9.53091 -2.449884,13.99963 l 44.799346,77.69808 c 2.598208,4.40633 8.46372,6.56726 13.299648,4.89976 l 46.548122,-15.74952 c 13.99036,11.19935 29.93397,20.3149 46.89852,26.95 l 9.44962,47.94811 c 0.95839,5.01913 5.74056,9.0301 10.84976,9.0997 h 89.5971 c 5.10921,-0.064 9.89169,-4.08057 10.84961,-9.0997 l 9.44977,-47.94811 c 16.96455,-6.63446 32.90832,-15.75001 46.89852,-26.95 l 46.54812,15.74952 c 4.83578,1.6675 10.70145,-0.4928 13.29965,-4.89976 l 44.79935,-77.69808 c 2.52332,-4.46872 1.44158,-10.65312 -2.44989,-13.99963 l -37.09865,-32.54993 c 1.30557,-8.72739 2.09981,-17.50694 2.09981,-26.59961 0,-9.09139 -0.7952,-17.87174 -2.09981,-26.59961 l 37.09865,-32.54833 c 3.89099,-3.34651 4.97321,-9.5309 2.44989,-13.99963 l -44.79935,-77.69807 c -2.5982,-4.40634 -8.46387,-6.56743 -13.29965,-4.89993 l -46.54812,15.74953 C 353.99612,104.80409 338.06034,95.68902 321.10059,89.05392 l -9.44977,-47.9481 c -0.9584,-5.01913 -5.7404,-9.03027 -10.84961,-9.09971 h -89.5971 c -0.3504,-0.008 -0.7008,-0.008 -1.04958,0 z"
     id="path4"
     inkscape:connector-curvature="0" />
  <path
     style="opacity:0.2;stroke-width:8"
     d="m 234.74014,152.00329 c -6.33135,0 -10.73813,5.09706 -10.73813,11.42841 V 296.00119 H 176.0027 l 79.99884,95.99861 79.99884,-95.99861 h -47.9993 V 163.4317 c 0,-6.33135 -4.40678,-11.42841 -10.73814,-11.42841 z"
     id="path6"
     inkscape:connector-curvature="0" />
  <path
     style="fill:#ffffff;stroke-width:8"
     d="m 234.74014,144.00352 c -6.33135,0 -10.73813,5.09707 -10.73813,11.42841 V 288.00142 H 176.0027 l 79.99884,95.99861 79.99884,-95.99861 h -47.9993 V 155.43193 c 0,-6.33134 -4.40678,-11.42841 -10.73814,-11.42841 z"
     id="path8"
     inkscape:connector-curvature="0" />
  <path
     style="opacity:0.2;fill:#ffffff;stroke-width:8"
     d="m 210.15625,32 -0.0156,0.0156 c -4.74888,0.5168 -8.92888,4.39638 -9.79687,9.09376 l -9.45313,47.95312 c -16.96455,6.63446 -32.90042,15.75296 -46.89062,26.95312 l -46.546872,-15.75 c -4.835928,-1.66749 -10.698672,0.4835 -13.29688,4.89063 l -44.796873,77.70313 c -1.614321,2.85872 -1.612649,6.36664 -0.484375,9.43749 0.180814,-0.47562 0.232532,-0.99152 0.484375,-1.43749 l 44.796873,-77.70313 c 2.598208,-4.40713 8.460952,-6.55812 13.29688,-4.89063 L 144,124.01562 c 13.9902,-11.20016 29.92607,-20.31866 46.89062,-26.95312 l 9.45313,-47.95312 c 0.86799,-4.69738 5.04799,-8.57696 9.79687,-9.09376 l 0.0156,-0.0156 c 0.34878,-0.008 0.69648,-0.008 1.04688,0 h 89.59374 c 5.10921,0.0694 9.90099,4.09025 10.85938,9.10938 l 9.4375,47.93749 c 16.95975,6.63511 32.90646,15.76091 46.90625,26.96875 l 46.54687,-15.75 c 4.83578,-1.66749 10.69868,0.48429 13.29688,4.89063 l 44.79687,77.70313 c 0.25183,0.44597 0.30358,0.96187 0.48438,1.43749 1.12826,-3.07085 1.12984,-6.57877 -0.48438,-9.43749 l -44.79687,-77.70313 c -2.5982,-4.40634 -8.4611,-6.55812 -13.29688,-4.89063 L 368,116.01562 C 354.00021,104.80778 338.0535,95.68198 321.09375,89.04687 l -9.4375,-47.93749 C 310.69786,36.09025 305.90608,32.06944 300.79687,32 h -89.59374 c -0.3504,-0.008 -0.6981,-0.008 -1.04688,0 z M 78.046875,236.65625 c -0.72673,6.36076 -1.25,12.77056 -1.25,19.35937 0,1.34949 0.137823,2.64775 0.171875,3.98438 0.195941,-7.66422 0.826248,-15.16538 1.9375,-22.59375 z m 355.906255,0 -0.85938,0.75 c 1.11045,7.42893 1.74142,14.92934 1.9375,22.59375 0.0341,-1.33658 0.15625,-2.63485 0.15625,-3.98438 0,-6.58904 -0.50778,-12.99864 -1.23437,-19.35937 z M 78.046875,283.35938 41.8125,315.15625 c -3.502665,3.01253 -4.568389,8.27231 -2.9375,12.5625 0.635437,-1.72946 1.535653,-3.35681 2.9375,-4.5625 l 37.09375,-32.54687 c -0.359572,-2.40228 -0.583355,-4.83438 -0.859375,-7.25 z m 355.906255,0 c -0.27598,2.41549 -0.50003,4.84784 -0.85938,7.25 l 37.09375,32.54687 c 1.40202,1.20569 2.30209,2.83304 2.9375,4.5625 1.63087,-4.29019 0.5656,-9.54997 -2.9375,-12.5625 z"
     id="path10"
     inkscape:connector-curvature="0" />
</svg>
