<svg xmlns="http://www.w3.org/2000/svg" width="512" height="512"><path d="M102 40c-12.188 0-22 9.99-22 22.4v403.2c0 12.41 9.812 22.4 22 22.4h308c12.188 0 22-9.99 22-22.4V168l-110-16-18-112z" opacity=".2"/><path d="M102 32c-12.188 0-22 9.99-22 22.4v403.2c0 12.41 9.812 22.4 22 22.4h308c12.188 0 22-9.99 22-22.4V160l-110-16-18-112z" fill="#2488d5"/><path d="M432 168L304 40v106.667A21.29 21.29 0 0 0 325.333 168z" opacity=".2"/><path d="M432 160L304 32v106.667A21.29 21.29 0 0 0 325.333 160z" fill="#53a4e2"/><path d="M192 216l8.731 9.029c6.602 7.502 14.039 14.312 20.827 21.637.075.069.191.11.269.179l11.019 11.395c-19.17 20.161-41.136 54.9-40.788 83.285-.761 18.896 6.565 37.198 18.269 51.665 19.035 23.572 47.528 37.538 76.327 44.407 4.149 1.001 25.323 5.443 13.731-1.094-19.874-9.692-41.096-20.657-52.192-41.046-12.125-19.332-3.718-47.107 9.404-66.878 5.543-7.175 12.545-17.874 20.077-23.983L320 348.365v-68.847V216h-.04z" opacity=".2"/><g fill="#fff"><path d="M192 208l8.731 9.029c6.602 7.502 14.039 14.312 20.827 21.637.075.069.191.11.269.179l11.019 11.395c-19.17 20.161-41.136 54.9-40.788 83.285-.761 18.896 6.565 37.198 18.269 51.665 19.035 23.572 47.528 37.538 76.327 44.407 4.149 1.001 25.323 5.443 13.731-1.094-19.874-9.692-41.096-20.657-52.192-41.046-12.125-19.332-3.718-47.107 9.404-66.878 5.543-7.175 12.545-17.874 20.077-23.983L320 340.365v-68.847V208h-.04z"/><path d="M102 32c-12.188 0-22 9.997-22 22.406v8C80 49.997 89.812 40 102 40h202v-8z" opacity=".2"/></g></svg>
