<?xml version="1.0" encoding="UTF-8" standalone="no"?>
<svg
   xmlns:dc="http://purl.org/dc/elements/1.1/"
   xmlns:cc="http://creativecommons.org/ns#"
   xmlns:rdf="http://www.w3.org/1999/02/22-rdf-syntax-ns#"
   xmlns:svg="http://www.w3.org/2000/svg"
   xmlns="http://www.w3.org/2000/svg"
   xmlns:sodipodi="http://sodipodi.sourceforge.net/DTD/sodipodi-0.dtd"
   xmlns:inkscape="http://www.inkscape.org/namespaces/inkscape"
   width="16"
   height="16"
   version="1"
   id="svg46"
   sodipodi:docname="user-trash-full.svg"
   inkscape:version="0.92.5 (2060ec1f9f, 2020-04-08)">
  <metadata
     id="metadata52">
    <rdf:RDF>
      <cc:Work
         rdf:about="">
        <dc:format>image/svg+xml</dc:format>
        <dc:type
           rdf:resource="http://purl.org/dc/dcmitype/StillImage" />
        <dc:title></dc:title>
      </cc:Work>
    </rdf:RDF>
  </metadata>
  <defs
     id="defs50" />
  <sodipodi:namedview
     pagecolor="#ffffff"
     bordercolor="#666666"
     borderopacity="1"
     objecttolerance="10"
     gridtolerance="10"
     guidetolerance="10"
     inkscape:pageopacity="0"
     inkscape:pageshadow="2"
     inkscape:window-width="1720"
     inkscape:window-height="1374"
     id="namedview48"
     showgrid="false"
     inkscape:zoom="20.85965"
     inkscape:cx="24.349647"
     inkscape:cy="16"
     inkscape:window-x="1720"
     inkscape:window-y="27"
     inkscape:window-maximized="0"
     inkscape:current-layer="svg46" />
  <path
     style="opacity:0.2;stroke-width:0.50917506"
     d="M 2.8444444,2.375 H 12.955556 c 0.430888,0 0.777777,0.344368 0.777777,0.772125 0,0 1.166667,3.352875 1.166667,5.977875 0,2.625 -0.777778,6.375 -1.944444,6.375 H 2.8444444 C 1.6777778,15.5 0.9,11.75 0.9,9.125 0.9,6.5 2.0666667,3.147125 2.0666667,3.147125 2.1487094,2.726747 2.4135556,2.375 2.8444444,2.375 Z"
     id="path28"
     inkscape:connector-curvature="0" />
  <rect
     style="fill:#9f9f9f;stroke-width:0.5"
     width="4.5"
     height="1.5"
     x="6"
     y="0.5"
     id="rect30" />
  <path
     style="fill:#8e8e8e;stroke-width:0.50917506"
     d="M 2.8444444,1.875 H 12.955556 c 0.430888,0 0.777777,0.344368 0.777777,0.772125 C 13.733333,2.647125 14.9,6 14.9,8.625 14.9,11.25 14.122222,15 12.955556,15 H 2.8444444 C 1.6777778,15 0.9,11.25 0.9,8.625 0.9,6 2.0666667,2.647125 2.0666667,2.647125 2.1487094,2.226747 2.4135556,1.875 2.8444444,1.875 Z"
     id="path32"
     inkscape:connector-curvature="0" />
  <path
     style="opacity:0.3;fill:none;stroke:#000000;stroke-width:1.5;stroke-linecap:round"
     d="m 5.250075,6.25 c 0,0 -0.500075,1.625 -0.500075,3.125 0,1.5 0.500075,2.875 0.500075,2.875"
     id="path34"
     inkscape:connector-curvature="0" />
  <rect
     style="opacity:0.2;stroke-width:0.50917506"
     width="14"
     height="3"
     x="1"
     y="1.5"
     rx="0.77777779"
     ry="0.75"
     id="rect36" />
  <rect
     style="fill:#9f9f9f;stroke-width:0.50917506"
     width="14"
     height="3"
     x="1"
     y="1"
     rx="0.77777779"
     ry="0.75"
     id="rect38" />
  <path
     style="opacity:0.3;fill:none;stroke:#000000;stroke-width:1.5;stroke-linecap:round"
     d="m 8.25,6.25 v 6"
     id="path40"
     inkscape:connector-curvature="0" />
  <path
     style="opacity:0.3;fill:none;stroke:#000000;stroke-width:1.5;stroke-linecap:round"
     d="m 11.250075,6.25 c 0,0 0.499925,1.625 0.499925,3.125 0,1.5 -0.499925,2.875 -0.499925,2.875"
     id="path42"
     inkscape:connector-curvature="0" />
  <path
     style="opacity:0.2;fill:#ffffff;stroke-width:0.50917506"
     d="M 1.7777778,1 C 1.3468889,1 1,1.3345 1,1.75 v 0.5 C 1,1.8345 1.3468889,1.5 1.7777778,1.5 H 14.222222 C 14.653111,1.5 15,1.8345 15,2.25 V 1.75 C 15,1.3345 14.653111,1 14.222222,1 Z"
     id="path44"
     inkscape:connector-curvature="0" />
</svg>
