<svg xmlns="http://www.w3.org/2000/svg" width="16" height="16.02" fill="#333333"><path d="M8.5.02c-2.731 0-4.984 2.151-5.422 4.99h2.391l.104-.123.146.123H8V1.313l3.699 3.697h2.223C13.484 2.171 11.231.02 8.5.02zM9 3.727V5.01h1.283zM3.074 11.01c.43 2.849 2.688 5.01 5.426 5.01s4.995-2.16 5.426-5.01h-2.207L8 14.727V11.01H5.742l-.17.143-.119-.143zm5.926 0v1.303l1.303-1.303z" opacity=".35"/><path d="M3 6c-1.108 0-2 .892-2 2s.892 2 2 2 2-.892 2-2-.892-2-2-2zm5 0c-1.108 0-2 .892-2 2s.892 2 2 2 2-.892 2-2-.892-2-2-2zm5 0c-1.108 0-2 .892-2 2s.892 2 2 2 2-.892 2-2-.892-2-2-2z"/></svg>
