<svg xmlns="http://www.w3.org/2000/svg" width="16" height="16.02"><path d="M8.5.02a5.19 5.19 0 0 0-3.299 1.193L8 4.012V1.313l4.24 4.238-1.469 1.232L14 10.012V6.02c0-3.324-2.453-6-5.5-6zM3 .99L1.5 2.488l1.746 1.746A6.53 6.53 0 0 0 3 6.02v4c0 3.324 2.453 6 5.5 6 1.74 0 3.285-.873 4.291-2.24L14 14.989l1.5-1.499-1.732-1.732-4.07-4.07L8 5.99 4.234 2.225zm6 2.736v1.285l1.063 1.063.697-.588zm-1.643 4.62L9 9.988v2.324l1.162-1.162.707.707L8 14.727V9.113l-2.428 2.039-.645-.766 2.43-2.041z" fill="#333333"/></svg>
