<?xml version="1.0" encoding="UTF-8" standalone="no"?>
<!-- Created with Inkscape (http://www.inkscape.org/) -->
<svg id="svg6530" xmlns:rdf="http://www.w3.org/1999/02/22-rdf-syntax-ns#" xmlns="http://www.w3.org/2000/svg" xmlns:osb="http://www.openswatchbook.org/uri/2009/osb" height="22" viewBox="0 0 22 22" width="22" version="1.1" xmlns:cc="http://creativecommons.org/ns#" xmlns:dc="http://purl.org/dc/elements/1.1/">
 <metadata id="metadata6535">
  <rdf:RDF>
   <cc:Work rdf:about="">
    <dc:format>image/svg+xml</dc:format>
    <dc:type rdf:resource="http://purl.org/dc/dcmitype/StillImage"/>
    <dc:title/>
   </cc:Work>
  </rdf:RDF>
 </metadata>
 <g id="layer1" transform="translate(-201 -517.36)">
  <rect id="rect4907" style="color:#bebebe;fill:none" height="22" width="22" y="517.36" x="201"/>
  <path id="path3003-1" style="opacity:.35;fill:#ffffff" d="m217 522.36s2 0 2 2h-14c0-2 1.9688-2 1.9688-2zm2 8c0 2-2 2-2 2h-1l-2 3-2-3h-5c-1.108 0-2-0.892-2-2z"/>
  <path id="rect8040-5-8" style="color:#000000;enable-background:new;fill:#ffffff" d="m207 525.36c-1.108 0-2 0.892-2 2s0.892 2 2 2 2-0.892 2-2-0.892-2-2-2zm5 0c-1.108 0-2 0.892-2 2s0.892 2 2 2 2-0.892 2-2-0.892-2-2-2zm5 0c-1.108 0-2 0.892-2 2s0.892 2 2 2 2-0.892 2-2-0.892-2-2-2z"/>
 </g>
</svg>
